<svg width="126" height="126" viewBox="0 0 126 126" fill="none" xmlns="http://www.w3.org/2000/svg">
<g filter="url(#filter0_d_242_4001)">
<circle cx="63" cy="51" r="39" fill="#2AB858"/>
</g>
<g clip-path="url(#clip0_242_4001)">
<path d="M72.0121 36H54.9879C51.1284 36 48 39.1284 48 42.9879V60.0121C48 63.8716 51.1284 67 54.9879 67H72.0121C75.8716 67 79 63.8716 79 60.0121V42.9879C79 39.1284 75.8703 36 72.0121 36ZM71.6168 55.2006C69.4481 57.6961 64.6005 60.7367 63.4974 61.2017C62.3943 61.6667 62.5571 60.9059 62.6023 60.6437C62.6294 60.4887 62.7495 59.7589 62.7495 59.7589C62.7844 59.4954 62.8206 59.086 62.716 58.825C62.5997 58.537 62.1425 58.3885 61.8053 58.3148C56.8389 57.6587 53.1615 54.1867 53.1615 50.0404C53.1615 45.4162 57.7986 41.6523 63.4974 41.6523C69.1962 41.6523 73.8333 45.415 73.8333 50.0404C73.832 51.8901 73.1152 53.5576 71.6168 55.2006Z" fill="#F5F5F5"/>
<path d="M68.4216 48.9322V49.693H70.3952C70.5037 49.693 70.5929 49.7821 70.5929 49.8906V50.6243C70.5929 50.7328 70.505 50.8219 70.3952 50.8219H68.4216V51.5827H70.3952C70.5037 51.5827 70.5929 51.6718 70.5929 51.7803V52.514C70.5929 52.6225 70.505 52.7103 70.3952 52.7103H67.4916C67.3831 52.7103 67.2939 52.6225 67.2939 52.514V48.0022C67.2939 47.8937 67.3818 47.8045 67.4916 47.8045H70.3952C70.5037 47.8045 70.5929 47.8924 70.5929 48.0022V48.7345C70.5929 48.843 70.505 48.9322 70.3952 48.9322H68.4216Z" fill="#F5F5F5"/>
<path d="M59.8499 51.7803V52.514C59.8499 52.6225 59.762 52.7103 59.6522 52.7103H56.7486C56.6401 52.7103 56.5522 52.6225 56.5522 52.514V48.0022C56.5522 47.8937 56.6401 47.8045 56.7486 47.8045H57.4822C57.5907 47.8045 57.6799 47.8924 57.6799 48.0022V51.5827H59.6535C59.762 51.5827 59.8499 51.6718 59.8499 51.7803Z" fill="#F5F5F5"/>
<path d="M61.5988 48.0022V52.5127C61.5988 52.6212 61.511 52.709 61.4012 52.709H60.6688C60.5603 52.709 60.4712 52.6212 60.4712 52.5127V48.0022C60.4712 47.8937 60.559 47.8045 60.6688 47.8045H61.4012C61.5097 47.8045 61.5988 47.8937 61.5988 48.0022Z" fill="#F5F5F5"/>
<path d="M66.5883 48.0022V52.5127C66.5883 52.6212 66.5005 52.709 66.3907 52.709H65.6622C65.5976 52.709 65.5343 52.6767 65.4969 52.6238L63.4302 49.8338V52.5127C63.4302 52.6212 63.3424 52.709 63.2326 52.709H62.4989C62.3904 52.709 62.3013 52.6212 62.3013 52.5127V48.0022C62.3013 47.8937 62.3891 47.8045 62.4989 47.8045H63.2274C63.2959 47.8045 63.3553 47.8407 63.3953 47.8937L65.4594 50.6811V48.0022C65.4594 47.8937 65.5472 47.8045 65.657 47.8045H66.3907C66.5005 47.8045 66.5883 47.8937 66.5883 48.0022Z" fill="#F5F5F5"/>
</g>
<defs>
<filter id="filter0_d_242_4001" x="0" y="0" width="126" height="126" filterUnits="userSpaceOnUse" color-interpolation-filters="sRGB">
<feFlood flood-opacity="0" result="BackgroundImageFix"/>
<feColorMatrix in="SourceAlpha" type="matrix" values="0 0 0 0 0 0 0 0 0 0 0 0 0 0 0 0 0 0 127 0" result="hardAlpha"/>
<feOffset dy="12"/>
<feGaussianBlur stdDeviation="12"/>
<feColorMatrix type="matrix" values="0 0 0 0 0 0 0 0 0 0 0 0 0 0 0 0 0 0 0.1 0"/>
<feBlend mode="normal" in2="BackgroundImageFix" result="effect1_dropShadow_242_4001"/>
<feBlend mode="normal" in="SourceGraphic" in2="effect1_dropShadow_242_4001" result="shape"/>
</filter>
<clipPath id="clip0_242_4001">
<rect width="31" height="31" fill="white" transform="translate(48 36)"/>
</clipPath>
</defs>
</svg>
