<svg width="25" height="19" viewBox="0 0 25 19" fill="none" xmlns="http://www.w3.org/2000/svg">
<path d="M0 0H25V18.75H0V0Z" fill="#DE2910"/>
<path d="M2.99999 6.9375L4.68746 1.875L6.37494 6.9375L1.875 3.84375H7.49993L2.99999 6.9375Z" fill="#FFDE00"/>
<path d="M10.3173 1.9721L8.58064 2.35695L9.73904 1.00708L9.62542 2.82383L8.6617 1.21546L10.3173 1.9721Z" fill="#FFDE00"/>
<path d="M12.0708 4.19342L10.3209 3.87461L11.9121 3.07967L11.1028 4.71015L10.8383 2.85391L12.0708 4.19342Z" fill="#FFDE00"/>
<path d="M11.8154 7.30951L10.3476 6.30469L12.1247 6.22788L10.7208 7.3865L11.2363 5.58377L11.8154 7.30951Z" fill="#FFDE00"/>
<path d="M9.61028 9.3449L8.6445 7.85115L10.3134 8.46667L8.57089 8.99314L9.74269 7.52943L9.61028 9.3449Z" fill="#FFDE00"/>
</svg>
