<svg width="25" height="14" viewBox="0 0 25 14" fill="none" xmlns="http://www.w3.org/2000/svg">
<path fill-rule="evenodd" clip-rule="evenodd" d="M0 0H25V1.01254H0V0ZM0 2.02508H25V3.03762H0V2.02508ZM0 4.04759H25V5.06271H0V4.04759ZM0 6.07268H25V7.08522H0V6.07268ZM0 8.09776H25V9.1103H0V8.09776ZM0 10.1203H25V11.1328H0V10.1203ZM0 12.1454H25V13.1579H0V12.1454Z" fill="#BD3D44"/>
<path fill-rule="evenodd" clip-rule="evenodd" d="M0 1.0127H25V2.02524H0V1.0127ZM0 3.03778H25V4.04775H0V3.03778ZM0 5.06029H25V6.07283H0V5.06029ZM0 7.08537H25V8.09791H0V7.08537ZM0 9.11045H25V10.123H0V9.11045ZM0 11.133H25V12.1455H0V11.133Z" fill="white"/>
<path fill-rule="evenodd" clip-rule="evenodd" d="M0 0H9.99949V7.08522H0V0Z" fill="#192F5D"/>
<path fill-rule="evenodd" clip-rule="evenodd" d="M0.830798 0.303711L0.923314 0.58383H1.21628L0.979852 0.756014L1.0698 1.0387L0.830798 0.863949L0.594367 1.03613L0.684313 0.756014L0.445312 0.58383H0.743421L0.830798 0.303711ZM2.49866 0.303711L2.58861 0.58383H2.88415L2.64515 0.756014L2.73509 1.0387L2.49866 0.863949L2.25966 1.03613L2.34961 0.756014L2.11318 0.58383H2.40615L2.49866 0.303711ZM4.16396 0.303711L4.25648 0.58383H4.54688L4.31044 0.756014L4.40039 1.0387L4.16139 0.863949L3.92496 1.03613L4.01491 0.756014L3.77591 0.58383H4.07144L4.16396 0.303711ZM5.83183 0.303711L5.92177 0.58383H6.21731L5.97831 0.756014L6.07083 1.0387L5.83183 0.863949L5.59283 1.03613L5.68534 0.756014L5.44634 0.58383H5.73931L5.83183 0.303711ZM7.49712 0.303711L7.58964 0.58383H7.88261L7.64618 0.756014L7.73612 1.0387L7.49712 0.863949L7.26069 1.03613L7.35064 0.756014L7.11421 0.58383H7.40718L7.49712 0.303711ZM9.16499 0.303711L9.25494 0.58383H9.55047L9.31147 0.756014L9.40399 1.0387L9.16499 0.863949L8.92599 1.03613L9.0185 0.756014L8.7795 0.58383H9.07504L9.16499 0.303711ZM1.66602 1.013L1.75596 1.29312H2.0515L1.8125 1.46531L1.89988 1.74543L1.66859 1.57324L1.42958 1.74543L1.51439 1.46531L1.2831 1.29312H1.57607L1.66602 1.013ZM3.33131 1.013L3.42383 1.29312H3.7168L3.4778 1.46531L3.57031 1.74543L3.33131 1.57324L3.09231 1.74543L3.18483 1.46531L2.94583 1.29312H3.24137L3.33131 1.013ZM4.99918 1.013L5.08913 1.29312H5.38466L5.14566 1.46531L5.23561 1.74543L4.99918 1.57324L4.76018 1.74543L4.85012 1.46531L4.61369 1.29312H4.90666L4.99918 1.013ZM6.66447 1.013L6.75699 1.29312H7.04996L6.81096 1.46531L6.90348 1.74543L6.66447 1.57324L6.42804 1.74543L6.51799 1.46531L6.27899 1.29312H6.5771L6.66447 1.013ZM8.33234 1.013L8.42229 1.29312H8.71783L8.47882 1.46531L8.56877 1.74543L8.33234 1.57324L8.09334 1.74543L8.18329 1.46531L7.94686 1.29312H8.23982L8.33234 1.013ZM0.830798 1.71973L0.923314 2.00499H1.21628L0.979852 2.17717L1.0698 2.45729L0.830798 2.28253L0.594367 2.45729L0.684313 2.1746L0.445312 2.00242H0.743421L0.830798 1.71973ZM2.49866 1.71973L2.58861 2.00242H2.88415L2.64515 2.1746L2.73509 2.45472L2.49866 2.27996L2.25966 2.45472L2.34961 2.17203L2.11318 1.99985H2.40615L2.49866 1.71973ZM4.16396 1.71973L4.25648 2.00242H4.54688L4.31044 2.1746L4.40039 2.45472L4.16139 2.27996L3.92496 2.45472L4.01491 2.17203L3.77591 1.99985H4.07144L4.16396 1.71973ZM5.83183 1.71973L5.92177 2.00242H6.21731L5.97831 2.1746L6.07083 2.45472L5.83183 2.27996L5.59283 2.45472L5.68534 2.17203L5.44634 1.99985H5.73931L5.83183 1.71973ZM7.49712 1.71973L7.58964 2.00242H7.88261L7.64618 2.1746L7.73612 2.45472L7.49712 2.27996L7.26069 2.45472L7.35064 2.17203L7.11421 1.99985H7.40718L7.49712 1.71973ZM9.16499 1.71973L9.25494 2.00242H9.55047L9.31147 2.1746L9.40399 2.45472L9.16499 2.27996L8.92599 2.45472L9.0185 2.17203L8.7795 1.99985H9.07504L9.16499 1.71973ZM1.66602 2.42902L1.75596 2.70914H2.0515L1.8125 2.88132L1.90245 3.16401L1.66602 2.98926L1.42701 3.16144L1.51696 2.88132L1.28053 2.70914H1.5735L1.66602 2.42902ZM3.33131 2.42902L3.42383 2.70914H3.7168L3.4778 2.88132L3.57031 3.16401L3.33131 2.98926L3.09231 3.16144L3.18483 2.88132L2.94583 2.70914H3.24137L3.33131 2.42902ZM4.99918 2.42902L5.08913 2.70914H5.38466L5.14566 2.88132L5.23561 3.16401L4.99918 2.98926L4.76018 3.16144L4.85012 2.88132L4.61369 2.70914H4.90666L4.99918 2.42902ZM6.66447 2.42902L6.75699 2.70914H7.04996L6.81353 2.88132L6.90348 3.16401L6.66447 2.98926L6.42804 3.16144L6.51799 2.88132L6.27899 2.70914H6.5771L6.66447 2.42902ZM8.33234 2.42902L8.42229 2.70914H8.71783L8.47882 2.88132L8.56877 3.16401L8.33234 2.98926L8.09334 3.16144L8.18329 2.88132L7.94686 2.70914H8.23982L8.33234 2.42902ZM0.830798 3.13831L0.923314 3.41843H1.21628L0.979852 3.59061L1.0698 3.8733L0.830798 3.69855L0.594367 3.87073L0.684313 3.59061L0.445312 3.41843H0.743421L0.830798 3.13831ZM2.49866 3.13831L2.58861 3.41843H2.88415L2.64515 3.59061L2.73509 3.87073L2.49866 3.69855L2.25966 3.87073L2.34961 3.59061L2.11318 3.41843H2.40615L2.49866 3.13831ZM4.16396 3.13831L4.25648 3.41843H4.54688L4.31044 3.59061L4.40039 3.8733L4.16139 3.69855L3.92496 3.87073L4.01491 3.59061L3.77591 3.41843H4.07144L4.16396 3.13831ZM5.83183 3.13831L5.92177 3.41843H6.21731L5.97831 3.59061L6.07083 3.8733L5.83183 3.69855L5.59283 3.87073L5.68534 3.59061L5.44634 3.41843H5.73931L5.83183 3.13831ZM7.49712 3.13831L7.58964 3.41843H7.88261L7.64618 3.59061L7.73612 3.8733L7.49712 3.69855L7.26069 3.87073L7.35064 3.59061L7.11421 3.41843H7.40718L7.49712 3.13831ZM9.16499 3.13831L9.25494 3.41843H9.55047L9.31147 3.59061L9.40399 3.8733L9.16499 3.69855L8.92599 3.87073L9.0185 3.59061L8.7795 3.41843H9.07504L9.16499 3.13831ZM1.66602 3.8476L1.75596 4.12772H2.0515L1.8125 4.29991L1.90245 4.58003L1.66602 4.40527L1.42701 4.58003L1.51696 4.29734L1.28053 4.12515H1.5735L1.66602 3.8476ZM3.33131 3.8476L3.42383 4.12772H3.7168L3.4778 4.29991L3.57031 4.58003L3.33131 4.40527L3.09231 4.58003L3.18483 4.29734L2.94583 4.12515H3.24137L3.33131 3.8476ZM4.99918 3.8476L5.08913 4.12772H5.38466L5.14566 4.29991L5.23561 4.58003L4.99918 4.40527L4.76018 4.58003L4.85012 4.29734L4.61369 4.12515H4.90666L4.99918 3.8476ZM6.66447 3.8476L6.75699 4.12772H7.04996L6.81353 4.29991L6.90348 4.58003L6.66447 4.40527L6.42804 4.58003L6.51799 4.29734L6.27899 4.12515H6.5771L6.66447 3.8476ZM8.33234 3.8476L8.42229 4.12772H8.71783L8.47882 4.29991L8.56877 4.58003L8.33234 4.40527L8.09334 4.58003L8.18329 4.29734L7.94686 4.12515H8.23982L8.33234 3.8476ZM0.830798 4.55433L0.923314 4.83702H1.21628L0.979852 5.0092L1.0698 5.28675L0.830798 5.11457L0.594367 5.28675L0.684313 5.00663L0.445312 4.83445H0.743421L0.830798 4.55433ZM2.49866 4.55433L2.58861 4.83702H2.88415L2.64515 5.0092L2.73766 5.28675L2.49866 5.11457L2.25966 5.28675L2.35218 5.00663L2.11318 4.83445H2.40615L2.49866 4.55433ZM4.16396 4.55433L4.25648 4.83702H4.54688L4.31044 5.0092L4.40039 5.28675L4.16139 5.11457L3.92496 5.28675L4.01491 5.00663L3.77591 4.83445H4.07144L4.16396 4.55433ZM5.83183 4.55433L5.92177 4.83702H6.21731L5.97831 5.0092L6.07083 5.28675L5.83183 5.11457L5.59283 5.28675L5.68534 5.00663L5.44634 4.83445H5.73931L5.83183 4.55433ZM7.49712 4.55433L7.58964 4.83702H7.88261L7.64618 5.0092L7.73612 5.28675L7.49712 5.11457L7.26069 5.28675L7.35064 5.00663L7.11421 4.83445H7.40718L7.49712 4.55433ZM9.16499 4.55433L9.25494 4.83702H9.55047L9.31147 5.0092L9.40399 5.28675L9.16499 5.11457L8.92599 5.28675L9.0185 5.00663L8.7795 4.83445H9.07504L9.16499 4.55433ZM1.66602 5.26362L1.75596 5.54374H2.0515L1.8125 5.71592L1.90245 5.99861L1.66602 5.82386L1.42701 5.99604L1.51696 5.71592L1.28053 5.54374H1.5735L1.66602 5.26362ZM3.33131 5.26362L3.42383 5.54374H3.7168L3.4778 5.71592L3.57031 5.99861L3.33131 5.82386L3.09231 5.99604L3.18483 5.71592L2.94583 5.54374H3.24137L3.33131 5.26362ZM4.99918 5.26362L5.08913 5.54374H5.38466L5.14566 5.71592L5.23561 5.99861L4.99918 5.82386L4.76018 5.99604L4.85012 5.71592L4.61369 5.54374H4.90666L4.99918 5.26362ZM6.66447 5.26362L6.75699 5.54374H7.04996L6.81353 5.71592L6.90348 5.99861L6.66447 5.82386L6.42804 5.99604L6.51799 5.71592L6.27899 5.54374H6.5771L6.66447 5.26362ZM8.33234 5.26362L8.42229 5.54374H8.71783L8.47882 5.71592L8.56877 5.99861L8.33234 5.82386L8.09334 5.99604L8.18329 5.71592L7.94686 5.54374H8.23982L8.33234 5.26362ZM0.830798 5.97291L0.923314 6.25303H1.21628L0.979852 6.42522L1.0698 6.70534L0.830798 6.53315L0.594367 6.70534L0.684313 6.42265L0.445312 6.25046H0.743421L0.830798 5.97291ZM2.49866 5.97291L2.58861 6.25303H2.88415L2.64515 6.42522L2.73766 6.70534L2.49866 6.53315L2.25966 6.70534L2.35218 6.42265L2.11318 6.25046H2.40615L2.49866 5.97291ZM4.16396 5.97291L4.25648 6.25303H4.54688L4.31558 6.42522L4.40553 6.70534L4.16653 6.53315L3.9301 6.70534L4.02005 6.42265L3.78104 6.25046H4.07658L4.16396 5.97291ZM5.83183 5.97291L5.92177 6.25303H6.21731L5.97831 6.42522L6.07083 6.70534L5.83183 6.53315L5.59283 6.70534L5.68534 6.42265L5.44634 6.25046H5.73931L5.83183 5.97291ZM7.49712 5.97291L7.58964 6.25303H7.88261L7.64618 6.42522L7.73612 6.70534L7.49712 6.53315L7.26069 6.70534L7.35064 6.42265L7.11421 6.25046H7.40718L7.49712 5.97291ZM9.16499 5.97291L9.25494 6.25303H9.55047L9.31147 6.42522L9.40399 6.70534L9.16499 6.53315L8.92599 6.70534L9.0185 6.42265L8.7795 6.25046H9.07504L9.16499 5.97291Z" fill="white"/>
</svg>
