<svg width="25" height="19" viewBox="0 0 25 19" fill="none" xmlns="http://www.w3.org/2000/svg">
<path d="M0 0H25V6.25H0V0Z" fill="#FF9933"/>
<path d="M0 6.25H25V12.5H0V6.25Z" fill="white"/>
<path d="M0 12.5H25V18.75H0V12.5Z" fill="#128807"/>
<path d="M12.5 11.875C13.8807 11.875 15 10.7557 15 9.375C15 7.99429 13.8807 6.875 12.5 6.875C11.1193 6.875 10 7.99429 10 9.375C10 10.7557 11.1193 11.875 12.5 11.875Z" fill="#000088"/>
<path d="M12.5 11.5615C13.7081 11.5615 14.6875 10.5821 14.6875 9.37402C14.6875 8.1659 13.7081 7.18652 12.5 7.18652C11.2919 7.18652 10.3125 8.1659 10.3125 9.37402C10.3125 10.5821 11.2919 11.5615 12.5 11.5615Z" fill="white"/>
<path d="M12.5 9.81152C12.7416 9.81152 12.9375 9.61565 12.9375 9.37402C12.9375 9.1324 12.7416 8.93652 12.5 8.93652C12.2584 8.93652 12.0625 9.1324 12.0625 9.37402C12.0625 9.61565 12.2584 9.81152 12.5 9.81152Z" fill="#000088"/>
<path d="M14.6564 9.77292C14.718 9.78103 14.7745 9.73766 14.7826 9.67606C14.7907 9.61446 14.7474 9.55795 14.6858 9.54984C14.6242 9.54173 14.5676 9.58509 14.5595 9.64669C14.5514 9.70829 14.5948 9.76481 14.6564 9.77292Z" fill="#000088"/>
<path d="M12.5047 11.5625L12.5797 10.25L12.5047 9.625L12.4297 10.25L12.5047 11.5625Z" fill="#000088"/>
<path d="M14.4788 10.3173C14.5362 10.3411 14.602 10.3138 14.6258 10.2564C14.6495 10.199 14.6223 10.1332 14.5649 10.1095C14.5075 10.0857 14.4417 10.1129 14.4179 10.1703C14.3941 10.2277 14.4214 10.2936 14.4788 10.3173Z" fill="#000088"/>
<path d="M11.9343 11.4885L12.3464 10.2402L12.4357 9.61707L12.2015 10.2014L11.9343 11.4885Z" fill="#000088"/>
<path d="M14.1671 10.7968C14.2164 10.8346 14.287 10.8253 14.3249 10.776C14.3627 10.7267 14.3534 10.6561 14.3041 10.6183C14.2548 10.5805 14.1842 10.5898 14.1464 10.6391C14.1085 10.6883 14.1178 10.759 14.1671 10.7968Z" fill="#000088"/>
<path d="M11.4048 11.2701L12.126 10.171L12.3735 9.59219L11.9961 10.096L11.4048 11.2701Z" fill="#000088"/>
<path d="M13.7415 11.1803C13.7794 11.2296 13.85 11.2389 13.8993 11.2011C13.9486 11.1633 13.9579 11.0926 13.92 11.0434C13.8822 10.9941 13.8116 10.9848 13.7623 11.0226C13.713 11.0604 13.7037 11.131 13.7415 11.1803Z" fill="#000088"/>
<path d="M10.9525 10.9221L11.9337 10.047L12.3226 9.55206L11.8276 9.94097L10.9525 10.9221Z" fill="#000088"/>
<path d="M13.2375 11.4391C13.2613 11.4965 13.3271 11.5237 13.3845 11.4999C13.4419 11.4762 13.4692 11.4104 13.4454 11.353C13.4216 11.2956 13.3558 11.2683 13.2984 11.2921C13.241 11.3159 13.2137 11.3817 13.2375 11.4391Z" fill="#000088"/>
<path d="M10.6096 10.4683L11.7837 9.87697L12.2875 9.49952L11.7087 9.74707L10.6096 10.4683Z" fill="#000088"/>
<path d="M12.6744 11.5579C12.6825 11.6195 12.739 11.6629 12.8006 11.6548C12.8622 11.6466 12.9056 11.5901 12.8975 11.5285C12.8894 11.4669 12.8329 11.4236 12.7713 11.4317C12.7097 11.4398 12.6663 11.4963 12.6744 11.5579Z" fill="#000088"/>
<path d="M10.3901 9.94012L11.6773 9.67286L12.2616 9.43866L11.6385 9.52797L10.3901 9.94012Z" fill="#000088"/>
<path d="M12.1021 11.5275C12.094 11.5891 12.1373 11.6456 12.1989 11.6537C12.2605 11.6618 12.317 11.6185 12.3252 11.5569C12.3333 11.4952 12.2899 11.4387 12.2283 11.4306C12.1667 11.4225 12.1102 11.4659 12.1021 11.5275Z" fill="#000088"/>
<path d="M10.3125 9.37383L11.625 9.44883L12.25 9.37383L11.625 9.29883L10.3125 9.37383Z" fill="#000088"/>
<path d="M11.5577 11.3518C11.5339 11.4092 11.5612 11.475 11.6186 11.4988C11.676 11.5226 11.7418 11.4953 11.7655 11.4379C11.7893 11.3805 11.7621 11.3147 11.7047 11.2909C11.6473 11.2672 11.5814 11.2944 11.5577 11.3518Z" fill="#000088"/>
<path d="M10.3865 8.80731L11.6348 9.21946L12.2579 9.30877L11.6736 9.07457L10.3865 8.80731Z" fill="#000088"/>
<path d="M11.0772 11.0402C11.0394 11.0895 11.0487 11.1601 11.098 11.1979C11.1473 11.2357 11.2179 11.2264 11.2557 11.1771C11.2936 11.1279 11.2843 11.0572 11.235 11.0194C11.1857 10.9816 11.1151 10.9909 11.0772 11.0402Z" fill="#000088"/>
<path d="M10.6049 8.2798L11.704 9.001L12.2828 9.24855L11.779 8.87109L10.6049 8.2798Z" fill="#000088"/>
<path d="M10.6957 10.6165C10.6464 10.6544 10.6371 10.725 10.6749 10.7743C10.7127 10.8236 10.7833 10.8329 10.8326 10.795C10.8819 10.7572 10.8912 10.6866 10.8534 10.6373C10.8156 10.588 10.7449 10.5787 10.6957 10.6165Z" fill="#000088"/>
<path d="M10.9559 7.82852L11.8309 8.80963L12.3259 9.19854L11.937 8.70357L10.9559 7.82852Z" fill="#000088"/>
<path d="M10.435 10.1076C10.3776 10.1314 10.3503 10.1972 10.3741 10.2546C10.3979 10.312 10.4637 10.3393 10.5211 10.3155C10.5785 10.2917 10.6057 10.2259 10.5819 10.1685C10.5582 10.1111 10.4924 10.0839 10.435 10.1076Z" fill="#000088"/>
<path d="M11.4077 7.48067L11.999 8.65483L12.3765 9.15859L12.1289 8.57983L11.4077 7.48067Z" fill="#000088"/>
<path d="M10.3161 9.54845C10.2545 9.55655 10.2112 9.61307 10.2193 9.67467C10.2274 9.73627 10.2839 9.77963 10.3455 9.77152C10.4071 9.76341 10.4505 9.7069 10.4423 9.6453C10.4342 9.5837 10.3777 9.54034 10.3161 9.54845Z" fill="#000088"/>
<path d="M11.9339 7.26219L12.2012 8.54938L12.4354 9.13367L12.3461 8.51055L11.9339 7.26219Z" fill="#000088"/>
<path d="M10.3475 8.97708C10.2859 8.96897 10.2294 9.01234 10.2213 9.07394C10.2132 9.13554 10.2565 9.19205 10.3181 9.20016C10.3798 9.20827 10.4363 9.16491 10.4444 9.10331C10.4525 9.04171 10.4091 8.98519 10.3475 8.97708Z" fill="#000088"/>
<path d="M12.4992 7.1875L12.4242 8.5L12.4992 9.125L12.5742 8.5L12.4992 7.1875Z" fill="#000088"/>
<path d="M10.5251 8.43267C10.4677 8.40889 10.4019 8.43615 10.3781 8.49355C10.3544 8.55096 10.3816 8.61676 10.439 8.64054C10.4964 8.66432 10.5622 8.63706 10.586 8.57966C10.6098 8.52225 10.5825 8.45645 10.5251 8.43267Z" fill="#000088"/>
<path d="M13.0696 7.26145L12.6575 8.50982L12.5682 9.13293L12.8024 8.54864L13.0696 7.26145Z" fill="#000088"/>
<path d="M10.8368 7.95321C10.7875 7.91538 10.7169 7.92468 10.679 7.97397C10.6412 8.02326 10.6505 8.09389 10.6998 8.13171C10.7491 8.16953 10.8197 8.16024 10.8575 8.11094C10.8954 8.06165 10.8861 7.99103 10.8368 7.95321Z" fill="#000088"/>
<path d="M13.5991 7.47989L12.8779 8.57905L12.6304 9.15781L13.0078 8.65405L13.5991 7.47989Z" fill="#000088"/>
<path d="M11.2624 7.56967C11.2245 7.52038 11.1539 7.51108 11.1046 7.54891C11.0553 7.58673 11.046 7.65735 11.0839 7.70665C11.1217 7.75594 11.1923 7.76524 11.2416 7.72741C11.2909 7.68959 11.3002 7.61897 11.2624 7.56967Z" fill="#000088"/>
<path d="M14.0514 7.82792L13.0703 8.70297L12.6813 9.19794L13.1763 8.80903L14.0514 7.82792Z" fill="#000088"/>
<path d="M11.7703 7.30996C11.7465 7.25256 11.6807 7.2253 11.6233 7.24908C11.5659 7.27285 11.5386 7.33866 11.5624 7.39606C11.5862 7.45347 11.652 7.48073 11.7094 7.45695C11.7668 7.43317 11.7941 7.36736 11.7703 7.30996Z" fill="#000088"/>
<path d="M14.3982 8.28075L13.2241 8.87205L12.7203 9.2495L13.2991 9.00195L14.3982 8.28075Z" fill="#000088"/>
<path d="M12.3334 7.19015C12.3253 7.12855 12.2688 7.08519 12.2072 7.0933C12.1456 7.10141 12.1022 7.15792 12.1103 7.21952C12.1184 7.28112 12.1749 7.32448 12.2365 7.31637C12.2981 7.30826 12.3415 7.25175 12.3334 7.19015Z" fill="#000088"/>
<path d="M14.6177 8.80793L13.3305 9.07519L12.7462 9.30939L13.3693 9.22007L14.6177 8.80793Z" fill="#000088"/>
<path d="M12.9018 7.21959C12.9099 7.15799 12.8666 7.10148 12.805 7.09337C12.7434 7.08526 12.6869 7.12862 12.6787 7.19022C12.6706 7.25182 12.714 7.30833 12.7756 7.31644C12.8372 7.32455 12.8937 7.28119 12.9018 7.21959Z" fill="#000088"/>
<path d="M14.6914 9.37324L13.3789 9.29824L12.7539 9.37324L13.3789 9.44824L14.6914 9.37324Z" fill="#000088"/>
<path d="M13.4423 7.39525C13.4661 7.33785 13.4388 7.27204 13.3814 7.24826C13.324 7.22449 13.2582 7.25175 13.2345 7.30915C13.2107 7.36655 13.2379 7.43236 13.2953 7.45614C13.3527 7.47991 13.4186 7.45266 13.4423 7.39525Z" fill="#000088"/>
<path d="M14.6135 9.93976L13.3652 9.52762L12.7421 9.4383L13.3264 9.6725L14.6135 9.93976Z" fill="#000088"/>
<path d="M13.9228 7.70788C13.9606 7.65858 13.9513 7.58796 13.902 7.55014C13.8527 7.51231 13.7821 7.52161 13.7443 7.5709C13.7064 7.6202 13.7157 7.69082 13.765 7.72864C13.8143 7.76647 13.8849 7.75717 13.9228 7.70788Z" fill="#000088"/>
<path d="M14.3951 10.4683L13.296 9.74705L12.7172 9.4995L13.221 9.87695L14.3951 10.4683Z" fill="#000088"/>
<path d="M14.3043 8.13346C14.3536 8.09563 14.3629 8.02501 14.3251 7.97572C14.2873 7.92643 14.2167 7.91713 14.1674 7.95495C14.1181 7.99278 14.1088 8.0634 14.1466 8.11269C14.1844 8.16198 14.2551 8.17128 14.3043 8.13346Z" fill="#000088"/>
<path d="M14.0441 10.9215L13.1691 9.94037L12.6741 9.55146L13.063 10.0464L14.0441 10.9215Z" fill="#000088"/>
<path d="M14.565 8.64138C14.6224 8.61761 14.6497 8.5518 14.6259 8.4944C14.6021 8.43699 14.5363 8.40973 14.4789 8.43351C14.4215 8.45729 14.3943 8.5231 14.4181 8.5805C14.4418 8.6379 14.5076 8.66516 14.565 8.64138Z" fill="#000088"/>
<path d="M13.5923 11.2693L13.001 10.0952L12.6235 9.59141L12.8711 10.1702L13.5923 11.2693Z" fill="#000088"/>
<path d="M14.6839 9.20155C14.7455 9.19345 14.7888 9.13693 14.7807 9.07533C14.7726 9.01373 14.7161 8.97037 14.6545 8.97848C14.5929 8.98659 14.5495 9.0431 14.5577 9.1047C14.5658 9.1663 14.6223 9.20966 14.6839 9.20155Z" fill="#000088"/>
<path d="M13.0661 11.4878L12.7988 10.2006L12.5646 9.61633L12.6539 10.2394L13.0661 11.4878Z" fill="#000088"/>
</svg>
