<svg width="25" height="19" viewBox="0 0 25 19" fill="none" xmlns="http://www.w3.org/2000/svg">
<mask id="mask0_734_10532" style="mask-type:luminance" maskUnits="userSpaceOnUse" x="0" y="0" width="25" height="19">
<path d="M0 0H25V18.7491H0V0Z" fill="white"/>
</mask>
<g mask="url(#mask0_734_10532)">
<path fill-rule="evenodd" clip-rule="evenodd" d="M25.8683 18.7491H-0.871094V0H25.8683V18.7491Z" fill="white"/>
<path fill-rule="evenodd" clip-rule="evenodd" d="M12.7315 9.3892C12.7315 10.4818 12.2975 11.5297 11.5249 12.3023C10.7523 13.0748 9.70446 13.5089 8.61186 13.5089C7.51925 13.5089 6.4714 13.0748 5.69881 12.3023C4.92622 11.5297 4.49219 10.4818 4.49219 9.3892C4.49219 8.2966 4.92622 7.24874 5.69881 6.47616C6.4714 5.70357 7.51925 5.26953 8.61186 5.26953C9.70446 5.26953 10.7523 5.70357 11.5249 6.47616C12.2975 7.24874 12.7315 8.2966 12.7315 9.3892Z" fill="white"/>
<path fill-rule="evenodd" clip-rule="evenodd" d="M17.8996 9.63133C17.8996 12.5975 15.5194 15.007 12.5788 15.007C9.63831 15.007 7.26172 12.5975 7.26172 9.63133C7.26172 6.66517 9.64197 4.25195 12.5825 4.25195C15.523 4.25195 17.8996 6.66517 17.8996 9.63133Z" fill="#C70000"/>
<path fill-rule="evenodd" clip-rule="evenodd" d="M1.69922 4.64363L4.76059 1.10254L5.48932 1.72873L2.42428 5.27348L1.69922 4.64363ZM2.70259 5.5115L5.76396 1.97042L6.49269 2.59294L3.42765 6.14136L2.70259 5.5115Z" fill="black"/>
<path fill-rule="evenodd" clip-rule="evenodd" d="M1.69922 4.64363L4.76059 1.10254L5.48932 1.72873L2.42428 5.27348L1.69922 4.64363Z" fill="black"/>
<path fill-rule="evenodd" clip-rule="evenodd" d="M1.69922 4.64363L4.76059 1.10254L5.48932 1.72873L2.42428 5.27348L1.69922 4.64363ZM3.72793 6.40135L6.7893 2.85294L7.51803 3.48279L4.45299 7.02754L3.72793 6.40135Z" fill="black"/>
<path fill-rule="evenodd" clip-rule="evenodd" d="M1.69922 4.64363L4.76059 1.10254L5.48932 1.72873L2.42428 5.27348L1.69922 4.64363Z" fill="black"/>
<path fill-rule="evenodd" clip-rule="evenodd" d="M1.69922 4.64338L4.76059 1.10229L5.48932 1.72848L2.42428 5.27323L1.69922 4.64338ZM20.3311 1.09863L23.3705 4.66535L22.6381 5.28788L19.5987 1.72116L20.3311 1.09863ZM18.2914 2.83805L21.3308 6.40477L20.5984 7.0273L17.559 3.46058L18.2914 2.83805Z" fill="black"/>
<path fill-rule="evenodd" clip-rule="evenodd" d="M18.8003 4.89197L21.6712 2.40918L22.2096 3.03171L19.1335 5.7928L18.793 4.89197H18.8003Z" fill="white"/>
<path fill-rule="evenodd" clip-rule="evenodd" d="M22.3399 13.6369L19.3957 17.145L18.6743 16.5445L21.6185 13.0363L22.3399 13.6369ZM19.3224 1.95898L22.3618 5.5257L21.6331 6.14823L18.5974 2.57785L19.3224 1.95898ZM23.3396 14.4681L20.3917 17.9763L19.6667 17.3757L22.6145 13.8676L23.3396 14.4681ZM21.3218 12.791L18.3777 16.2991L17.6562 15.6985L20.6004 12.1904L21.3218 12.791Z" fill="black"/>
<path fill-rule="evenodd" clip-rule="evenodd" d="M7.33942 8.68245C7.50787 10.0374 7.75322 11.5461 9.83686 11.6999C10.6169 11.7475 12.1366 11.5168 12.6565 9.38554C13.345 7.34218 15.403 6.75627 16.8055 7.86218C17.6075 8.38217 17.8272 9.20611 17.8785 9.82863C17.8162 11.8061 16.6737 13.5272 15.2126 14.2962C13.5281 15.2959 11.1991 15.3179 9.1594 13.8018C8.24026 12.9413 6.95492 11.3483 7.33942 8.68245Z" fill="#3D5897"/>
<path fill-rule="evenodd" clip-rule="evenodd" d="M19.4748 13.5859L22.3531 16.0614L21.8184 16.6839L18.6289 14.0547L19.4712 13.5859H19.4748Z" fill="white"/>
<path fill-rule="evenodd" clip-rule="evenodd" d="M3.43942 13.0947L6.47882 16.6578L5.74643 17.2803L2.70703 13.7173L3.43942 13.0947Z" fill="black"/>
<path fill-rule="evenodd" clip-rule="evenodd" d="M2.91406 16.0284L5.79234 13.542L6.33064 14.1645L3.25462 16.9293L2.91406 16.0248V16.0284Z" fill="white"/>
<path fill-rule="evenodd" clip-rule="evenodd" d="M4.44786 12.2344L7.48727 15.7974L6.75488 16.42L3.71548 12.8569L4.44786 12.2344ZM2.40817 13.9738L5.44757 17.5368L4.71518 18.1594L1.67578 14.5963L2.40817 13.9738Z" fill="black"/>
</g>
</svg>
