<svg width="25" height="19" viewBox="0 0 25 19" fill="none" xmlns="http://www.w3.org/2000/svg">
<mask id="mask0_734_10552" style="mask-type:luminance" maskUnits="userSpaceOnUse" x="0" y="0" width="25" height="19">
<path d="M0 0H25V18.7518H0V0Z" fill="white"/>
</mask>
<g mask="url(#mask0_734_10552)">
<path fill-rule="evenodd" clip-rule="evenodd" d="M25.8928 18.7518H-0.894531V0H25.8928V18.7518Z" fill="#BA0000"/>
<path fill-rule="evenodd" clip-rule="evenodd" d="M12.1181 9.0757C12.1181 9.0757 10.2282 8.26264 10.4992 6.15306C10.7593 5.13855 11.2244 4.44635 12.0631 4.06911C12.4587 3.94825 12.8615 3.89331 13.2717 3.86035C13.1619 3.9629 13.074 4.06545 13.0264 4.18997C12.9385 4.42437 13.0044 4.64412 13.1252 4.86753C13.2754 5.1239 13.367 5.3876 13.3963 5.73187C13.4238 5.96647 13.3888 6.20418 13.2949 6.42092C13.201 6.63767 13.0515 6.82575 12.8615 6.96612C12.6198 7.15291 12.3341 7.21883 12.0997 7.43126C11.9166 7.60705 11.8068 7.78652 11.7701 8.09416C11.7628 8.68382 11.9203 8.76806 12.1181 9.0757Z" fill="white"/>
<path fill-rule="evenodd" clip-rule="evenodd" d="M11.7539 6.02466V6.01367V6.02466Z" fill="#BA0000"/>
<path d="M11.7539 6.02466V6.01367" stroke="black" stroke-width="0.134758"/>
<path d="M11.8759 8.8555C11.1434 8.20724 11.2056 6.57012 11.766 6.02441" stroke="#BA0000" stroke-width="0.134758"/>
<path fill-rule="evenodd" clip-rule="evenodd" d="M12.2154 5.65897L12.3362 5.8604L12.1165 5.76884L11.9444 5.95196L11.9737 5.7139L11.7539 5.62234L11.992 5.56741L12.0213 5.33301L12.1421 5.53444L12.3839 5.47951" fill="#BA0000"/>
<path fill-rule="evenodd" clip-rule="evenodd" d="M12.2812 8.93669C12.2812 8.93669 12.501 6.88937 14.5996 6.53045C15.6471 6.4865 16.4455 6.72456 17.0534 7.42043C17.2842 7.76104 17.4527 8.13095 17.6028 8.51184C17.4746 8.43859 17.3538 8.38366 17.2146 8.37633C16.9692 8.35802 16.7751 8.4862 16.5993 8.66567C16.394 8.89292 16.138 9.06859 15.8522 9.17841C15.6362 9.27391 15.3988 9.31065 15.1641 9.28493C14.9293 9.2592 14.7055 9.17192 14.5154 9.03191C14.2663 8.85245 14.1198 8.59974 13.8488 8.43859C13.6285 8.30766 13.3675 8.26327 13.1163 8.31407C12.5486 8.48254 12.5193 8.65834 12.2812 8.93669Z" fill="white"/>
<path fill-rule="evenodd" clip-rule="evenodd" d="M15.0898 7.69824H15.1008H15.0898Z" fill="#BA0000"/>
<path d="M15.0898 7.69824H15.1008" stroke="black" stroke-width="0.134758"/>
<path d="M12.4141 8.6437C12.8243 7.75006 14.4064 7.33254 15.0913 7.70611" stroke="#BA0000" stroke-width="0.134758"/>
<path fill-rule="evenodd" clip-rule="evenodd" d="M15.574 8.03203L15.4165 8.20416L15.4385 7.9661L15.2188 7.85623L15.4495 7.8196L15.4715 7.57422L15.596 7.79397L15.8304 7.75002L15.6729 7.92215L15.7938 8.1419" fill="#BA0000"/>
<path fill-rule="evenodd" clip-rule="evenodd" d="M12.418 9.08273C12.418 9.08273 14.4323 8.64324 15.4358 10.5221C15.8131 11.5 15.8387 12.3313 15.3736 13.1261C15.1245 13.4557 14.8242 13.7304 14.5129 13.9978C14.5422 13.8513 14.5532 13.7194 14.5166 13.5876C14.458 13.3458 14.2748 13.203 14.0478 13.0931C13.766 12.9699 13.5175 12.7816 13.3226 12.5438C13.1646 12.3692 13.0553 12.1562 13.0058 11.926C12.9563 11.6958 12.9683 11.4567 13.0406 11.2326C13.1285 10.9396 13.3226 10.7199 13.3885 10.4122C13.4433 10.1624 13.4028 9.90118 13.275 9.67971C12.9344 9.19627 12.7586 9.22191 12.418 9.08273Z" fill="white"/>
<path fill-rule="evenodd" clip-rule="evenodd" d="M14.4844 11.3574L14.4917 11.3647L14.4844 11.3574Z" fill="#BA0000"/>
<path d="M14.4844 11.3574L14.4917 11.3647" stroke="black" stroke-width="0.134758"/>
<path d="M12.7461 9.11914C13.7203 9.22535 14.6176 10.5915 14.4821 11.3642" stroke="#BA0000" stroke-width="0.134758"/>
<path fill-rule="evenodd" clip-rule="evenodd" d="M14.3216 11.9248L14.1055 11.8296L14.3435 11.7747L14.3728 11.5293L14.4864 11.7381L14.7244 11.6831L14.5596 11.8662L14.6695 12.075L14.4571 11.9798L14.2923 12.1666" fill="#BA0000"/>
<path fill-rule="evenodd" clip-rule="evenodd" d="M12.3735 9.29175C12.3735 9.29175 13.3587 11.101 11.8424 12.588C11.0073 13.2252 10.2163 13.4853 9.32262 13.2619C8.93806 13.1154 8.59012 12.9066 8.24219 12.6795C8.38869 12.6685 8.5242 12.6429 8.6414 12.5697C8.85382 12.4451 8.93806 12.229 8.98201 11.9837C9.02013 11.6776 9.13061 11.3851 9.3043 11.1303C9.42719 10.9292 9.60092 10.7641 9.80796 10.6516C10.015 10.5391 10.2481 10.4831 10.4836 10.4894C10.7913 10.493 11.055 10.6212 11.3699 10.5992C11.6226 10.5663 11.8204 10.4967 12.0438 10.277C12.4101 9.81914 12.3368 9.65433 12.3735 9.28809V9.29175Z" fill="white"/>
<path fill-rule="evenodd" clip-rule="evenodd" d="M10.7693 11.9141L10.7656 11.9214L10.7693 11.9141Z" fill="#BA0000"/>
<path d="M10.7693 11.9141L10.7656 11.9214" stroke="black" stroke-width="0.134758"/>
<path d="M12.4245 9.61035C12.6039 10.5772 11.5418 11.8261 10.7617 11.9067" stroke="#BA0000" stroke-width="0.134758"/>
<path fill-rule="evenodd" clip-rule="evenodd" d="M10.1795 11.918L10.2124 11.6836L10.3333 11.8924L10.575 11.8557L10.4065 12.0242L10.5274 12.233L10.304 12.1268L10.1355 12.2952L10.1648 12.0608L9.94141 11.9546" fill="#BA0000"/>
<path fill-rule="evenodd" clip-rule="evenodd" d="M12.1521 9.25174C12.1521 9.25174 10.775 10.7826 8.86318 9.85238C7.98419 9.27737 7.47877 8.61447 7.39453 7.69885C7.40552 7.28499 7.48243 6.88944 7.58132 6.49023C7.64358 6.62208 7.71317 6.73928 7.81938 6.82718C8.00616 6.98467 8.24056 6.99199 8.48961 6.95171C8.78854 6.88625 9.09884 6.89378 9.39424 6.97368C9.62553 7.02237 9.83984 7.13135 10.0154 7.28958C10.191 7.44781 10.3217 7.64965 10.3941 7.87465C10.493 8.16398 10.46 8.45698 10.5882 8.74631C10.6981 8.97339 10.8299 9.13454 11.1119 9.27371C11.6686 9.46782 11.7968 9.3433 12.1521 9.2554V9.25174Z" fill="white"/>
<path fill-rule="evenodd" clip-rule="evenodd" d="M9.14404 8.61401L9.13672 8.61035L9.14404 8.61401Z" fill="#BA0000"/>
<path d="M9.14404 8.61401L9.13672 8.61035" stroke="black" stroke-width="0.134758"/>
<path d="M11.866 9.40926C11.0163 9.89637 9.48538 9.31037 9.14844 8.60352" stroke="#BA0000" stroke-width="0.134758"/>
<path fill-rule="evenodd" clip-rule="evenodd" d="M8.94779 8.05691L9.17853 8.00929L9.02104 8.19242L9.13458 8.4085L8.92215 8.30595L8.76467 8.48908L8.7903 8.24003L8.57422 8.13748L8.80495 8.08987L8.83059 7.84082" fill="#BA0000"/>
</g>
</svg>
