<svg width="25" height="18" viewBox="0 0 25 18" fill="none" xmlns="http://www.w3.org/2000/svg">
<path d="M6.25 0H18.7517V17.6674H6.25V0Z" fill="white"/>
<path d="M0 0H6.24914V17.6674H0V0ZM18.7509 0H25V17.6674H18.7543L18.7509 0ZM8.12284 8.53692L7.63285 8.70255L9.89303 10.6867C10.0656 11.1939 9.83437 11.3423 9.68599 11.6115L12.136 11.3009L12.0773 13.7681L12.588 13.7543L12.4741 11.3043L14.931 11.5977C14.7792 11.2767 14.6446 11.1077 14.7826 10.597L17.0393 8.71636L16.646 8.57143C16.3216 8.32298 16.784 7.37405 16.853 6.77364C16.853 6.77364 15.5383 7.22567 15.452 6.98758L15.1139 6.34231L13.9165 7.66046C13.7854 7.69151 13.7302 7.63975 13.6991 7.52933L14.2512 4.77571L13.3747 5.26915C13.3023 5.30366 13.2298 5.27605 13.1815 5.18979L12.3361 3.49896L11.4665 5.25535C11.401 5.31746 11.3354 5.32436 11.2802 5.28295L10.4451 4.81366L10.9489 7.54313C10.9075 7.65355 10.8109 7.68116 10.7005 7.6225L9.55141 6.3216C9.40304 6.56315 9.30297 6.95307 9.10283 7.04279C8.90614 7.1256 8.24017 6.87716 7.79503 6.78054C7.94686 7.32919 8.42305 8.24017 8.12284 8.54037V8.53692Z" fill="#D52B1E"/>
</svg>
