<svg width="25" height="19" viewBox="0 0 25 19" fill="none" xmlns="http://www.w3.org/2000/svg">
<path d="M0 0H25V18.75H0V0Z" fill="#032EA1"/>
<path d="M0 4.6875H25V14.0625H0V4.6875Z" fill="#E00025"/>
<path d="M9.85938 8.83594H15.1937V10.8891H9.85938V8.83594Z" fill="white" stroke="black" stroke-width="0.0552802" stroke-linejoin="bevel"/>
<path d="M14.9219 9.96562H15.0859V10.7391H14.9219V9.96562ZM9.85938 9.58594H15.1937V9.82031H9.85938V9.58594ZM9.85938 9.25781H15.1937V9.47344H9.85938V9.25781Z" fill="white" stroke="black" stroke-width="0.0552802" stroke-linejoin="bevel"/>
<path d="M9.85938 8.93945H15.1937V9.14102H9.85938V8.93945Z" fill="white" stroke="black" stroke-width="0.0497522" stroke-linejoin="bevel"/>
<path d="M11.2656 9.96582H11.4344V10.7393H11.2656V9.96582ZM13.5625 9.96582H13.7313V10.7393H13.5625V9.96582ZM9.90625 9.96582H10.0703V10.7393H9.90625V9.96582ZM10.2344 9.96582H10.3984V10.7393H10.2344V9.96582ZM10.5859 9.96582H10.75V10.7393H10.5859V9.96582ZM10.9375 9.96582H11.1016V10.7393H10.9375V9.96582ZM13.8813 9.96582H14.05V10.7393H13.8813V9.96582ZM14.2328 9.96582H14.4016V10.7393H14.2328V9.96582ZM14.5844 9.96582H14.7531V10.7393H14.5844V9.96582Z" fill="white" stroke="black" stroke-width="0.0552802" stroke-linejoin="bevel"/>
<path d="M7.77344 10.9926C7.87145 10.9392 7.94527 10.8503 7.97969 10.7441H17.0313C17.0657 10.8503 17.1395 10.9392 17.2375 10.9926H7.77344Z" fill="white" stroke="black" stroke-width="0.0552802"/>
<path d="M12.3906 5.70957C12.3906 5.70957 12.3859 5.51738 12.4984 5.5127C12.6063 5.5127 12.6016 5.70957 12.6016 5.70957H12.3906ZM11.8047 8.26426V8.00645C11.8047 7.8752 11.6734 7.86582 11.6734 7.77207C11.6734 7.77207 11.6547 7.63145 11.6922 7.56582C11.7438 7.75332 11.8328 7.72051 11.8328 7.64082C11.8328 7.5752 11.7859 7.50957 11.6781 7.34551C11.6406 7.29395 11.6641 7.12988 11.7109 7.06895C11.7297 7.20957 11.7531 7.27988 11.8141 7.27988C11.8516 7.27988 11.8797 7.25645 11.8797 7.18613C11.8797 7.09238 11.8188 7.04551 11.7859 6.96113C11.7698 6.91914 11.766 6.87339 11.7752 6.82934C11.7843 6.78528 11.806 6.74479 11.8375 6.7127C11.8609 6.85332 11.8562 6.90957 11.9172 6.90957C12.0437 6.86739 11.9172 6.68457 11.8891 6.6377C11.8609 6.58613 11.9359 6.47832 11.9359 6.47832C11.9734 6.60488 11.9828 6.61426 12.0297 6.6002C12.0859 6.58613 12.0766 6.50645 12.0109 6.44082C11.9687 6.39395 11.9734 6.33301 12.0203 6.28613C12.0672 6.3752 12.1234 6.37051 12.1281 6.31426L12.0906 6.10801H12.9063L12.8641 6.30957C12.8547 6.36582 12.9297 6.37988 12.9766 6.28613C13.0234 6.33301 13.0281 6.39864 12.9859 6.44082C12.9203 6.50645 12.9109 6.58613 12.9672 6.6002C13.0141 6.61426 13.0234 6.6002 13.0609 6.47832C13.0609 6.47832 13.1313 6.54863 13.1078 6.6377C13.0797 6.68457 12.9531 6.87207 13.0797 6.90957C13.1406 6.90957 13.1359 6.85332 13.1594 6.7127C13.1901 6.74529 13.2109 6.78602 13.2192 6.83005C13.2275 6.87408 13.223 6.91957 13.2062 6.96113C13.1781 7.04551 13.1125 7.09238 13.1125 7.18613C13.1125 7.25645 13.1453 7.27988 13.1828 7.27988C13.2437 7.27988 13.2672 7.21426 13.2859 7.06895C13.3328 7.12988 13.3563 7.29395 13.3188 7.3502C13.2109 7.50957 13.1594 7.5752 13.1594 7.64082C13.1594 7.72051 13.2531 7.75332 13.3 7.56582C13.3422 7.63145 13.3234 7.77207 13.3234 7.77207C13.3234 7.86582 13.1969 7.8752 13.1922 8.00645V8.26426H11.8047ZM12.1422 6.10801L12.1234 5.9627H12.8687L12.85 6.10801H12.1422ZM12.1891 5.95801L12.1797 5.84082H12.8125L12.7984 5.95801H12.1891ZM12.2969 5.83613L12.2828 5.71426H12.7047L12.7 5.83613H12.2969ZM13.8438 10.9924C13.75 10.9596 13.6094 10.8564 13.6094 10.758V9.61895L13.7313 9.45957H11.2656L11.3828 9.61895V10.758C11.3828 10.8564 11.2891 10.9596 11.1953 10.9924H13.8438Z" fill="white" stroke="black" stroke-width="0.0552802"/>
<path d="M11.6953 9.96582H11.8641V10.7393H11.6953V9.96582ZM13.1203 9.96582H13.2891V10.7393H13.1203V9.96582Z" fill="white" stroke="black" stroke-width="0.0552802" stroke-linejoin="bevel"/>
<path d="M11.2156 8.16602V9.45976H13.7469V8.16602C13.7176 8.1767 13.6913 8.19416 13.6701 8.21698C13.649 8.23979 13.6335 8.26731 13.625 8.29727V8.85039H11.3422V8.29727C11.3422 8.29727 11.3141 8.20352 11.2109 8.16602H11.2156Z" fill="white" stroke="black" stroke-width="0.0552802"/>
<path d="M13.4031 10.992C13.3188 10.9592 13.1406 10.8561 13.1406 10.7576V9.48262C13.1594 9.4123 13.2531 9.37012 13.3141 9.32324H11.6406C11.7203 9.37012 11.8094 9.40293 11.8422 9.48262V10.7576C11.8422 10.8561 11.7016 10.9592 11.6172 10.992H13.4031Z" fill="white" stroke="black" stroke-width="0.0552802"/>
<path d="M13.6266 9.33789V8.41914H13.3969V8.33008H11.5781V8.42383H11.3438V9.33789H13.6266ZM13.0453 10.9926C12.9609 10.9598 12.8438 10.8566 12.8438 10.7582V9.6707L12.9094 9.57227H12.0797L12.15 9.66602V10.7582C12.15 10.8566 12.0281 10.9598 11.9484 10.9926H13.0453Z" fill="white" stroke="black" stroke-width="0.0552802"/>
<path d="M12.2812 9.57227H12.7031V10.9926H12.2812V9.57227Z" fill="white" stroke="black" stroke-width="0.0552802"/>
<path d="M12.9234 9.2582C12.9234 9.16445 13.1953 9.15977 13.3359 9.08008H11.6484C11.7891 9.15977 12.0562 9.16445 12.0562 9.2582L12.1125 9.44102L12.8156 9.46914L12.9234 9.2582Z" fill="white" stroke="black" stroke-width="0.0552802" stroke-linejoin="bevel"/>
<path d="M13.2508 8.26426C13.2508 8.03457 13.2602 7.9502 13.3305 7.9502V8.67207C13.157 8.7377 13.0352 8.95332 13.0352 8.95332H11.9477C11.9477 8.95332 11.8258 8.7377 11.6523 8.67207V7.94551C11.7367 7.94551 11.7367 8.03926 11.7367 8.25957L13.2508 8.26426ZM13.3305 8.17051C13.3305 7.90801 13.5602 7.87988 13.5602 7.87988V8.11426C13.4711 8.10957 13.4289 8.18926 13.4289 8.30176C13.4289 8.41895 13.4992 8.41895 13.4992 8.41895V9.08457H13.3305V8.17051Z" fill="white" stroke="black" stroke-width="0.0552802"/>
<path d="M11.6516 8.17051C11.6516 7.90801 11.4219 7.87988 11.4219 7.87988V8.11426C11.5109 8.10957 11.5531 8.18926 11.5531 8.30176C11.5531 8.41895 11.4828 8.41895 11.4828 8.41895V9.08457H11.6516V8.17051Z" fill="white" stroke="black" stroke-width="0.0552802"/>
<path d="M12.0961 6.35645H12.9023M12.0023 6.60957H12.9867M11.9086 6.91426H13.0758M11.8102 7.28457H13.193M11.7773 7.70645H13.2023" stroke="black" stroke-width="0.0442241"/>
<path d="M11.3477 9.09375H13.6258M12.0695 9.09375H12.9133V9.40312H12.0695V9.09375Z" stroke="black" stroke-width="0.0552802"/>
<path d="M11.9688 8.40078C12.1094 8.56953 12.0906 8.85547 12.0906 9.02422H12.9062C12.9062 8.85547 12.8875 8.56953 13.0281 8.40078H11.9688ZM12.4234 6.47891L12.3109 6.41797V6.25391C12.3578 6.26797 12.4047 6.27266 12.4141 6.34766C12.4281 6.23984 12.4609 6.24922 12.5031 6.20703C12.55 6.24922 12.5734 6.23984 12.5922 6.34766C12.5922 6.27266 12.6484 6.26797 12.6906 6.25391V6.41797L12.5828 6.47422L12.4234 6.47891Z" fill="white" stroke="black" stroke-width="0.0552802"/>
<path d="M12.4141 6.74531L12.2266 6.61406V6.46875C12.2969 6.48281 12.3672 6.49219 12.3766 6.57188C12.3953 6.45469 12.4375 6.39844 12.5031 6.35156C12.5641 6.39844 12.6063 6.45469 12.6297 6.57188C12.6344 6.49219 12.7094 6.48281 12.7703 6.46875V6.61875L12.5875 6.74531H12.4141Z" fill="white" stroke="black" stroke-width="0.0552802"/>
<path d="M12.3969 7.1623L12.1859 6.9748V6.75449C12.2609 6.77324 12.3453 6.78262 12.3547 6.8998C12.3781 6.73574 12.425 6.64668 12.4953 6.58105C12.5703 6.64668 12.6172 6.73574 12.6453 6.8998C12.6547 6.78262 12.7391 6.77324 12.8141 6.75449V6.9748L12.5984 7.1623H12.3969ZM12.7906 7.41074L12.6031 7.67793H12.3828L12.1906 7.41074H12.7906ZM12.0781 7.85605C12.1719 7.90761 12.2094 8.01543 12.2188 8.2123H12.7625C12.7719 8.01543 12.8094 7.90761 12.9031 7.85605H12.0781Z" fill="white" stroke="black" stroke-width="0.0552802"/>
<path d="M12.9141 7.40664V7.14414C12.8737 7.15274 12.8362 7.17144 12.805 7.1985C12.7739 7.22555 12.7501 7.26008 12.7359 7.29883C12.7359 7.20508 12.6188 7.00352 12.4922 6.90039C12.3656 7.01289 12.2438 7.20039 12.2484 7.29414C12.225 7.22383 12.1641 7.16758 12.0703 7.14414V7.41133L12.9141 7.40664Z" fill="white" stroke="black" stroke-width="0.0552802" stroke-linejoin="bevel"/>
<path d="M12.95 7.85684V7.59434C12.8516 7.62246 12.7859 7.67402 12.7578 7.74902C12.7578 7.65527 12.6313 7.45371 12.4906 7.35059C12.35 7.46777 12.2188 7.65059 12.2234 7.74902C12.2 7.67871 12.1297 7.62246 12.0312 7.59434V7.86152L12.95 7.85684Z" fill="white" stroke="black" stroke-width="0.0552802" stroke-linejoin="bevel"/>
<path d="M13.0625 8.40527V8.0959C12.9649 8.12639 12.8806 8.18921 12.8234 8.27402C12.8234 8.10996 12.6359 7.85215 12.4906 7.77246C12.3406 7.85684 12.1578 8.11934 12.1578 8.27402C12.0992 8.18862 12.0132 8.12578 11.9141 8.0959V8.40527H13.0625Z" fill="white" stroke="black" stroke-width="0.0552802" stroke-linejoin="bevel"/>
<path d="M12.9969 9.09434V8.77559C12.8844 8.81777 12.8563 8.9209 12.8188 8.9959C12.8328 8.67246 12.6406 8.33027 12.4906 8.24121C12.3406 8.33027 12.1438 8.68184 12.1625 8.99121C12.125 8.92559 12.0922 8.81777 11.9844 8.77559V9.08965L12.9969 9.09434Z" fill="white" stroke="black" stroke-width="0.0552802" stroke-linejoin="bevel"/>
<path d="M12.925 9.57246V9.25371C12.8078 9.28184 12.8031 9.32403 12.7656 9.39434C12.7797 9.20215 12.6437 8.98184 12.4937 8.89746C12.3437 8.98184 12.2125 9.20215 12.2219 9.39434C12.1844 9.32403 12.1797 9.28184 12.0625 9.25371V9.57246H12.925Z" fill="white" stroke="black" stroke-width="0.0552802"/>
<path d="M7.98125 10.7445V9.78828C7.94844 9.6664 7.84063 9.55391 7.76562 9.53516V8.69141L7.93906 8.78516L8.14063 9.67109V10.7492L7.98125 10.7445Z" fill="white" stroke="black" stroke-width="0.0552802"/>
<path d="M7.98125 10.7488V9.78789C7.94844 9.66601 7.84063 9.55352 7.76562 9.53477V8.63477C7.88281 8.63477 7.93906 8.78477 7.93906 8.78477L8.14063 9.6707V10.7441L7.98125 10.7488Z" fill="white" stroke="black" stroke-width="0.0552802"/>
<path d="M7.85547 10.993C7.93516 10.9602 8.05234 10.857 8.05234 10.7586V9.55859L7.99609 9.46484H10.0445L9.96484 9.55859V10.7586C9.96828 10.8083 9.98485 10.8561 10.0128 10.8973C10.0409 10.9385 10.0793 10.9715 10.1242 10.993H7.85547Z" fill="white" stroke="black" stroke-width="0.0552802"/>
<path d="M9.70547 10.9928C9.62578 10.96 9.50859 10.8568 9.50859 10.7584V9.61934L9.67734 9.45996H8.28984L8.45859 9.61934V10.7584C8.45859 10.8568 8.34141 10.96 8.26172 10.9928H9.70547Z" fill="white" stroke="black" stroke-width="0.0552802"/>
<path d="M9.5125 10.9926C9.43281 10.9598 9.31094 10.8566 9.31094 10.7582V9.72695L9.42344 9.57227H8.54219L8.65469 9.72695V10.7582C8.65469 10.8566 8.5375 10.9598 8.45312 10.9926H9.5125Z" fill="white" stroke="black" stroke-width="0.0552802"/>
<path d="M8.77812 9.57227H9.19531V10.9973H8.77344L8.77812 9.57227Z" fill="white" stroke="black" stroke-width="0.0552802"/>
<path d="M8.2 9.96582H8.36875V10.7393H8.2V9.96582ZM9.64375 9.96582H9.80781V10.7393H9.63906L9.64375 9.96582ZM8.05469 8.6627H8.26094V9.45957H8.05469V8.6627ZM8.05469 8.5127H8.25625V8.6627H8.05469V8.5127ZM9.72344 8.83613H10.0094V9.44551H9.72344V8.83613Z" fill="white"/>
<path d="M8.05469 8.6627H8.26094V9.45957H8.05469V8.6627ZM8.05469 8.6627H8.25625V8.5127H8.05469V8.6627ZM8.2 9.96582H8.36875V10.7393H8.2V9.96582ZM9.64375 9.96582H9.80781V10.7393H9.63906L9.64375 9.96582ZM9.72344 8.83613H10.0094V9.44551H9.72344V8.83613Z" stroke="black" stroke-width="0.0552802" stroke-linejoin="bevel"/>
<path d="M8.25703 9.4502V8.09082C8.31328 8.09082 8.32266 8.29239 8.45391 8.29239C8.52422 8.29239 8.51953 8.20801 8.47734 8.14238C8.44453 8.08145 8.40234 8.00176 8.45859 7.84707C8.50078 7.96426 8.60391 8.00176 8.58516 7.93145C8.55234 7.80488 8.45391 7.78145 8.52891 7.58926C8.55234 7.74864 8.65547 7.74395 8.63203 7.6502C8.60391 7.54238 8.54297 7.49551 8.61797 7.34551C8.66016 7.51895 8.71172 7.50957 8.71172 7.40176C8.71172 7.24239 8.71172 7.07363 8.90859 7.0127C8.90859 7.0127 8.92266 6.87207 8.99766 6.87207C9.06797 6.87207 9.08203 7.0127 9.08203 7.0127C9.28359 7.07363 9.27891 7.24707 9.27891 7.40176C9.27891 7.50957 9.33047 7.51895 9.37266 7.34551C9.44766 7.49551 9.38672 7.54238 9.35859 7.6502C9.33516 7.74395 9.43828 7.74864 9.46172 7.58926C9.53672 7.78145 9.43828 7.80488 9.40547 7.93145C9.38672 8.00176 9.48984 7.96426 9.53203 7.84707C9.58828 8.00176 9.54609 8.08145 9.51328 8.14238C9.47578 8.20801 9.46641 8.29239 9.53672 8.29239C9.66797 8.29239 9.67734 8.09551 9.73359 8.09551V9.4502H8.25703ZM7.93359 8.42363V9.45957H8.05078V8.42363C8.00859 8.4002 7.97109 8.4002 7.93359 8.42363Z" fill="white" stroke="black" stroke-width="0.0552802"/>
<path d="M7.94531 9.0942C8.09062 9.1692 8.23594 9.25826 8.27344 9.45983H7.94531V9.0942ZM9.97031 8.78483V9.45983H10.0641V8.78483C10.0359 8.77077 9.99375 8.76608 9.97031 8.78483Z" fill="white" stroke="black" stroke-width="0.0552802"/>
<path d="M10.0617 9.09434C9.91641 9.16465 9.77109 9.24902 9.73359 9.45527H10.0617V9.09434ZM9.09609 7.51465L9.18047 7.44434V7.35059C9.15234 7.35059 9.13359 7.36465 9.11016 7.39746C9.10106 7.36736 9.08599 7.33939 9.06586 7.31524C9.04573 7.29108 9.02094 7.27121 8.99297 7.25684C8.96459 7.27019 8.93919 7.2891 8.91825 7.31245C8.89732 7.3358 8.88128 7.36311 8.87109 7.39277C8.84766 7.35996 8.83359 7.35527 8.80078 7.3459V7.43965L8.88516 7.51465H9.09609Z" fill="white" stroke="black" stroke-width="0.0552802"/>
<path d="M9.14297 7.74434L9.18047 7.65527V7.53809C9.15234 7.53809 9.13359 7.55215 9.11016 7.58496C9.10106 7.55486 9.08599 7.52689 9.06586 7.50274C9.04573 7.47858 9.02094 7.45871 8.99297 7.44434C8.96459 7.45769 8.93919 7.4766 8.91825 7.49995C8.89732 7.5233 8.88128 7.55061 8.87109 7.58027C8.84766 7.54746 8.83359 7.54277 8.80078 7.53809V7.65527L8.83828 7.74434H9.14297Z" fill="white" stroke="black" stroke-width="0.0552802"/>
<path d="M9.15234 8.05332L9.27422 7.89863V7.74863C9.22734 7.74863 9.20391 7.77207 9.17109 7.82364C9.13828 7.71582 9.07734 7.69707 8.99297 7.64551C8.90391 7.69238 8.84297 7.71582 8.81484 7.81895C8.77734 7.76738 8.75391 7.75332 8.70703 7.74863V7.89863L8.83359 8.05332H9.15234Z" fill="white" stroke="black" stroke-width="0.0552802"/>
<path d="M9.18437 8.35781C9.18437 8.35781 9.33438 8.23125 9.33906 8.16094V7.99687C9.28281 8.00156 9.23125 8.01562 9.18906 8.08594C9.15156 7.95 9.09531 7.9125 8.99219 7.85156C8.88438 7.9125 8.82813 7.95 8.79531 8.08594C8.74844 8.01562 8.70156 8.00156 8.64062 7.99219V8.16094C8.67999 8.23529 8.73239 8.30197 8.79531 8.35781H9.18437Z" fill="white" stroke="black" stroke-width="0.0552802"/>
<path d="M9.24453 8.92051C9.24453 8.92051 9.45078 8.7002 9.45547 8.61113V8.35801C9.38047 8.36738 9.30547 8.41895 9.24922 8.52676C9.20234 8.31582 9.12734 8.17051 8.99141 8.06738C8.85078 8.17051 8.77578 8.31582 8.72891 8.52676C8.67266 8.41895 8.60234 8.36738 8.52734 8.35801V8.61113C8.54141 8.7002 8.73359 8.92051 8.73359 8.92051H9.24453Z" fill="white" stroke="black" stroke-width="0.0552802"/>
<path d="M9.24453 9.2541C9.24453 9.2541 9.41797 9.08066 9.45547 9.00566V8.75254C9.38047 8.76191 9.30547 8.81348 9.24922 8.9166C9.23668 8.83131 9.20746 8.74932 9.16322 8.67533C9.11898 8.60133 9.0606 8.53678 8.99141 8.48535C8.85078 8.58848 8.77578 8.70566 8.72891 8.9166C8.67266 8.81348 8.60234 8.76191 8.52734 8.75254V9.00566C8.57422 9.08066 8.73359 9.2541 8.73359 9.2541H9.24453Z" fill="white" stroke="black" stroke-width="0.0552802"/>
<path d="M9.31875 9.45078C9.27188 9.23047 9.225 9.06641 8.98594 8.90234C8.74219 9.06641 8.7 9.23047 8.64844 9.45078H9.31875Z" fill="white" stroke="black" stroke-width="0.0552802"/>
<path d="M9.44141 9.57285V9.2541C9.32891 9.30098 9.23047 9.36191 9.19297 9.43223C9.15547 9.2541 9.07578 9.1791 8.97734 9.07129C8.87891 9.1791 8.81328 9.25879 8.77109 9.43223C8.73359 9.36191 8.63516 9.29629 8.52734 9.2541V9.57285H9.44141Z" fill="white" stroke="black" stroke-width="0.0552802"/>
<path d="M17.0148 10.7445V9.78828C17.0477 9.6664 17.1555 9.55391 17.2305 9.53516V8.69141L17.057 8.78516L16.8555 9.67109V10.7492L17.0148 10.7445Z" fill="white" stroke="black" stroke-width="0.0552802"/>
<path d="M17.0148 10.7488V9.78789C17.0477 9.66601 17.1555 9.55352 17.2305 9.53477V8.63477C17.1133 8.63477 17.057 8.78477 17.057 8.78477L16.8555 9.6707V10.7441L17.0148 10.7488Z" fill="white" stroke="black" stroke-width="0.0552802"/>
<path d="M17.1406 10.993C17.0609 10.9602 16.9438 10.857 16.9438 10.7586V9.55859L17 9.46484H14.9516L15.0312 9.55859V10.7586C15.0278 10.8083 15.0112 10.8561 14.9832 10.8973C14.9552 10.9385 14.9168 10.9715 14.8719 10.993H17.1406Z" fill="white" stroke="black" stroke-width="0.0552802"/>
<path d="M15.2906 10.9928C15.3703 10.96 15.4875 10.8568 15.4875 10.7584V9.61934L15.3188 9.45996H16.7063L16.5375 9.61934V10.7584C16.5375 10.8568 16.6547 10.96 16.7344 10.9928H15.2906Z" fill="white" stroke="black" stroke-width="0.0552802"/>
<path d="M15.4836 10.9926C15.5633 10.9598 15.6852 10.8566 15.6852 10.7582V9.72695L15.5727 9.57227H16.4539L16.3414 9.72695V10.7582C16.3414 10.8566 16.4586 10.9598 16.543 10.9926H15.4836Z" fill="white" stroke="black" stroke-width="0.0552802"/>
<path d="M16.218 9.57227H15.8008V10.9973H16.2227L16.218 9.57227Z" fill="white" stroke="black" stroke-width="0.0552802"/>
<path d="M16.7961 9.96582H16.6273V10.7393H16.7961V9.96582ZM15.3523 9.96582H15.1883V10.7393H15.357L15.3523 9.96582ZM16.9414 8.6627H16.7352V9.45957H16.9414V8.6627ZM16.9414 8.5127H16.7398V8.6627H16.9414V8.5127ZM15.2727 8.83613H14.9867V9.44551H15.2727V8.83613Z" fill="white"/>
<path d="M16.9414 8.6627H16.7352V9.45957H16.9414V8.6627ZM16.9414 8.6627H16.7398V8.5127H16.9414V8.6627ZM16.7961 9.96582H16.6273V10.7393H16.7961V9.96582ZM15.3523 9.96582H15.1883V10.7393H15.357L15.3523 9.96582ZM15.2727 8.83613H14.9867V9.44551H15.2727V8.83613Z" stroke="black" stroke-width="0.0552802" stroke-linejoin="bevel"/>
<path d="M16.7391 9.4502V8.09082C16.6828 8.09082 16.6734 8.29239 16.5422 8.29239C16.4719 8.29239 16.4766 8.20801 16.5188 8.14238C16.5516 8.08145 16.5938 8.00176 16.5375 7.84707C16.4953 7.96426 16.3922 8.00176 16.4109 7.93145C16.4437 7.80488 16.5422 7.78145 16.4672 7.58926C16.4438 7.74864 16.3406 7.74395 16.3641 7.6502C16.3922 7.54238 16.4531 7.49551 16.3781 7.34551C16.3359 7.51895 16.2844 7.50957 16.2844 7.40176C16.2844 7.24239 16.2844 7.07363 16.0875 7.0127C16.0875 7.0127 16.0734 6.87207 15.9984 6.87207C15.9281 6.87207 15.9141 7.0127 15.9141 7.0127C15.7125 7.07363 15.7172 7.24707 15.7172 7.40176C15.7172 7.50957 15.6656 7.51895 15.6234 7.34551C15.5484 7.49551 15.6094 7.54238 15.6375 7.6502C15.6609 7.74395 15.5578 7.74864 15.5344 7.58926C15.4594 7.78145 15.5578 7.80488 15.5906 7.93145C15.6094 8.00176 15.5062 7.96426 15.4641 7.84707C15.4078 8.00176 15.45 8.08145 15.4828 8.14238C15.5203 8.20801 15.5297 8.29239 15.4594 8.29239C15.3281 8.29239 15.3188 8.09551 15.2625 8.09551V9.4502H16.7391ZM17.0625 8.42363V9.45957H16.9453V8.42363C16.9875 8.4002 17.025 8.4002 17.0625 8.42363Z" fill="white" stroke="black" stroke-width="0.0552802"/>
<path d="M17.0508 9.0942C16.9055 9.1692 16.7602 9.25826 16.7227 9.45983H17.0508V9.0942ZM15.0258 8.78483V9.45983H14.932V8.78483C14.9602 8.77077 15.0023 8.76608 15.0258 8.78483Z" fill="white" stroke="black" stroke-width="0.0552802"/>
<path d="M14.9344 9.09434C15.0797 9.16465 15.225 9.24902 15.2625 9.45527H14.9344V9.09434ZM15.9 7.51465L15.8156 7.44434V7.35059C15.8438 7.35059 15.8625 7.36465 15.8859 7.39746C15.895 7.36736 15.9101 7.33939 15.9302 7.31524C15.9504 7.29108 15.9752 7.27121 16.0031 7.25684C16.0315 7.27019 16.0569 7.2891 16.0778 7.31245C16.0988 7.3358 16.1148 7.36311 16.125 7.39277C16.1484 7.35996 16.1625 7.35527 16.1953 7.3459V7.43965L16.1109 7.51465H15.9Z" fill="white" stroke="black" stroke-width="0.0552802"/>
<path d="M15.8531 7.74434L15.8156 7.65527V7.53809C15.8438 7.53809 15.8625 7.55215 15.8859 7.58496C15.895 7.55486 15.9101 7.52689 15.9302 7.50274C15.9504 7.47858 15.9752 7.45871 16.0031 7.44434C16.0315 7.45769 16.0569 7.4766 16.0778 7.49995C16.0988 7.5233 16.1148 7.55061 16.125 7.58027C16.1484 7.54746 16.1625 7.54277 16.1953 7.53809V7.65527L16.1578 7.74434H15.8531Z" fill="white" stroke="black" stroke-width="0.0552802"/>
<path d="M15.8438 8.05332L15.7219 7.89863V7.74863C15.7688 7.74863 15.7922 7.77207 15.825 7.82364C15.8578 7.71582 15.9188 7.69707 16.0031 7.64551C16.0922 7.69238 16.1531 7.71582 16.1812 7.81895C16.2187 7.76738 16.2422 7.75332 16.2891 7.74863V7.89863L16.1625 8.05332H15.8438Z" fill="white" stroke="black" stroke-width="0.0552802"/>
<path d="M15.8117 8.35781C15.8117 8.35781 15.6617 8.23125 15.657 8.16094V7.99687C15.7133 8.00156 15.7648 8.01562 15.807 8.08594C15.8445 7.95 15.9008 7.9125 16.0039 7.85156C16.1117 7.9125 16.168 7.95 16.2008 8.08594C16.2477 8.01562 16.2945 8.00156 16.3555 7.99219V8.16094C16.3161 8.23529 16.2637 8.30197 16.2008 8.35781H15.8117Z" fill="white" stroke="black" stroke-width="0.0552802"/>
<path d="M15.7516 8.92051C15.7516 8.92051 15.5453 8.7002 15.5406 8.61113V8.35801C15.6156 8.36738 15.6906 8.41895 15.7469 8.52676C15.7937 8.31582 15.8687 8.17051 16.0047 8.06738C16.1453 8.17051 16.2203 8.31582 16.2672 8.52676C16.3234 8.41895 16.3937 8.36738 16.4688 8.35801V8.61113C16.4547 8.7002 16.2625 8.92051 16.2625 8.92051H15.7516Z" fill="white" stroke="black" stroke-width="0.0552802"/>
<path d="M15.7516 9.2541C15.7516 9.2541 15.5781 9.08066 15.5406 9.00566V8.75254C15.6156 8.76191 15.6906 8.81348 15.7469 8.9166C15.7594 8.83131 15.7886 8.74932 15.8329 8.67533C15.8771 8.60133 15.9355 8.53678 16.0047 8.48535C16.1453 8.58848 16.2203 8.70566 16.2672 8.9166C16.3234 8.81348 16.3937 8.76191 16.4688 8.75254V9.00566C16.4219 9.08066 16.2625 9.2541 16.2625 9.2541H15.7516Z" fill="white" stroke="black" stroke-width="0.0552802"/>
<path d="M15.6773 9.45078C15.7242 9.23047 15.7711 9.06641 16.0102 8.90234C16.2539 9.06641 16.2961 9.23047 16.3477 9.45078H15.6773Z" fill="white" stroke="black" stroke-width="0.0552802"/>
<path d="M15.5547 9.57285V9.2541C15.6672 9.30098 15.7656 9.36191 15.8031 9.43223C15.8406 9.2541 15.9203 9.1791 16.0187 9.07129C16.1172 9.1791 16.1828 9.25879 16.225 9.43223C16.2625 9.36191 16.3609 9.29629 16.4688 9.2541V9.57285H15.5547Z" fill="white" stroke="black" stroke-width="0.0552802"/>
<path d="M6.75 12.1547H18.2484V12.7406H6.75V12.1547ZM6.44531 12.7406H18.5531V13.3266H6.44531V12.7406ZM7.35469 11.2734H17.6391V11.6531H7.35469V11.2734Z" fill="white" stroke="black" stroke-width="0.0552802"/>
<path d="M7.05469 11.6537H17.9484V12.1506H7.05469V11.6537ZM7.53281 10.9834H17.4703V11.274H7.53281V10.9834Z" fill="white" stroke="black" stroke-width="0.0552802"/>
<path d="M8.61328 10.9834H9.36328V13.3271H8.61328V10.9834Z" fill="white" stroke="black" stroke-width="0.0552802"/>
<path d="M8.78203 10.9834H9.19922V13.3271H8.77734L8.78203 10.9834ZM12.1102 10.9834H12.8602V13.3271H12.1102V10.9834Z" fill="white" stroke="black" stroke-width="0.0552802"/>
<path d="M12.2812 10.9834H12.7031V13.3271H12.2812V10.9834ZM15.6328 10.9834H16.3828V13.3271H15.6328V10.9834Z" fill="white" stroke="black" stroke-width="0.0552802"/>
<path d="M15.7969 10.9834H16.2188V13.3271H15.7969V10.9834Z" fill="white" stroke="black" stroke-width="0.0552802"/>
<path d="M7.98047 10.7441H17.0273M8.76797 13.0316H9.19922M8.76797 12.7363H9.19922M8.76797 12.4457H9.19922M8.76797 12.1504H9.19922M8.76797 11.8598H9.19922M8.76797 11.5645H9.19922M8.76797 11.2738H9.19922M12.2836 13.0316H12.6867M12.2836 12.7363H12.6867M12.2836 12.4457H12.6867M12.2836 12.1504H12.6867M12.2836 11.8598H12.6867M12.2836 11.5645H12.6867M12.2836 11.2738H12.6867M15.7898 13.0316H16.2211M15.7898 12.7363H16.2211M15.7898 12.4457H16.2211M15.7898 12.1504H16.2211M15.7898 11.8598H16.2211M15.7898 11.5645H16.2211M15.7898 11.2738H16.2211" stroke="black" stroke-width="0.0552802"/>
</svg>
