<svg width="25" height="19" viewBox="0 0 25 19" fill="none" xmlns="http://www.w3.org/2000/svg">
<mask id="mask0_734_10485" style="mask-type:luminance" maskUnits="userSpaceOnUse" x="0" y="0" width="25" height="19">
<path d="M0 0H25V18.75H0V0Z" fill="white"/>
</mask>
<g mask="url(#mask0_734_10485)">
<path d="M0 0H28.125V18.75H0V0Z" fill="#FF0000"/>
<path d="M0 0H14.0625V9.375H0V0Z" fill="#000095"/>
<path d="M6.01562 4.95703L5.91797 5.33203L6.28516 5.43359L6.21484 5.15625L6.01562 4.95703ZM7.84766 5.15625L7.77734 5.43359L8.14453 5.33203L8.04688 4.95703L7.84766 5.15625ZM6.21484 4.21875L6.01562 4.41797L6.08984 4.6875L6.21484 4.21875Z" fill="white"/>
<path d="M6.08984 4.6875L6.01562 4.95703L6.21484 5.15625L6.08984 4.6875Z" fill="white"/>
<path d="M6.01562 4.41797L5.74609 4.6875L6.01562 4.95703L6.08984 4.6875L6.01562 4.41797ZM6.5625 5.50391L6.76172 5.70312L7.03125 5.62891L6.5625 5.50391ZM7.30078 5.70312L7.67578 5.80078L7.77734 5.43359L7.5 5.50391L7.30078 5.70312Z" fill="white"/>
<path d="M7.5 5.50391L7.77734 5.43359L7.84766 5.15625L7.5 5.50391ZM6.28516 5.43359L6.38672 5.80078L6.76172 5.70312L6.5625 5.50391L6.28516 5.43359ZM7.03125 5.62891L7.30078 5.70312L7.5 5.50391L7.03125 5.62891Z" fill="white"/>
<path d="M6.76172 5.70312L7.03125 5.97266L7.30078 5.70312L7.03125 5.62891L6.76172 5.70312ZM6.28516 3.94141L5.91797 4.04297L6.01562 4.41797L6.21484 4.21875L6.28516 3.94141ZM6.21484 5.15625L6.28516 5.43359L6.5625 5.50391L6.21484 5.15625ZM7.97266 4.6875L8.04688 4.41797L7.84766 4.21875L7.97266 4.6875Z" fill="white"/>
<path d="M6.5625 3.87109L6.28516 3.94141L6.21484 4.21875L6.5625 3.87109ZM7.84766 4.21875L7.77734 3.94141L7.5 3.87109L7.84766 4.21875ZM8.04687 4.95703L8.31641 4.6875L8.04687 4.41797L7.97266 4.6875L8.04687 4.95703Z" fill="white"/>
<path d="M7.84766 4.21875L7.5 3.87109L7.03125 3.74609L6.5625 3.87109L6.21484 4.21875L6.08984 4.6875L6.21484 5.15625L6.5625 5.50391L7.03125 5.62891L7.5 5.50391L7.84766 5.15625L7.97266 4.6875L7.84766 4.21875Z" fill="white"/>
<path d="M7.84766 5.15625L8.04688 4.95703L7.97266 4.6875L7.84766 5.15625ZM8.04688 4.41797L8.14453 4.04297L7.77734 3.94141L7.84766 4.21875L8.04688 4.41797ZM7.77734 3.94141L7.67578 3.57422L7.30078 3.67188L7.5 3.87109L7.77734 3.94141ZM6.76172 3.67188L6.38672 3.57422L6.28516 3.94141L6.5625 3.87109L6.76172 3.67188ZM7.03125 3.74609L6.76172 3.67188L6.5625 3.87109L7.03125 3.74609Z" fill="white"/>
<path d="M7.30078 3.67188L7.03125 3.40234L6.76172 3.67188L7.03125 3.74609L7.30078 3.67188Z" fill="white"/>
<path d="M7.5 3.87109L7.30078 3.67188L7.03125 3.74609L7.5 3.87109ZM6.76172 5.70312L6.38672 5.80078L6.5625 6.44922L7.03125 5.97266L6.76172 5.70312ZM6.5625 6.44922L7.03125 8.20312L7.5 6.44922L7.03125 5.97266L6.5625 6.44922ZM6.28516 5.43359L5.91797 5.33203L5.74609 5.97266L6.38672 5.80078L6.28516 5.43359Z" fill="white"/>
<path d="M5.74609 5.97266L5.27734 7.73438L6.5625 6.44922L6.38672 5.80078L5.74609 5.97266ZM5.27734 5.15625L3.98438 6.44922L5.74609 5.97266L5.91797 5.33203L5.27734 5.15625Z" fill="white"/>
<path d="M6.01562 4.95703L5.74609 4.6875L5.27734 5.15625L5.91797 5.33203L6.01562 4.95703ZM6.01562 4.41797L5.91797 4.04297L5.27734 4.21875L5.74609 4.6875L6.01562 4.41797Z" fill="white"/>
<path d="M5.27734 4.21875L3.51562 4.6875L5.27734 5.15625L5.74609 4.6875L5.27734 4.21875ZM8.79297 5.15625L8.14453 5.33203L8.31641 5.97266L10.0781 6.44922L8.79297 5.15625Z" fill="white"/>
<path d="M7.77734 5.43359L7.67578 5.80078L8.31641 5.97266L8.14453 5.33203L7.77734 5.43359ZM7.30078 5.70312L7.03125 5.97266L7.5 6.44922L7.67578 5.80078L7.30078 5.70312ZM8.04688 4.95703L8.14453 5.33203L8.79297 5.15625L8.31641 4.6875L8.04688 4.95703Z" fill="white"/>
<path d="M7.5 6.44922L8.79297 7.73438L8.31641 5.97266L7.67578 5.80078L7.5 6.44922ZM7.77734 3.94141L8.14453 4.04297L8.31641 3.40234L7.67578 3.57422L7.77734 3.94141Z" fill="white"/>
<path d="M8.79297 4.21875L10.0781 2.93359L8.31641 3.40234L8.14453 4.04297L8.79297 4.21875ZM8.31641 3.40234L8.79297 1.64062L7.5 2.93359L7.67578 3.57422L8.31641 3.40234ZM8.79297 5.15625L10.5469 4.6875L8.79297 4.21875L8.31641 4.6875L8.79297 5.15625Z" fill="white"/>
<path d="M8.04687 4.41797L8.31641 4.6875L8.79297 4.21875L8.14453 4.04297L8.04687 4.41797ZM6.5625 2.93359L5.27734 1.64062L5.74609 3.40234L6.38672 3.57422L6.5625 2.93359Z" fill="white"/>
<path d="M6.28516 3.94141L6.38672 3.57422L5.74609 3.40234L5.91797 4.04297L6.28516 3.94141Z" fill="white"/>
<path d="M5.74609 3.40234L3.98438 2.93359L5.27734 4.21875L5.91797 4.04297L5.74609 3.40234ZM7.30078 3.67188L7.67578 3.57422L7.5 2.93359L7.03125 3.40234L7.30078 3.67188Z" fill="white"/>
<path d="M7.5 2.93359L7.03125 1.17188L6.5625 2.93359L7.03125 3.40234L7.5 2.93359Z" fill="white"/>
<path d="M6.76172 3.67188L7.03125 3.40234L6.5625 2.93359L6.38672 3.57422L6.76172 3.67188Z" fill="white"/>
<path d="M7.03125 6.68359C8.13366 6.68359 9.02734 5.78991 9.02734 4.6875C9.02734 3.58509 8.13366 2.69141 7.03125 2.69141C5.92884 2.69141 5.03516 3.58509 5.03516 4.6875C5.03516 5.78991 5.92884 6.68359 7.03125 6.68359Z" fill="#000095"/>
<path d="M7.03125 6.44922C8.00422 6.44922 8.79297 5.66047 8.79297 4.6875C8.79297 3.71453 8.00422 2.92578 7.03125 2.92578C6.05828 2.92578 5.26953 3.71453 5.26953 4.6875C5.26953 5.66047 6.05828 6.44922 7.03125 6.44922Z" fill="white"/>
</g>
</svg>
