<svg width="31" height="27" viewBox="0 0 31 27" fill="none" xmlns="http://www.w3.org/2000/svg">
<path d="M25.2246 3.19568C24.9855 2.6042 24.0719 1.79253 23.2694 1.45896C22.8236 1.27363 22.4458 1.24329 22.1465 1.36867C21.7427 1.53792 21.5611 1.84425 21.3858 2.14071C21.1467 2.54483 20.9208 2.92628 20.0891 3.0957C19.2072 3.27556 18.2173 2.99829 17.422 2.77567C16.846 2.61446 16.3485 2.47482 15.9797 2.52618C15.5056 2.59179 15.1828 2.86121 14.9233 3.0776C14.6789 3.28158 14.5179 3.40751 14.3221 3.40751C14.3188 3.40751 14.3156 3.40751 14.3122 3.40733C14.0993 3.40276 13.9056 3.29346 13.7006 3.17758C13.4078 3.01217 13.076 2.82482 12.6616 2.95697C12.359 3.05348 12.1622 3.2697 11.9887 3.46035C11.756 3.71605 11.6501 3.80798 11.4586 3.75827C11.3084 3.71934 11.2172 3.44499 11.1206 3.15458C10.9744 2.71519 10.7925 2.16852 10.2456 1.94753C9.76832 1.7547 9.25971 1.78486 8.81067 1.81173C8.41823 1.83512 8.04775 1.85706 7.75996 1.73277C7.54139 1.63828 7.3503 1.47049 7.14803 1.29265C6.76145 0.953055 6.32339 0.567961 5.62699 0.700284C5.03668 0.812689 4.6699 1.45258 4.31499 2.07129C4.07828 2.48399 3.81004 2.9517 3.57685 2.99849C3.36908 3.04016 3.07757 2.91606 2.76886 2.78464C2.20528 2.54484 1.50433 2.24618 0.865099 2.80712C0.252978 3.34414 0.0939794 4.42321 0.252978 5.21191C0.364371 5.76427 0.610607 6.13036 0.94624 6.24313C1.43853 6.40835 1.82219 6.03915 2.13071 5.7427C2.41524 5.46909 2.60011 5.30825 2.76792 5.38081C2.99492 5.47878 2.73128 6.2702 2.57354 6.74302C2.38226 7.31695 2.217 7.8126 2.33774 8.13629C2.52224 8.63049 3.03617 8.61444 3.41101 8.60237C3.59294 8.5967 3.78091 8.59067 3.88463 8.63728C4.02075 8.69851 4.12244 8.92478 4.22998 9.16404C4.41081 9.5667 4.63598 10.0677 5.21732 10.1428C5.81331 10.2201 6.19734 9.80193 6.53626 9.43327C6.74988 9.20078 6.9516 8.98127 7.18646 8.88606C7.56461 8.73253 8.04243 8.83781 8.2859 9.02826C8.418 9.13153 8.47571 9.2465 8.45757 9.37005C8.43009 9.55685 8.30202 9.62429 7.99386 9.74419C7.74689 9.84033 7.43967 9.95987 7.26378 10.2593C7.12106 10.502 7.1293 10.7694 7.13645 11.0055C7.14561 11.3064 7.1425 11.4988 6.96845 11.6588C6.83654 11.7798 6.63079 11.7534 6.30577 11.7001C5.97031 11.6451 5.58994 11.5827 5.23382 11.7781C4.75068 12.043 4.46983 12.7894 4.48648 13.329C4.49802 13.6971 4.64001 13.9636 4.88643 14.0795C5.21108 14.2319 5.51248 14.072 5.77851 13.9307C6.01265 13.8064 6.23415 13.689 6.48664 13.7296C7.03868 13.8181 7.67383 14.4408 7.8067 14.8882C7.86716 15.0915 7.87119 15.285 7.87559 15.4899C7.88182 15.7756 7.88878 16.0993 8.06247 16.4553C8.19713 16.731 8.43548 16.9525 8.64598 17.1481C8.83084 17.3197 9.00562 17.482 9.05087 17.6233C9.09173 17.7507 9.08147 17.9623 9.07066 18.1864C9.05088 18.5949 9.02632 19.1032 9.26377 19.5848C9.54262 20.1505 10.3904 21.0319 11.0834 21.1249C11.3429 21.1598 11.564 21.0841 11.7223 20.9059C12.0995 20.4815 11.765 19.7888 11.4414 19.1189C11.2384 18.6986 11.0083 18.2219 11.0508 17.9735C11.1043 17.6613 11.3152 17.5473 11.6547 17.3868C11.8756 17.2824 12.1041 17.1744 12.267 16.971C12.4592 16.731 12.4911 16.453 12.5189 16.2078C12.5501 15.9349 12.5748 15.7195 12.7776 15.5428C12.954 15.3891 13.28 15.3173 13.6083 15.36C13.9086 15.399 14.1563 15.5233 14.2708 15.6922C14.3957 15.8769 14.3893 16.1586 14.3824 16.4567C14.3741 16.8149 14.3648 17.2207 14.6147 17.5186C14.7918 17.7297 15.0168 17.8372 15.2153 17.932C15.51 18.073 15.7429 18.1843 15.867 18.5919C15.9668 18.9192 15.8197 19.5277 15.6641 20.1718C15.4778 20.9428 15.2668 21.8168 15.4133 22.5155C15.6627 23.7054 16.7848 25.5141 17.8043 25.9756C18.2846 26.1931 19.0354 26.3799 19.6848 26.3799C20.034 26.3799 20.3541 26.3258 20.5871 26.1935C20.81 26.0667 20.9418 25.8755 20.9676 25.6404C21.0504 24.8869 20.2366 24.7355 19.5827 24.6141C19.3075 24.563 19.0228 24.5101 18.8349 24.4235C18.2537 24.1556 17.8036 23.3846 17.615 22.7394C17.3899 21.969 17.2545 19.7288 17.6143 19.34C17.7206 19.2252 17.9071 19.2559 18.2026 19.3153C18.5426 19.3839 18.9662 19.4691 19.2771 19.1349C19.7089 18.6709 19.368 18.2098 19.119 17.8731C19.0164 17.7343 18.9103 17.5909 18.8543 17.4567C18.6696 17.0151 18.7266 15.877 19.2328 15.5469C19.4347 15.4151 19.8015 15.3839 20.1897 15.3508C21.0264 15.2793 22.1726 15.1815 22.8426 13.9798C23.3823 13.0116 22.9935 11.7298 22.6812 10.7001C22.4485 9.93292 22.2288 9.20842 22.5122 9.01541C22.7834 8.83063 23.0524 9.06567 23.5914 9.69846C24.0159 10.1969 24.455 10.7121 24.9929 10.5433C25.71 10.3183 25.5514 9.57362 25.4238 8.97522C25.3515 8.63635 25.2769 8.28581 25.344 8.05803C25.4264 7.77857 25.8971 7.49547 26.3124 7.2458C26.8932 6.89652 27.4938 6.53515 27.4033 5.99107C27.3025 5.38537 26.6552 5.35757 26.1351 5.33507C25.8271 5.32191 25.4783 5.30674 25.3403 5.17971C25.1945 5.04537 25.2339 4.74617 25.2797 4.39962C25.3299 4.0231 25.3863 3.59539 25.2247 3.19585L25.2246 3.19568ZM26.1152 5.80916C26.6667 5.83292 26.9024 5.87422 26.9349 6.06888C26.9726 6.29552 26.4708 6.59728 26.0676 6.83985C25.5542 7.14874 25.0233 7.46805 24.8886 7.92426C24.7875 8.26714 24.8749 8.6773 24.9593 9.0739C25.1066 9.76513 25.1116 10.009 24.8509 10.091C24.6127 10.1654 24.2631 9.75436 23.954 9.39156C23.4902 8.84687 22.9129 8.16897 22.2447 8.62392C21.6732 9.01304 21.9298 9.85857 22.2266 10.8375C22.5278 11.8309 22.8693 12.9568 22.4274 13.7495C21.8803 14.7308 20.9607 14.8092 20.1493 14.8785C19.6999 14.9169 19.2752 14.9531 18.9729 15.1501C18.2062 15.65 18.1759 17.0657 18.4158 17.6393C18.4938 17.8263 18.6173 17.9933 18.7367 18.1545C19.033 18.5552 19.0652 18.6658 18.9289 18.8124C18.8056 18.9449 18.6083 18.9133 18.2968 18.8506C17.9678 18.7844 17.5583 18.7018 17.2654 19.0183C16.6696 19.6617 16.981 22.2637 17.1589 22.8721C17.3616 23.5656 17.8698 24.5009 18.6356 24.8541C18.8774 24.9658 19.1918 25.0241 19.496 25.0806C20.2252 25.216 20.5252 25.3166 20.4952 25.5889C20.4892 25.6443 20.4674 25.7161 20.3519 25.7815C19.8957 26.0407 18.7135 25.8665 18.0008 25.5437C17.198 25.1802 16.1271 23.603 15.8786 22.4185C15.7541 21.8241 15.9519 21.0053 16.1263 20.2829C16.305 19.5434 16.4592 18.9048 16.3218 18.4539C16.1368 17.8467 15.7398 17.657 15.4206 17.5044C15.2433 17.4195 15.0901 17.3463 14.9791 17.2141C14.8439 17.0531 14.8504 16.7685 14.8574 16.4675C14.8653 16.125 14.8743 15.7366 14.6645 15.4266C14.4721 15.1424 14.1094 14.9466 13.6695 14.8894C13.5839 14.8783 13.4989 14.873 13.4155 14.873C13.0399 14.873 12.6962 14.9837 12.4647 15.1853C12.123 15.4829 12.0805 15.8549 12.0462 16.1537C12.0224 16.3617 12.0019 16.5413 11.8951 16.6748C11.8007 16.7925 11.6307 16.8729 11.4506 16.9581C11.1071 17.1204 10.6796 17.3223 10.5818 17.8933C10.5137 18.291 10.7561 18.7931 11.0127 19.3246C11.2326 19.7797 11.5336 20.4028 11.3662 20.5912C11.3317 20.63 11.2758 20.6722 11.1465 20.6549C10.691 20.5936 9.93969 19.8821 9.68974 19.3754C9.50635 19.0037 9.52687 18.5814 9.54483 18.2091C9.55783 17.941 9.57011 17.6876 9.50324 17.4788C9.42024 17.219 9.20112 17.0158 8.96935 16.8007C8.78046 16.6252 8.58515 16.4439 8.48935 16.2476C8.36129 15.9852 8.35634 15.751 8.3503 15.4798C8.34535 15.2526 8.3404 15.0177 8.26199 14.7535C8.08263 14.149 7.31733 13.3823 6.5616 13.2613C6.15102 13.1955 5.82049 13.3709 5.55484 13.512C5.33333 13.6296 5.19208 13.6992 5.08857 13.6504C5.01418 13.6155 4.96654 13.4897 4.96105 13.3143C4.94749 12.8791 5.18622 12.345 5.46215 12.1939C5.67431 12.0775 5.94346 12.1215 6.22816 12.1683C6.58102 12.2261 6.98117 12.2917 7.29007 12.0078C7.63268 11.6931 7.62077 11.3039 7.61124 10.9914C7.6052 10.7945 7.60007 10.6244 7.67353 10.4993C7.76588 10.3422 7.95147 10.27 8.16638 10.1862C8.47436 10.0665 8.85744 9.91739 8.92761 9.43905C8.97103 9.14351 8.84718 8.86512 8.57895 8.65531C8.16618 8.33235 7.50499 8.2448 7.00698 8.44695C6.67317 8.58257 6.4253 8.85217 6.18544 9.11297C5.83935 9.48948 5.6054 9.71521 5.27797 9.67263C4.98172 9.63424 4.84816 9.38165 4.66313 8.97002C4.52408 8.6604 4.38026 8.34018 4.07962 8.20491C3.87534 8.11297 3.63149 8.12083 3.39532 8.12814C2.99115 8.14094 2.83817 8.119 2.78268 7.97059C2.72021 7.80335 2.89573 7.27697 3.02397 6.8924C3.28596 6.10646 3.58276 5.21581 2.956 4.94512C2.48515 4.74188 2.10533 5.10724 1.80009 5.40078C1.5075 5.68225 1.3003 5.86174 1.09694 5.7932C0.938825 5.7402 0.790055 5.47517 0.718056 5.11801C0.589258 4.47905 0.706697 3.57651 1.1781 3.16288C1.56468 2.82383 1.96611 2.95854 2.58151 3.22045C2.94335 3.37454 3.31745 3.53373 3.66978 3.463C4.11462 3.37381 4.41196 2.85528 4.72672 2.30639C5.01418 1.80521 5.33974 1.23732 5.71533 1.16587C6.1827 1.07704 6.4698 1.32909 6.8331 1.64837C7.05424 1.84266 7.28289 2.04353 7.57036 2.16784C7.96225 2.33727 8.40766 2.31059 8.83836 2.285C9.25664 2.26014 9.68884 2.23437 10.0664 2.38699C10.4098 2.52571 10.5415 2.92143 10.6689 3.30398C10.8013 3.70189 10.9382 4.11332 11.3385 4.21715C11.8265 4.34362 12.1113 4.03053 12.3401 3.77885C12.4863 3.61801 12.6246 3.46631 12.8056 3.40836C13.0114 3.34275 13.1906 3.43468 13.4657 3.59004C13.7015 3.7231 13.9687 3.87407 14.3013 3.8812C14.6896 3.88852 14.9635 3.66151 15.2277 3.4409C15.4732 3.23601 15.7053 3.04227 16.0442 2.99529C16.315 2.95801 16.7897 3.09089 17.2928 3.23162C18.1374 3.46813 19.1883 3.7626 20.1835 3.5597C21.2218 3.34823 21.5393 2.81199 21.7943 2.38115C21.949 2.11996 22.0712 1.91361 22.3299 1.8052C22.5025 1.73282 22.771 1.76499 23.0858 1.89604C23.8307 2.20585 24.6097 2.94405 24.7831 3.37251C24.898 3.65655 24.8523 4.00292 24.8082 4.33775C24.7505 4.77495 24.6909 5.22696 25.0178 5.52801C25.2844 5.77347 25.7067 5.79161 26.1152 5.80916Z" fill="black"/>
<path d="M19.1773 21.6565C19.023 21.636 18.8116 21.608 18.5687 21.7864C18.4093 21.9036 18.3122 22.0938 18.2874 22.3366C18.2462 22.7449 18.4149 23.2738 18.6804 23.567C18.932 23.8448 19.447 23.9839 19.9118 23.9839C20.1461 23.9839 20.368 23.9485 20.5367 23.8777C21.0521 23.6613 21.3047 22.8562 21.3646 22.2328C21.4154 21.7046 21.4458 20.7583 21.0801 20.3568C20.9618 20.2268 20.8088 20.1581 20.638 20.1581C20.1472 20.1581 20.0043 20.6276 19.9002 20.9703C19.8279 21.2087 19.7529 21.455 19.6025 21.5609C19.4208 21.6888 19.3241 21.676 19.1773 21.6565ZM19.8764 21.9483C20.16 21.7488 20.2636 21.4082 20.3548 21.1079C20.4634 20.751 20.5195 20.6322 20.6379 20.6322C20.6683 20.6322 20.6954 20.6397 20.7282 20.6755C20.8949 20.8586 20.9605 21.4662 20.8912 22.1874C20.8328 22.7973 20.6009 23.336 20.3521 23.4405C20.0243 23.5781 19.2597 23.4993 19.0331 23.2489C18.8767 23.076 18.7297 22.6871 18.7603 22.3841C18.7664 22.3237 18.7863 22.2154 18.8506 22.168C18.9389 22.1031 18.9902 22.1099 19.1146 22.1263C19.2951 22.1505 19.5426 22.1834 19.8764 21.9483Z" fill="black"/>
<path d="M23.4564 19.3136C23.0688 18.6437 22.4533 18.3244 22.0243 18.5715C21.8008 18.7002 21.6798 18.9541 21.6837 19.2862C21.687 19.5687 21.7824 19.8862 21.9525 20.18C22.1225 20.4737 22.3502 20.7148 22.5939 20.859C22.7575 20.9559 22.9195 21.0047 23.0697 21.0047C23.1824 21.0047 23.2888 20.9772 23.3845 20.922C23.8136 20.6749 23.8443 19.9837 23.4565 19.3136L23.4564 19.3136ZM23.147 20.5113C23.0807 20.5493 22.9647 20.5269 22.8364 20.451C22.6642 20.349 22.4922 20.1639 22.3641 19.9427C22.2361 19.7216 22.1613 19.4801 22.1589 19.2806C22.1654 19.1285 22.23 19.0265 22.3401 18.964C22.5118 18.964 22.8158 19.1548 23.0447 19.5507C23.315 20.0175 23.2857 20.4315 23.147 20.5113Z" fill="black"/>
<path d="M23.8698 15.6869C23.6679 15.5266 23.3868 15.5073 23.0785 15.6328C22.8161 15.7396 22.5551 15.9445 22.3436 16.21C21.861 16.8155 21.7892 17.5039 22.1765 17.8113C22.4158 17.9407 22.684 17.9387 22.9678 17.8654C23.2302 17.7587 23.4912 17.5536 23.7027 17.2882C24.1854 16.6829 24.2571 15.9944 23.8698 15.6869ZM23.3308 16.9932C23.1714 17.1932 22.9737 17.3511 22.7885 17.4264C22.6505 17.4825 22.5324 17.4878 22.4724 17.4403C22.3471 17.3409 22.3796 16.927 22.7157 16.5054C22.8751 16.3055 23.0728 16.1477 23.258 16.0722C23.378 16.0315 23.4832 16.0275 23.5741 16.0583C23.6994 16.1576 23.667 16.5714 23.3308 16.9932Z" fill="black"/>
<path d="M21.0342 16.5081C20.9917 16.2831 20.8647 16.0996 20.6767 15.9914C20.301 15.775 19.7988 15.9388 19.5571 16.3564C19.4433 16.5529 19.4027 16.7777 19.4428 16.9893C19.4853 17.2143 19.6123 17.3978 19.8002 17.506C19.986 17.5938 20.1958 17.6086 20.4276 17.5565C20.6313 17.4852 20.8063 17.3377 20.9198 17.1412C21.0334 16.9447 21.0741 16.7199 21.0342 16.5081ZM20.5082 16.9042C20.4512 17.0025 20.3667 17.0753 20.2702 17.1091C20.1864 17.1385 20.104 17.1336 20.0379 17.0955C19.9717 17.0573 19.9263 16.9886 19.9098 16.9016C19.8909 16.8015 19.9118 16.692 19.9686 16.5936C20.0492 16.4544 20.1883 16.3701 20.3145 16.3701C20.4407 16.3747 20.5226 16.4538 20.567 16.5962C20.586 16.6964 20.565 16.8058 20.5082 16.9042Z" fill="black"/>
<path d="M24.2318 22.2857C23.8789 22.0528 23.2591 22.0488 22.7245 22.276C21.957 22.6021 21.2405 23.8723 21.5309 24.7745C21.7286 25.3882 22.4004 25.7527 22.9621 25.7957C23.2963 25.8092 23.5799 25.6922 23.8069 25.4252C23.9903 25.0591 23.808 24.7617 23.6615 24.5228C23.5191 24.2907 23.4352 24.1379 23.5028 23.9308C23.5684 23.7296 23.721 23.6499 23.9645 23.5424C24.2095 23.4342 24.5449 23.2862 24.5449 22.8579C24.5451 22.6221 24.4337 22.4189 24.2318 22.2857ZM23.7723 23.1087C23.5253 23.2177 23.1871 23.367 23.051 23.7839C22.9121 24.2094 23.1109 24.5335 23.2562 24.7703C23.395 24.9968 23.4418 25.0937 23.382 25.2132C23.3412 25.2945 23.1911 25.3377 22.9986 25.323C22.5997 25.2925 22.1109 25.0249 21.9838 24.6298C21.7613 23.9389 22.4 22.9296 22.911 22.7125C23.1135 22.6266 23.3412 22.5827 23.5424 22.5827C23.7159 22.5827 23.8696 22.6152 23.9698 22.6814C24.04 22.7276 24.0698 22.7805 24.0698 22.8581C24.0696 22.9596 24.0251 22.997 23.7723 23.1087Z" fill="black"/>
<path d="M26.5133 26.1511C26.7788 26.5284 27.5868 26.8765 28.1626 26.8765C28.335 26.8765 28.4867 26.8453 28.5966 26.7742C28.7326 26.6863 28.8157 26.5187 28.8509 26.2615C28.937 25.6337 28.7104 24.3665 28.1456 23.7288C27.4349 22.9266 26.1266 22.8102 25.6246 22.9727C25.3585 23.0587 25.157 23.2901 25.0854 23.5919C25.0117 23.9021 25.0925 24.2195 25.2963 24.4204C25.4714 24.5929 25.6814 24.6657 25.8666 24.7298C26.0542 24.7949 26.2163 24.851 26.329 24.9991C26.4096 25.1049 26.4012 25.2072 26.3779 25.394C26.3512 25.6075 26.318 25.8734 26.5133 26.1511ZM26.0225 24.2819C25.8651 24.2274 25.7292 24.1803 25.6304 24.083C25.5452 23.9991 25.5128 23.8492 25.548 23.7014C25.5811 23.5621 25.6645 23.4583 25.7713 23.4238C25.8521 23.3976 25.9754 23.3819 26.124 23.3819C26.6037 23.3819 27.3482 23.5447 27.7894 24.0426C28.3555 24.6818 28.4964 26.1566 28.3304 26.3805C28.1219 26.4924 27.1456 26.2239 26.9025 25.8783C26.8165 25.7562 26.8259 25.6427 26.8497 25.4524C26.8763 25.2404 26.9094 24.9762 26.7077 24.7116C26.5078 24.4501 26.2498 24.3607 26.0225 24.2819Z" fill="black"/>
<path d="M30.0427 6.49301C29.9254 6.23366 29.7206 6.05271 29.4657 5.98309C28.9571 5.844 28.412 6.20845 28.2508 6.7957C28.175 7.07206 28.1939 7.35864 28.3042 7.60246C28.4214 7.86182 28.6262 8.04277 28.8811 8.11238C28.9542 8.13231 29.0282 8.14199 29.1015 8.14199C29.5386 8.14199 29.958 7.8024 30.096 7.29977C30.172 7.02341 30.1529 6.73684 30.0427 6.49301ZM29.6376 7.17456C29.5456 7.5094 29.2625 7.72491 29.0066 7.6551C28.891 7.62348 28.7954 7.53556 28.7375 7.40744C28.6726 7.26396 28.6625 7.09124 28.7092 6.92091C28.7895 6.62866 29.0154 6.42723 29.2417 6.42723C29.4357 6.43564 29.5436 6.53854 29.6094 6.68805C29.6742 6.83152 29.6843 7.00424 29.6376 7.17456Z" fill="black"/>
<path d="M29.1463 8.84696C28.8517 8.58048 28.4646 8.48087 28.0842 8.57353C27.573 8.69818 27.4973 9.15364 27.4367 9.51959C27.3938 9.77821 27.3532 10.0224 27.1903 10.1652C27.0355 10.3008 26.7148 10.406 26.4049 10.5079C25.8014 10.706 25.1173 10.9306 25.1601 11.5502C25.1761 11.7807 25.2858 11.9656 25.4776 12.0852C25.6596 12.1985 25.8935 12.2404 26.1399 12.2404C26.7801 12.2404 27.5032 11.9576 27.6111 11.9141C28.459 11.5709 29.4237 10.5177 29.5226 9.82737C29.5735 9.47242 29.4328 9.10614 29.1463 8.84696ZM29.0521 9.76012C28.9832 10.2405 28.1699 11.1761 27.4325 11.4746C26.74 11.7549 25.9921 11.8465 25.7298 11.6829C25.6676 11.6442 25.64 11.5963 25.6345 11.5177C25.6171 11.2658 26.1147 11.1024 26.5539 10.9582C26.9256 10.8361 27.2766 10.7208 27.5044 10.5212C27.7946 10.2668 27.8563 9.8954 27.9058 9.59711C27.9675 9.22498 28.0088 9.08003 28.1971 9.03418C28.4267 9.00603 28.6397 9.04715 28.827 9.19831C28.9939 9.3491 29.0802 9.56459 29.0522 9.76017L29.0521 9.76012Z" fill="black"/>
</svg>
