<svg width="51" height="51" viewBox="0 0 51 51" fill="none" xmlns="http://www.w3.org/2000/svg">
<g clip-path="url(#clip0_916_54454)">
<path d="M51 25.5C51 39.576 39.576 51 25.5 51C11.424 51 0 39.576 0 25.5C0 11.424 11.424 0 25.5 0C39.576 0 51 11.424 51 25.5Z" fill="#FF0000"/>
<path d="M48.3909 25.5001C48.3909 38.1481 38.1501 48.3889 25.5021 48.3889C12.8541 48.3889 2.61328 38.1481 2.61328 25.5001C2.61328 12.8521 12.8541 2.61133 25.5021 2.61133C38.1501 2.61133 48.3909 12.8521 48.3909 25.5001Z" fill="#FF0000"/>
<path d="M25.5034 48.5117C12.8146 48.5117 2.49219 38.1893 2.49219 25.5005C2.49219 12.8117 12.8146 2.48926 25.5034 2.48926C38.1922 2.48926 48.5146 12.8117 48.5146 25.5005C48.5146 38.1893 38.1922 48.5117 25.5034 48.5117ZM25.5034 2.73406C12.937 2.73406 2.73699 12.9341 2.73699 25.5005C2.73699 38.0669 12.937 48.2669 25.5034 48.2669C38.0698 48.2669 48.2698 38.0261 48.2698 25.5005C48.2698 12.9749 38.0698 2.73406 25.5034 2.73406Z" fill="white"/>
<path d="M15.4458 20V16.6678C15.4458 16.3683 15.3646 16.153 15.2024 16.022C15.0402 15.891 14.7906 15.8254 14.4536 15.8254C14.1291 15.8254 13.8109 15.8754 13.4989 15.9752C13.1931 16.0688 12.9279 16.1811 12.7033 16.3122V15.1515C12.8842 15.0642 13.1401 14.9768 13.4708 14.8894C13.8015 14.7958 14.1822 14.749 14.6127 14.749C14.9434 14.749 15.2398 14.7896 15.5019 14.8707C15.7702 14.9518 15.9637 15.111 16.0822 15.3481C16.3443 15.4292 16.5315 15.5883 16.6438 15.8254C16.7624 16.0563 16.8217 16.3558 16.8217 16.724V20H15.4458ZM13.9107 20.0936C13.3741 20.0936 12.9591 19.9657 12.6658 19.7098C12.3788 19.454 12.2353 19.0952 12.2353 18.6334C12.2353 18.1342 12.4131 17.7349 12.7688 17.4354C13.1307 17.1358 13.6986 16.9549 14.4723 16.8925L15.6704 16.7989V17.8098L14.6314 17.9127C14.257 17.9502 13.995 18.025 13.8452 18.1374C13.7017 18.2497 13.6299 18.3994 13.6299 18.5866C13.6299 18.7738 13.6892 18.9142 13.8078 19.0078C13.9326 19.1014 14.0917 19.1482 14.2851 19.1482C14.36 19.1482 14.4349 19.142 14.5098 19.1295C14.5846 19.1108 14.6533 19.0921 14.7157 19.0734L14.8374 19.9532C14.7188 19.9969 14.5784 20.0312 14.4162 20.0562C14.2539 20.0811 14.0854 20.0936 13.9107 20.0936ZM16.0542 15.891L15.2866 15.2451C15.505 15.1702 15.6766 15.0766 15.8014 14.9643C15.9262 14.8458 15.9918 14.7022 15.998 14.5338H17.2242C17.2242 14.7272 17.1836 14.9144 17.1025 15.0954C17.0276 15.2701 16.9028 15.4261 16.7281 15.5634C16.5596 15.7006 16.335 15.8098 16.0542 15.891ZM15.4776 14.1594V12.0346H16.7692V14.1594H15.4776ZM19.5226 20.1217C19.2044 20.1217 18.9049 20.0842 18.6241 20.0094C18.3433 19.9407 18.0812 19.8409 17.8378 19.7098L18.2122 18.6896C18.3495 18.7707 18.5149 18.8425 18.7083 18.9049C18.9017 18.9673 19.0921 18.9985 19.2793 18.9985C19.6287 18.9985 19.9064 18.8674 20.1123 18.6054C20.3182 18.337 20.4212 17.9377 20.4212 17.4073C20.4212 16.9081 20.3182 16.5274 20.1123 16.2654C19.9064 16.0033 19.585 15.8722 19.1482 15.8722C18.9423 15.8722 18.7301 15.9034 18.5117 15.9658C18.2933 16.022 18.1124 16.0938 17.9689 16.1811V15.0298C18.1623 14.9425 18.3807 14.8738 18.6241 14.8239C18.8674 14.774 19.1264 14.749 19.4009 14.749C19.975 14.749 20.443 14.8551 20.8049 15.0673C21.1669 15.2794 21.4321 15.5852 21.6005 15.9846C21.769 16.3777 21.8533 16.8519 21.8533 17.4073C21.8533 18.2934 21.6505 18.9673 21.2449 19.429C20.8393 19.8908 20.2652 20.1217 19.5226 20.1217ZM24.7143 20.0936C24.3337 20.0936 24.0123 20.0218 23.7503 19.8783C23.4944 19.7286 23.2979 19.507 23.1606 19.2138C23.0295 18.9205 22.964 18.5617 22.964 18.1374V14.8707H24.368V17.894C24.368 18.2372 24.4367 18.4868 24.5739 18.6428C24.7112 18.7988 24.9109 18.8768 25.173 18.8768C25.5037 18.8768 25.7595 18.752 25.9405 18.5024C26.1215 18.2466 26.2119 17.8534 26.2119 17.323V14.8707H27.6159V20H26.5489L26.3991 19.2138H26.3149C26.2088 19.4634 26.0247 19.6724 25.7627 19.8409C25.5068 20.0094 25.1574 20.0936 24.7143 20.0936ZM31.9354 20V16.6678C31.9354 16.3683 31.8543 16.153 31.6921 16.022C31.5298 15.891 31.2802 15.8254 30.9433 15.8254C30.6188 15.8254 30.3006 15.8754 29.9886 15.9752C29.6828 16.0688 29.4176 16.1811 29.193 16.3122V15.1515C29.3739 15.0642 29.6298 14.9768 29.9605 14.8894C30.2912 14.7958 30.675 14.749 31.1118 14.749C31.43 14.749 31.7202 14.7834 31.9822 14.852C32.2506 14.9144 32.4846 15.0236 32.6842 15.1796C32.8839 15.3294 33.0368 15.5322 33.1429 15.788C33.2552 16.0376 33.3114 16.3496 33.3114 16.724V20H31.9354ZM30.4004 20.0936C29.8638 20.0936 29.4488 19.9657 29.1555 19.7098C28.8685 19.454 28.725 19.0952 28.725 18.6334C28.725 18.1342 28.9028 17.7349 29.2585 17.4354C29.6204 17.1358 30.1882 16.9549 30.962 16.8925L32.1601 16.7989V17.8098L31.1211 17.9127C30.7467 17.9502 30.4846 18.025 30.3349 18.1374C30.1914 18.2497 30.1196 18.3994 30.1196 18.5866C30.1196 18.7738 30.1789 18.9142 30.2974 19.0078C30.4222 19.1014 30.5814 19.1482 30.7748 19.1482C30.8497 19.1482 30.9246 19.142 30.9994 19.1295C31.0743 19.1108 31.143 19.0921 31.2054 19.0734L31.327 19.9532C31.2085 19.9969 31.0681 20.0312 30.9058 20.0562C30.7436 20.0811 30.5751 20.0936 30.4004 20.0936ZM36.4622 20.0936C35.9568 20.0936 35.5543 19.9844 35.2548 19.766C34.9553 19.5414 34.74 19.2356 34.609 18.8487C34.4779 18.4556 34.4124 18.0063 34.4124 17.5009C34.4124 16.958 34.4717 16.5087 34.5902 16.153C34.715 15.7911 34.8898 15.5103 35.1144 15.3106C35.339 15.1047 35.6042 14.9612 35.91 14.8801C36.222 14.7927 36.5621 14.749 36.9302 14.749C37.4918 14.749 37.9411 14.827 38.2781 14.983C38.615 15.139 38.8584 15.3606 39.0082 15.6476C39.1642 15.9346 39.2422 16.2716 39.2422 16.6585V20H37.8382V16.7708C37.8382 16.4775 37.7664 16.256 37.6229 16.1062C37.4856 15.9502 37.2547 15.8722 36.9302 15.8722C36.7118 15.8722 36.5184 15.919 36.3499 16.0126C36.1877 16.1 36.0598 16.2591 35.9662 16.49C35.8788 16.7209 35.8351 17.0516 35.8351 17.4822C35.8351 17.7754 35.8632 18.0344 35.9194 18.259C35.9755 18.4837 36.066 18.6584 36.1908 18.7832C36.3218 18.908 36.4966 18.9704 36.715 18.9704C36.7836 18.9704 36.8491 18.9673 36.9115 18.961C36.9802 18.9486 37.0394 18.9361 37.0894 18.9236L37.2204 19.9719C37.1206 20.0156 36.9989 20.0468 36.8554 20.0655C36.7181 20.0842 36.587 20.0936 36.4622 20.0936Z" fill="white"/>
<path d="M9.66546 35.3758C9.66546 35.2411 9.68382 35.1126 9.72054 34.9902L11.8136 26.8751C11.4586 27.1444 11.0547 27.4075 10.6018 27.6646C10.1612 27.9094 9.87354 28.0318 9.7389 28.0318C9.56754 28.0318 9.3717 27.9767 9.15138 27.8665C8.9433 27.7564 8.7597 27.6278 8.60058 27.481C8.4537 27.3341 8.38026 27.2117 8.38026 27.1138C8.38026 27.077 8.38638 27.0526 8.39862 27.0403C8.52102 26.8812 8.83926 26.618 9.35334 26.2508C9.87966 25.8714 10.559 25.4063 11.3913 24.8555C12.1991 24.3169 12.6765 23.9926 12.8234 23.8824C12.9335 23.809 13.0559 23.7722 13.1906 23.7722C13.4721 23.7722 13.7353 23.8885 13.9801 24.1211C14.2371 24.3536 14.3656 24.6229 14.3656 24.9289C14.3656 24.9412 14.3717 24.9779 14.384 25.0391C14.4085 25.088 14.4207 25.1554 14.4207 25.241C14.4207 25.2655 14.4085 25.3512 14.384 25.4981C14.2004 26.514 13.8699 27.9644 13.3925 29.8494C12.9274 31.7221 12.6643 32.7931 12.6031 33.0624C12.3338 34.0906 12.1808 34.6964 12.1441 34.88C12.0461 35.3084 11.8931 35.6389 11.6851 35.8715C11.4892 36.104 11.1649 36.2203 10.712 36.2203C10.3448 36.2203 10.0755 36.1591 9.90414 36.0367C9.74502 35.9143 9.66546 35.694 9.66546 35.3758ZM19.7581 36.3856C18.9258 36.3856 18.2098 36.1836 17.61 35.7797C17.0103 35.3758 16.5574 34.8372 16.2514 34.164C15.9454 33.4786 15.7924 32.7258 15.7924 31.9057C15.7924 31.4651 15.8352 31.0367 15.9209 30.6205C16.3003 28.6009 17.0103 26.9852 18.0507 25.7735C19.0911 24.5617 20.5354 23.9558 22.3836 23.9558C23.5342 23.9558 24.4093 24.323 25.0091 25.0574C25.6089 25.7796 25.9087 26.8445 25.9087 28.2521C25.9087 29.5373 25.6884 30.8041 25.2478 32.0526C24.8071 33.2888 24.1217 34.3231 23.1915 35.1554C22.2735 35.9755 21.129 36.3856 19.7581 36.3856ZM19.7031 34.6414C20.4375 34.6414 21.0984 34.3048 21.6859 33.6316C22.2857 32.9584 22.7447 32.1077 23.0629 31.0795C23.3934 30.0514 23.5587 29.0293 23.5587 28.0134C23.5587 26.6303 22.9834 25.9387 21.8328 25.9387C21.1596 25.9387 20.5354 26.2692 19.9601 26.9302C19.3848 27.5789 18.9258 28.3867 18.5831 29.3537C18.2526 30.3084 18.0874 31.2019 18.0874 32.0342C18.0874 32.9033 18.222 33.5581 18.4913 33.9988C18.7728 34.4272 19.1767 34.6414 19.7031 34.6414ZM39.6207 24.7086C39.5717 24.7576 39.4187 24.9656 39.1617 25.3328L38.7577 25.902L32.8458 33.9988C32.8213 34.0232 32.5704 34.4027 32.0931 35.1371C31.6279 35.8715 31.1016 36.2387 30.5141 36.2387C30.2203 36.2387 29.9755 36.1652 29.7797 36.0184C29.5961 35.8715 29.5043 35.6879 29.5043 35.4676C29.5043 35.284 29.7675 34.8127 30.2938 34.0538C30.8323 33.295 31.6341 32.1934 32.6989 30.749C32.907 30.4675 33.2253 30.0391 33.6537 29.4638C34.0943 28.8763 34.437 28.4051 34.6818 28.0501C35.6977 26.618 36.579 25.4614 37.3257 24.5801C38.0723 23.6988 38.6353 23.2582 39.0148 23.2582C39.3085 23.2582 39.5472 23.3316 39.7308 23.4785C39.9144 23.6131 40.0062 23.7967 40.0062 24.0293C40.0062 24.1639 39.9756 24.2741 39.9144 24.3598C39.8655 24.4454 39.7675 24.5617 39.6207 24.7086ZM30 30.4186C28.3476 30.4186 27.5214 29.4883 27.5214 27.6278C27.5214 26.9057 27.6805 26.2447 27.9988 25.645C28.317 25.0452 28.7699 24.5678 29.3574 24.2129C29.9449 23.8579 30.6181 23.6804 31.377 23.6804C32.0747 23.6804 32.6316 23.8824 33.0478 24.2863C33.4639 24.6902 33.672 25.2655 33.672 26.0122C33.672 26.7098 33.5374 27.3953 33.2681 28.0685C33.0111 28.7417 32.6071 29.3047 32.0563 29.7576C31.5055 30.1982 30.8201 30.4186 30 30.4186ZM30.1653 28.7662C30.4713 28.7662 30.7467 28.6376 30.9915 28.3806C31.2363 28.1236 31.426 27.7992 31.5606 27.4075C31.7075 27.0158 31.7809 26.6303 31.7809 26.2508C31.7809 26.0305 31.7014 25.8469 31.5423 25.7C31.3954 25.5532 31.1873 25.4797 30.918 25.4797C30.6365 25.4797 30.3856 25.6021 30.1653 25.8469C29.9572 26.0917 29.7919 26.3977 29.6695 26.7649C29.5594 27.1199 29.5043 27.4565 29.5043 27.7747C29.5043 28.4357 29.7246 28.7662 30.1653 28.7662ZM38.2253 36.2387C36.5729 36.2387 35.7467 35.3084 35.7467 33.448C35.7467 32.7258 35.9058 32.0648 36.2241 31.4651C36.5423 30.8653 36.9952 30.388 37.5827 30.033C38.1702 29.678 38.8434 29.5006 39.6023 29.5006C40.3 29.5006 40.8569 29.7025 41.2731 30.1064C41.6892 30.5104 41.8973 31.0856 41.8973 31.8323C41.8973 32.53 41.7627 33.2154 41.4934 33.8886C41.2363 34.5618 40.8324 35.1248 40.2816 35.5777C39.7308 36.0184 39.0454 36.2387 38.2253 36.2387ZM38.3905 34.5863C38.6965 34.5863 38.9719 34.4578 39.2167 34.2007C39.4615 33.9437 39.6513 33.6193 39.7859 33.2276C39.9328 32.836 40.0062 32.4504 40.0062 32.071C40.0062 31.8506 39.9267 31.667 39.7675 31.5202C39.6207 31.3733 39.4126 31.2998 39.1433 31.2998C38.8618 31.2998 38.6109 31.4222 38.3905 31.667C38.1825 31.9118 38.0172 32.2178 37.8948 32.585C37.7847 32.94 37.7296 33.2766 37.7296 33.5948C37.7296 34.2558 37.9499 34.5863 38.3905 34.5863Z" fill="white"/>
</g>
<defs>
<clipPath id="clip0_916_54454">
<rect width="51" height="51" fill="white"/>
</clipPath>
</defs>
</svg>
