<svg width="26" height="26" viewBox="0 0 26 26" fill="none" xmlns="http://www.w3.org/2000/svg">
<path d="M11.3733 19.5016V12.0499L9.27277 14.1505L6.9733 11.851L11.8486 6.9757C12.1535 6.67048 12.567 6.49902 12.9984 6.49902C13.4297 6.49902 13.8432 6.67048 14.1481 6.9757L19.0234 11.851L16.724 14.1505L14.6234 12.0499V19.5016H11.3733Z" fill="#FF9933"/>
<path d="M21.9372 5.90265C21.1598 6.35127 20.8934 7.34546 21.3423 8.12254C21.7909 8.89992 22.7848 9.16632 23.5622 8.7174C24.3396 8.26877 24.6057 7.27488 24.157 6.49751C23.7081 5.72013 22.7142 5.45373 21.9372 5.90265Z" fill="#FF9933"/>
<path d="M17.2798 2.43975C16.8309 3.21713 17.0973 4.21099 17.8747 4.65964C18.6518 5.10854 19.6456 4.84215 20.0946 4.06479C20.5432 3.2877 20.2771 2.29384 19.4997 1.8449C18.7223 1.39628 17.7285 1.66239 17.2798 2.43975Z" fill="#FF9933"/>
<path d="M12.9991 0H14.6241V3.25032H12.9991C10.413 3.25032 7.93277 4.27763 6.10429 6.10611C4.2758 7.93459 3.2485 10.4149 3.2485 13.0009C3.2485 15.5869 4.2758 18.0672 6.10429 19.8957C7.93277 21.7242 10.4131 22.7515 12.9991 22.7515C15.5851 22.7515 18.0654 21.7242 19.8939 19.8957C21.7224 18.0672 22.7497 15.5869 22.7497 13.0009V11.3759H26V13.0009C26 16.449 24.6303 19.7557 22.1923 22.1937C19.7539 24.6318 16.4472 26.0015 12.9995 26.0015C9.55172 26.0015 6.24467 24.6318 3.80663 22.1937C1.36858 19.7554 -0.00109863 16.4486 -0.00109863 13.0009C-0.00109863 9.55318 1.36858 6.24613 3.80663 3.80808C6.24496 1.37004 9.55172 0.000362551 12.9995 0.000362551L12.9991 0Z" fill="#FF9933"/>
</svg>
