<svg width="44" height="44" viewBox="0 0 44 44" fill="none" xmlns="http://www.w3.org/2000/svg">
<path d="M15.7663 25.8867L24.1813 34.3017C24.5248 34.6431 24.9895 34.8348 25.4738 34.8348C25.9581 34.8348 26.4228 34.6431 26.7663 34.3017C26.9381 34.1312 27.0745 33.9285 27.1676 33.705C27.2607 33.4816 27.3086 33.242 27.3086 33C27.3086 32.758 27.2607 32.5183 27.1676 32.2949C27.0745 32.0715 26.9381 31.8688 26.7663 31.6983L18.333 23.3017C18.1611 23.1312 18.0247 22.9285 17.9317 22.705C17.8386 22.4816 17.7907 22.242 17.7907 22C17.7907 21.758 17.8386 21.5183 17.9317 21.2949C18.0247 21.0715 18.1611 20.8688 18.333 20.6983L26.7663 12.3017C27.1115 11.9589 27.3064 11.493 27.3082 11.0065C27.3099 10.52 27.1183 10.0527 26.7755 9.70749C26.4327 9.36227 25.9668 9.16735 25.4803 9.16563C24.9938 9.16392 24.5265 9.35553 24.1813 9.69832L15.7663 18.1133C14.7363 19.1446 14.1578 20.5425 14.1578 22C14.1578 23.4575 14.7363 24.8554 15.7663 25.8867V25.8867Z" fill="white"/>
</svg>
