<svg width="29" height="27" viewBox="0 0 29 27" fill="none" xmlns="http://www.w3.org/2000/svg">
<path d="M25.9364 3.67575H18.7886V1.02142C18.7886 0.750673 18.6809 0.490722 18.4896 0.299334C18.2979 0.107655 18.0382 0 17.7672 0H11.2326C10.6684 0 10.2112 0.457463 10.2112 1.02143V3.67576H3.06332C2.25109 3.67693 1.4724 4.00019 0.897972 4.57433C0.32381 5.14878 0.000821566 5.92745 0 6.73968V21.852C0.000875266 22.6642 0.323839 23.4429 0.898271 24.0171C1.47243 24.5915 2.25109 24.9145 3.06332 24.9153H3.66724C3.79386 25.535 4.20056 26.061 4.76829 26.3396C5.33603 26.6185 6.00093 26.6185 6.56864 26.3396C7.13638 26.061 7.54309 25.535 7.66968 24.9153H20.8401C21.1071 25.8472 22.2446 26.5491 23.2325 26.5491C23.7031 26.5488 24.1593 26.3863 24.5237 26.0885C24.8884 25.7909 25.139 25.3766 25.2333 24.9153H25.9367C26.7489 24.9145 27.5276 24.5915 28.1017 24.0171C28.6762 23.4429 28.9992 22.6642 29 21.852V6.73968C28.9991 5.92745 28.6762 5.14875 28.102 4.57433C27.5276 4.00017 26.7489 3.67688 25.9367 3.67576L25.9364 3.67575ZM12.2529 2.04195H16.7467V3.67575H12.2529V2.04195ZM9.59856 7.85916L10.7212 8.51909V12.6623H8.47675V8.51909L9.59856 7.85916ZM26.9575 21.8519C26.9566 22.4156 26.5 22.8725 25.9361 22.8734H3.06293C2.49898 22.8725 2.0424 22.4156 2.0415 21.8519V6.73959C2.04179 6.17593 2.49897 5.71876 3.06293 5.71846H4.90331L4.90302 21.8518H6.12604V5.71846H8.98516V6.79762L7.55153 7.64077V7.64048C7.36423 7.75076 7.24956 7.95207 7.24956 8.16913V13.2718C7.24956 13.6102 7.52381 13.8842 7.86194 13.8842H11.3343C11.6725 13.8842 11.9464 13.6102 11.9464 13.2718V8.17174C11.9467 7.95439 11.8318 7.75337 11.6445 7.64309L10.2108 6.79994V5.72078H22.8734V21.8519H24.0987V5.71854H25.9391C26.5031 5.71883 26.9599 6.176 26.9605 6.73967L26.9575 21.8519Z" fill="#3952A4"/>
</svg>
