<svg width="39" height="47" viewBox="0 0 39 47" fill="none" xmlns="http://www.w3.org/2000/svg">
<path d="M14.7773 0H24.3752V4.54734H14.7773V0Z" fill="#F15A22"/>
<path d="M8.21289 46.7614H30.7868V5.32538H8.21289V46.7614ZM22.2006 9.25313H27.3209V14.3795H22.2006V9.25313ZM22.2006 18.8099H27.3209V23.9362H22.2006V18.8099ZM22.2006 28.367H27.3209V33.4872H22.2006V28.367ZM22.2006 37.918H27.3209V43.0383H22.2006V37.918ZM11.8256 9.25365H16.9459V14.38H11.8256V9.25365ZM11.8256 18.8104H16.9459V23.9367H11.8256V18.8104ZM11.8256 28.3675H16.9459V33.4878H11.8256V28.3675ZM11.8256 37.9185H16.9459V43.0388H11.8256V37.9185Z" fill="#F15A22"/>
<path d="M7.43486 12.7654L0 20.2354V46.761H7.43486V12.7654Z" fill="#F15A22"/>
<path d="M31.5645 46.7614H38.9993V19.2244L31.5645 12.6779V46.7614Z" fill="#F15A22"/>
</svg>
