<svg width="32" height="33" viewBox="0 0 32 33" fill="none" xmlns="http://www.w3.org/2000/svg">
<path d="M15.9993 3.05039C8.8079 3.05039 2.95703 9.08372 2.95703 16.5003C2.95703 23.9168 8.80753 29.9501 15.9993 29.9501C23.1911 29.9501 29.0416 23.9168 29.0416 16.5003C29.0416 9.08372 23.1911 3.05039 15.9993 3.05039ZM15.9993 28.0086C14.7462 28.0086 13.727 26.9575 13.727 25.6653C13.727 24.373 14.7462 23.322 15.9993 23.322C17.2524 23.322 18.2716 24.3736 18.2716 25.6653C18.2716 26.957 17.2524 28.0086 15.9993 28.0086ZM17.6514 20.4467C17.5998 21.3474 16.8742 22.0524 15.9993 22.0524C15.1244 22.0524 14.3988 21.3474 14.3472 20.4467L13.6077 7.6091C13.5679 6.92251 13.7981 6.26862 14.2557 5.76819C14.7129 5.26803 15.3319 4.99221 15.9993 4.99221C16.6668 4.99221 17.2858 5.2678 17.7429 5.76819C18.2005 6.26834 18.4303 6.92225 18.3909 7.6091L17.6514 20.4467Z" fill="#F15A22"/>
<path d="M16.0007 24.154C15.193 24.154 14.5352 24.8324 14.5352 25.6654C14.5352 26.4983 15.1923 27.1767 16.0007 27.1767C16.8092 27.1767 17.4663 26.4991 17.4663 25.6654C17.4663 24.8316 16.8092 24.154 16.0007 24.154Z" fill="#F15A22"/>
<path d="M15.9991 5.82339C15.5564 5.82339 15.1461 6.00637 14.8429 6.33816C14.5396 6.67044 14.3867 7.10348 14.4131 7.55885L15.1526 20.3964C15.179 20.8579 15.5511 21.2194 15.9996 21.2194C16.4481 21.2194 16.8198 20.8579 16.8467 20.3964L17.5862 7.55885C17.6126 7.10351 17.4599 6.66973 17.1564 6.33816C16.8531 6.00588 16.4428 5.82339 16.0001 5.82339H15.9991Z" fill="#F15A22"/>
<path d="M16 0C7.17729 0 0 7.40221 0 16.5C0 25.5978 7.1779 33 16 33C24.8221 33 32 25.5978 32 16.5C32 7.40221 24.8221 0 16 0ZM16 30.7815C8.36357 30.7815 2.15128 24.3751 2.15128 16.5C2.15128 8.62493 8.36357 2.21851 16 2.21851C23.6364 2.21851 29.8487 8.62493 29.8487 16.5C29.8487 24.3751 23.6364 30.7815 16 30.7815Z" fill="#F15A22"/>
</svg>
