<svg width="36" height="22" viewBox="0 0 36 22" fill="none" xmlns="http://www.w3.org/2000/svg">
<path d="M18.0004 0C15.0394 0 12.6004 2.48421 12.6004 5.50004C12.6004 8.51587 15.0394 11.0001 18.0004 11.0001C20.9614 11.0001 23.4004 8.51587 23.4004 5.50004C23.4004 2.48421 20.9614 0 18.0004 0ZM7.20042 0.0257814C4.24007 0.0257814 1.80043 2.51062 1.80043 5.52582C1.80043 8.54102 4.24007 11.0259 7.20042 11.0259C8.99368 11.0259 10.5857 10.1054 11.5704 8.71624C11.094 7.73896 10.8005 6.65616 10.8005 5.50028C10.8005 4.35612 11.0855 3.28243 11.5529 2.31348C10.567 0.936902 8.98429 0.0253882 7.20068 0.0253882L7.20042 0.0257814ZM28.8004 0.0257814C27.0167 0.0257814 25.4338 0.937374 24.4481 2.31388C24.9152 3.28314 25.2006 4.35643 25.2006 5.50068C25.2006 6.65686 24.9071 7.73935 24.4306 8.71631C25.4151 10.1055 27.0071 11.0259 28.8006 11.0259C31.761 11.0259 34.2006 8.5411 34.2006 5.5259C34.2006 2.5107 31.761 0.0258594 28.8006 0.0258594L28.8004 0.0257814ZM12.9869 10.732C10.5861 12.3823 9.00016 15.1784 9.00016 18.3335V20.1668C9.00046 20.6529 9.18999 21.1191 9.52749 21.4629C9.86499 21.8069 10.323 22 10.8003 22H25.2006H25.2003C25.6779 22 26.1356 21.8069 26.4731 21.4629C26.8106 21.1191 27.0005 20.6529 27.0005 20.1668V18.3335C27.0005 15.1784 25.4145 12.3826 23.0137 10.7317C21.7129 12.0254 19.944 12.8335 18.0004 12.8335C16.0568 12.8335 14.2882 12.0254 12.987 10.7317L12.9869 10.732ZM2.5032 11.022C0.984726 12.3694 0 14.3288 0 16.5251V18.3584H0.000301338C0.000301338 18.8449 0.189841 19.3111 0.527641 19.6548C0.86514 19.9986 1.3229 20.1919 1.80019 20.1919H7.2038C7.2038 20.1919 7.20018 20.1735 7.20018 20.1662V18.3329C7.20018 16.2532 7.79201 14.3119 8.78916 12.6466C8.27629 12.7712 7.74951 12.858 7.20018 12.858C5.40299 12.858 3.77065 12.1475 2.5032 11.0211L2.5032 11.022ZM33.4968 11.022C32.2294 12.1484 30.5973 12.859 28.7998 12.859C28.2502 12.859 27.7238 12.7727 27.2108 12.6475C28.208 14.3123 28.7998 16.2538 28.7998 18.3332V20.1665C28.7998 20.1665 28.7965 20.1849 28.7962 20.1922H34.1998L34.2001 20.1925C34.6774 20.1922 35.1352 19.9992 35.4727 19.6554C35.8105 19.3117 36 18.8452 36 18.359V16.5258C36 14.3291 35.0155 12.37 33.4968 11.022Z" fill="#F15A22"/>
</svg>
