<svg width="47" height="48" viewBox="0 0 47 48" fill="none" xmlns="http://www.w3.org/2000/svg">
<path d="M44.1747 25.4548C43.4797 24.3471 42.3796 23.5543 41.1087 23.2456C39.8376 22.9369 38.4964 23.1363 37.3705 23.8019C35.9211 24.6709 31.121 27.5368 30.3445 28.0139C30.041 28.2004 29.8109 28.4854 29.6924 28.8212C29.5739 29.157 29.5745 29.5234 29.6937 29.8592L27.0461 31.4272L20.789 31.4269C20.4869 31.4275 20.1904 31.3457 19.9313 31.1905L17.3649 29.6374C17.4266 29.3263 17.392 29.0044 17.2648 28.7138C17.1381 28.4236 16.9251 28.1793 16.655 28.0139C15.8785 27.5368 11.0784 24.6709 9.62898 23.8019C8.50312 23.1356 7.16165 22.9355 5.89049 23.2442C4.61934 23.5529 3.51918 24.3463 2.82482 25.4547L0.746712 28.8013C-0.725185 31.0683 0.0589676 34.3482 2.39594 35.7016L9.28894 39.8875L9.28861 39.8878C9.58973 40.0661 9.94202 40.1381 10.289 40.0915C10.6357 40.0453 10.957 39.8835 11.2006 39.6326L12.0439 40.1539L18.5301 45.4974H18.5297C19.8217 46.5602 21.4425 47.1417 23.1152 47.143H25.5449C26.8699 47.1477 28.1417 46.6217 29.0764 45.6824L34.2016 40.5535L35.762 39.592C36.0041 39.8578 36.3303 40.0325 36.6859 40.0863C37.0415 40.1404 37.4047 40.0701 37.7147 39.8878L44.6041 35.702C46.941 34.3486 47.7252 31.0684 46.2533 28.8017L44.1747 25.4548ZM10.4649 38.7901C10.3348 38.9935 10.0677 39.0585 9.85836 38.938L8.57892 38.1615L14.7062 28.1361C15.3606 28.528 15.8674 28.8314 16.0745 28.9608V28.9605C16.2835 29.0886 16.3495 29.3613 16.2224 29.5707L10.4649 38.7901ZM28.2893 44.8953C27.5642 45.6269 26.5757 46.0373 25.5455 46.034H23.1158C21.7011 46.0321 20.3305 45.5408 19.2366 44.6437L12.721 39.2745C12.7022 39.2596 12.6824 39.2461 12.6619 39.2339L11.8226 38.7125L16.8666 30.6326L19.3591 32.1415L19.3588 32.1412C19.7909 32.4004 20.2859 32.537 20.7897 32.5367H22.3874C22.1586 32.7193 21.9456 32.921 21.7512 33.1396L19.3291 35.9242C18.5083 36.8708 18.4637 38.2836 19.233 39.2082C20.0983 40.299 21.8328 40.4136 22.8384 39.4598L25.0757 37.4074V37.4071C25.3055 37.2001 25.6598 37.2182 25.8671 37.4477L30.5043 42.6839L28.2893 44.8953ZM33.5625 39.6442C33.5261 39.667 33.4925 39.6944 33.4627 39.7254L31.2922 41.896L26.6995 36.7116C26.1115 36.0203 24.9799 35.9648 24.3292 36.5895L22.0883 38.6418L22.088 38.6421C21.807 38.8957 21.4352 39.0238 21.0575 38.9974C20.6801 38.971 20.3298 38.7917 20.0872 38.5015C19.6619 37.9874 19.6953 37.1924 20.1684 36.6525L22.5905 33.8679H22.5909C23.3295 33.02 24.3989 32.533 25.5231 32.533L27.1983 32.5366C27.2974 32.5373 27.3948 32.5106 27.4793 32.459L30.2492 30.8211L35.1489 38.6679L33.5625 39.6442ZM37.1422 38.938C36.9335 39.0578 36.6677 38.9948 36.5357 38.7937L30.7782 29.5713C30.6511 29.362 30.7171 29.0892 30.9261 28.9611C31.1367 28.8317 31.6399 28.5286 32.2944 28.1364L38.4217 38.1617L37.1422 38.938Z" fill="#F15A22"/>
<path d="M22.186 24.4301C23.0038 24.8775 23.9937 24.8775 24.8115 24.4301C34.3001 19.2752 35.4648 11.1988 35.5206 5.57454C35.5243 5.13772 35.3559 4.71705 35.0524 4.40312C34.7487 4.08914 34.334 3.90688 33.8972 3.89565C29.9959 3.82896 26.3052 1.61782 24.4525 0.30508H24.4528C24.1742 0.106644 23.8407 0 23.4986 0C23.1566 0 22.8231 0.106644 22.5444 0.30508C20.6918 1.61782 17.0012 3.8293 13.0997 3.89565H13.1001C12.6633 3.90688 12.2486 4.08914 11.9448 4.40312C11.6414 4.71711 11.473 5.13775 11.4766 5.57454C11.5321 11.199 12.697 19.275 22.1858 24.4301H22.186ZM18.3679 10.9934C18.6862 10.6751 19.118 10.4961 19.568 10.4961C20.0181 10.4961 20.45 10.6751 20.7682 10.9934L22.4174 12.6426L27.0011 8.29883V8.29916C27.4413 7.88182 28.0705 7.73126 28.652 7.90394C29.2331 8.07662 29.6782 8.54646 29.8194 9.13613C29.9604 9.72582 29.7762 10.3462 29.336 10.7632L23.5531 16.2434C23.2318 16.5475 22.8049 16.7146 22.3625 16.7086C21.9204 16.7027 21.4978 16.524 21.1851 16.2114L18.3677 13.3937C18.0494 13.0751 17.8705 12.6435 17.8705 12.1935C17.8705 11.7432 18.0494 11.3116 18.3677 10.9934L18.3679 10.9934Z" fill="#F15A22"/>
</svg>
