<svg width="25" height="25" viewBox="0 0 25 25" fill="none" xmlns="http://www.w3.org/2000/svg">
<g clip-path="url(#clip0_637_53584)">
<path d="M19.3646 0H5.63542C2.52292 0 0 2.52292 0 5.63542V19.3646C0 22.4771 2.52292 25 5.63542 25H19.3646C22.4771 25 25 22.4771 25 19.3646V5.63542C25 2.52292 22.476 0 19.3646 0ZM19.0458 15.4844C17.2969 17.4969 13.3875 19.949 12.4979 20.324C11.6083 20.699 11.7396 20.0854 11.776 19.874C11.7979 19.749 11.8948 19.1604 11.8948 19.1604C11.9229 18.9479 11.9521 18.6177 11.8677 18.4073C11.774 18.175 11.4052 18.0552 11.1333 17.9958C7.12812 17.4667 4.1625 14.6667 4.1625 11.3229C4.1625 7.59375 7.90208 4.55833 12.4979 4.55833C17.0937 4.55833 20.8333 7.59271 20.8333 11.3229C20.8323 12.8146 20.2542 14.1594 19.0458 15.4844Z" fill="#4CAF50"/>
<path d="M16.468 10.4292V11.0427H18.0596C18.1471 11.0427 18.219 11.1146 18.219 11.2021V11.7938C18.219 11.8813 18.1482 11.9531 18.0596 11.9531H16.468V12.5667H18.0596C18.1471 12.5667 18.219 12.6386 18.219 12.7261V13.3177C18.219 13.4052 18.1482 13.4761 18.0596 13.4761H15.718C15.6305 13.4761 15.5586 13.4052 15.5586 13.3177V9.67918C15.5586 9.59168 15.6294 9.51981 15.718 9.51981H18.0596C18.1471 9.51981 18.219 9.59064 18.219 9.67918V10.2698C18.219 10.3573 18.1482 10.4292 18.0596 10.4292H16.468Z" fill="#4CAF50"/>
<path d="M9.55586 12.7261V13.3177C9.55586 13.4052 9.48503 13.4761 9.39648 13.4761H7.05482C6.96732 13.4761 6.89648 13.4052 6.89648 13.3177V9.67918C6.89648 9.59168 6.96732 9.51981 7.05482 9.51981H7.64648C7.73398 9.51981 7.80586 9.59064 7.80586 9.67918V12.5667H9.39753C9.48503 12.5667 9.55586 12.6386 9.55586 12.7261Z" fill="#4CAF50"/>
<path d="M10.966 9.67918V13.3167C10.966 13.4042 10.8952 13.475 10.8066 13.475H10.216C10.1285 13.475 10.0566 13.4042 10.0566 13.3167V9.67918C10.0566 9.59168 10.1275 9.51981 10.216 9.51981H10.8066C10.8941 9.51981 10.966 9.59168 10.966 9.67918Z" fill="#4CAF50"/>
<path d="M14.9905 9.67918V13.3167C14.9905 13.4042 14.9197 13.475 14.8311 13.475H14.2436C14.1915 13.475 14.1405 13.449 14.1103 13.4063L12.4436 11.1563V13.3167C12.4436 13.4042 12.3728 13.475 12.2842 13.475H11.6926C11.6051 13.475 11.5332 13.4042 11.5332 13.3167V9.67918C11.5332 9.59168 11.604 9.51981 11.6926 9.51981H12.2801C12.3353 9.51981 12.3832 9.54897 12.4155 9.59168L14.0801 11.8396V9.67918C14.0801 9.59168 14.1509 9.51981 14.2395 9.51981H14.8311C14.9197 9.51981 14.9905 9.59168 14.9905 9.67918Z" fill="#4CAF50"/>
</g>
<defs>
<clipPath id="clip0_637_53584">
<rect width="25" height="25" fill="white"/>
</clipPath>
</defs>
</svg>
