<svg width="39" height="45" viewBox="0 0 39 45" fill="none" xmlns="http://www.w3.org/2000/svg">
<path d="M15.8126 7.59491C7.09336 7.59491 0 14.6683 0 23.3611C0 33.0747 10.8199 41.9261 14.1374 44.4066C14.6384 44.7825 15.2256 44.9694 15.8127 44.9694C16.4015 44.9694 16.9887 44.7821 17.4897 44.4066C20.8058 41.9244 31.6254 33.0721 31.6254 23.3611C31.6267 14.6667 24.5331 7.59491 15.8128 7.59491H15.8126ZM15.8126 30.0484C11.9806 30.0484 8.8629 26.9388 8.8629 23.1167C8.8629 19.2964 11.9807 16.1864 15.8126 16.1864C19.6462 16.1864 22.7641 19.296 22.7641 23.1167C22.7637 26.9387 19.6462 30.0484 15.8126 30.0484Z" fill="#F15A22"/>
<path d="M38.9522 10.4522C38.2803 7.99125 36.9482 5.71581 35.1003 3.87527C33.2463 2.02688 30.9688 0.70366 28.5124 0.0489036C27.7813 -0.151826 27.0381 0.284328 26.8432 1.01009C26.6496 1.73285 27.0807 2.47988 27.8073 2.67284C29.8021 3.207 31.6575 4.28576 33.174 5.79763C34.6875 7.30511 35.7756 9.16091 36.3236 11.1675C36.4884 11.7711 37.0381 12.1695 37.6373 12.1695C37.7552 12.1695 37.8765 12.153 37.9961 12.1213C38.7207 11.9233 39.1491 11.1767 38.9522 10.4522Z" fill="#F15A22"/>
<path d="M30.9071 8.0579C29.9855 7.14043 28.8896 6.50085 27.7393 6.21089C27.0069 6.0179 26.2698 6.46584 26.085 7.19302C25.9002 7.91882 26.3424 8.6598 27.0717 8.84233C27.7467 9.01275 28.4065 9.40511 28.9818 9.97836C29.548 10.5411 29.9521 11.2171 30.1199 11.8809C30.2774 12.4966 30.8314 12.9067 31.4398 12.9067C31.5503 12.9067 31.6625 12.8933 31.776 12.8646C32.504 12.6804 32.9458 11.9429 32.7611 11.2153C32.4719 10.084 31.8135 8.96321 30.9071 8.0579Z" fill="#F15A22"/>
</svg>
