<svg width="16" height="18" viewBox="0 0 16 18" fill="none" xmlns="http://www.w3.org/2000/svg">
<path d="M6.48723 3.04004C2.9101 3.04004 0 5.87133 0 9.35082C0 13.2389 4.43895 16.7818 5.79997 17.7747C6.00551 17.9252 6.24638 18 6.48726 18C6.72883 18 6.96972 17.9251 7.17526 17.7747C8.53572 16.7812 12.9745 13.2379 12.9745 9.35082C12.9751 5.87068 10.0648 3.04004 6.4873 3.04004H6.48723ZM6.48723 12.0275C4.91513 12.0275 3.63606 10.7828 3.63606 9.25298C3.63606 7.72381 4.91516 6.47898 6.48723 6.47898C8.06 6.47898 9.3391 7.72367 9.3391 9.25298C9.33896 10.7828 8.06 12.0275 6.48723 12.0275Z" fill="#F15A22"/>
<path d="M15.979 4.18374C15.7033 3.19868 15.1568 2.28788 14.3987 1.55116C13.6381 0.811304 12.7037 0.281655 11.696 0.0195748C11.3961 -0.0607716 11.0912 0.113809 11.0112 0.404309C10.9318 0.693613 11.1086 0.992628 11.4067 1.06986C12.2251 1.28367 12.9863 1.71547 13.6084 2.32063C14.2294 2.92403 14.6758 3.66686 14.9006 4.47005C14.9682 4.71163 15.1937 4.87111 15.4396 4.87111C15.4879 4.87111 15.5377 4.8645 15.5867 4.85183C15.884 4.77256 16.0598 4.4737 15.979 4.18374Z" fill="#F15A22"/>
<path d="M12.6791 3.22554C12.3011 2.8583 11.8515 2.6023 11.3795 2.48623C11.0791 2.40899 10.7766 2.58829 10.7008 2.87936C10.625 3.16987 10.8064 3.46647 11.1057 3.53953C11.3826 3.60774 11.6533 3.76479 11.8893 3.99425C12.1216 4.21952 12.2873 4.49008 12.3562 4.75578C12.4208 5.00222 12.6481 5.1664 12.8977 5.1664C12.943 5.1664 12.989 5.16101 13.0356 5.14955C13.3343 5.07581 13.5155 4.78059 13.4398 4.48938C13.3211 4.03655 13.051 3.58791 12.6791 3.22554Z" fill="#F15A22"/>
</svg>
