<svg width="34" height="32" viewBox="0 0 34 32" fill="none" xmlns="http://www.w3.org/2000/svg">
<path d="M27.2027 18.4638C27.5797 18.4638 27.8847 18.1631 27.8847 17.7919C27.8847 17.4207 27.5797 17.1199 27.2027 17.1199H7.36172C6.98473 17.1199 6.67969 17.4207 6.67969 17.7919C6.67969 18.1631 6.9847 18.4638 7.36172 18.4638H8.60324V30.5046C8.60324 30.8741 8.90331 31.1765 9.28528 31.1765H24.4318C24.8068 31.1765 25.1138 30.8741 25.1138 30.5046V18.4638H27.2027ZM20.8896 28.2573H12.9389C12.5619 28.2573 12.2568 27.9565 12.2568 27.5853C12.2568 27.2142 12.5618 26.9134 12.9389 26.9134H20.8896C21.2666 26.9134 21.5716 27.2141 21.5716 27.5853C21.5716 27.9565 21.2666 28.2573 20.8896 28.2573ZM20.8896 24.8448H12.9389C12.5619 24.8448 12.2568 24.5441 12.2568 24.1729C12.2568 23.8017 12.5618 23.5009 12.9389 23.5009H20.8896C21.2666 23.5009 21.5716 23.8017 21.5716 24.1729C21.5716 24.5438 21.2666 24.8448 20.8896 24.8448ZM20.8896 21.4324H12.9389C12.5619 21.4324 12.2568 21.1316 12.2568 20.7604C12.2568 20.3893 12.5618 20.0885 12.9389 20.0885H20.8896C21.2666 20.0885 21.5716 20.3892 21.5716 20.7604C21.5716 21.1316 21.2666 21.4324 20.8896 21.4324Z" fill="#F15A22"/>
<path d="M25.1083 0.672008C25.1083 0.302537 24.8013 6.10352e-05 24.4262 6.10352e-05H9.27969C8.89775 6.10352e-05 8.59766 0.302269 8.59766 0.672008V8.85267H25.1083V0.672008Z" fill="#F15A22"/>
<path d="M31.3258 10.197H3.23715C1.95623 10.197 0.914062 11.2764 0.914062 12.6034V21.4916C0.914062 22.815 1.95623 23.8915 3.23715 23.8915H7.23713V19.7956C6.16678 19.7318 5.31383 18.8625 5.31383 17.7921C5.31383 16.6805 6.23156 15.7763 7.35986 15.7763H27.2008C28.3291 15.7763 29.2469 16.6805 29.2469 17.7921C29.2469 18.9037 28.3291 19.8079 27.2008 19.8079H26.4763V23.8915H31.326C32.6071 23.8915 33.6494 22.815 33.6494 21.4914V12.6039C33.6494 11.2768 32.6072 10.1975 31.3258 10.1975V10.197ZM5.47766 14.3923C5.35521 14.52 5.17735 14.5873 4.99355 14.5873C4.81644 14.5873 4.63857 14.52 4.51613 14.3923C4.387 14.2712 4.31155 14.0967 4.31155 13.9153C4.31155 13.7406 4.38675 13.5659 4.51613 13.445C4.76845 13.1964 5.22532 13.1898 5.47794 13.445C5.60781 13.5661 5.68251 13.7406 5.68251 13.9153C5.68202 14.0967 5.60753 14.2714 5.47766 14.3923ZM8.74419 14.3923C8.62174 14.52 8.44388 14.5873 8.26676 14.5873C8.08297 14.5873 7.90511 14.52 7.78266 14.3923C7.65353 14.2646 7.58476 14.0967 7.58476 13.9153C7.58476 13.7406 7.65328 13.5659 7.78266 13.445C8.03498 13.1898 8.49186 13.1898 8.74447 13.445C8.87434 13.5727 8.94905 13.7406 8.94905 13.9153C8.9488 14.0967 8.87406 14.2648 8.74419 14.3923ZM29.3546 14.5902H27.7209C27.3439 14.5902 27.0389 14.2894 27.0389 13.9182C27.0389 13.547 27.3439 13.2463 27.7209 13.2463H29.3546C29.7316 13.2463 30.0366 13.547 30.0366 13.9182C30.0366 14.2894 29.7316 14.5902 29.3546 14.5902Z" fill="#F15A22"/>
</svg>
