<svg width="50" height="42" viewBox="0 0 50 42" fill="none" xmlns="http://www.w3.org/2000/svg">
<path d="M4.10156 8.40039H36.0016C38.2016 8.40039 40.0016 6.60039 40.0016 4.40039C40.0016 2.20039 38.2016 0.400391 36.0016 0.400391H4.10156C1.90156 0.400391 0.101562 2.20039 0.101562 4.40039C0.101562 6.60039 1.90156 8.40039 4.10156 8.40039Z" fill="#212121"/>
<path d="M4.10156 8.40039H36.0016C38.2016 8.40039 40.0016 6.60039 40.0016 4.40039C40.0016 2.20039 38.2016 0.400391 36.0016 0.400391H4.10156C1.90156 0.400391 0.101562 2.20039 0.101562 4.40039C0.101562 6.60039 1.90156 8.40039 4.10156 8.40039Z" fill="black" fill-opacity="0.2"/>
<path d="M35.9016 33.6006H4.10156C1.90156 33.6006 0.101562 35.4006 0.101562 37.6006C0.101562 39.8006 1.90156 41.6006 4.10156 41.6006H36.0016C38.2016 41.6006 40.0016 39.8006 40.0016 37.6006C40.0016 35.4006 38.1016 33.6006 35.9016 33.6006Z" fill="#212121"/>
<path d="M35.9016 33.6006H4.10156C1.90156 33.6006 0.101562 35.4006 0.101562 37.6006C0.101562 39.8006 1.90156 41.6006 4.10156 41.6006H36.0016C38.2016 41.6006 40.0016 39.8006 40.0016 37.6006C40.0016 35.4006 38.1016 33.6006 35.9016 33.6006Z" fill="black" fill-opacity="0.2"/>
<path d="M45.9016 17H4.10156C1.90156 17 0.101562 18.8 0.101562 21C0.101562 23.2 1.90156 25 4.10156 25H46.0016C48.2016 25 50.0016 23.2 50.0016 21C50.0016 18.8 48.1016 17 45.9016 17Z" fill="#212121"/>
<path d="M45.9016 17H4.10156C1.90156 17 0.101562 18.8 0.101562 21C0.101562 23.2 1.90156 25 4.10156 25H46.0016C48.2016 25 50.0016 23.2 50.0016 21C50.0016 18.8 48.1016 17 45.9016 17Z" fill="black" fill-opacity="0.2"/>
</svg>
