<svg width="25" height="25" viewBox="0 0 25 25" fill="none" xmlns="http://www.w3.org/2000/svg">
<path d="M14.7488 17.3199C14.333 17.2091 13.888 17.3126 13.5547 17.5848L11.997 18.8575C11.5494 19.2231 10.9145 19.2716 10.4265 18.9615C8.63861 17.8251 7.1752 16.3619 6.03896 14.574C5.72891 14.0861 5.77738 13.4511 6.14304 13.0036L7.4157 11.4459C7.68793 11.1128 7.79146 10.6676 7.68059 10.2519C7.13119 8.19304 5.96661 6.73036 4.20936 5.84432C3.81543 5.64571 3.34732 5.67177 2.96001 5.88269C2.12551 6.33701 1.32352 6.84401 0.558762 7.40683C0.142982 7.71283 -0.0705208 8.22737 0.0209274 8.7353C0.666892 12.3249 2.62208 16.0844 5.7691 19.2315C8.91617 22.3787 12.6757 24.3339 16.2654 24.9796C16.7734 25.071 17.2879 24.8575 17.5939 24.4417C18.1568 23.677 18.6638 22.875 19.1181 22.0405C19.329 21.6532 19.3551 21.1851 19.1565 20.7912C18.2704 19.0339 16.8078 17.8694 14.749 17.32L14.7488 17.3199Z" fill="#F15A22"/>
<path d="M21.3898 3.61033C18.9575 1.1783 15.5862 -0.135087 12.1388 0.0110118C11.8025 0.0249629 11.5413 0.309304 11.5552 0.645594C11.5692 0.982435 11.8658 1.23779 12.1898 1.22933C15.3035 1.09313 18.336 2.28135 20.5273 4.47236C22.7185 6.66412 23.9007 9.70259 23.7704 12.8097C23.7564 13.146 24.0175 13.4303 24.3541 13.4443C24.3626 13.4445 24.3714 13.4448 24.38 13.4448C24.7049 13.4448 24.9749 13.1884 24.9887 12.8607C25.1334 9.41414 23.8216 6.04217 21.3895 3.61032L21.3898 3.61033Z" fill="#F15A22"/>
<path d="M12.1287 3.25644C11.7924 3.27627 11.5359 3.56483 11.5558 3.90075C11.5756 4.23704 11.8621 4.49624 12.2001 4.47363C14.4469 4.34349 16.6482 5.17593 18.2363 6.76394C19.8244 8.35195 20.659 10.5521 20.5267 12.8001C20.5068 13.1362 20.7633 13.4246 21.0996 13.4444C21.1117 13.4451 21.124 13.4455 21.1359 13.4455C21.4564 13.4455 21.725 13.1957 21.744 12.8715C21.8969 10.2762 20.9327 7.73571 19.0985 5.90161C17.2645 4.06764 14.7208 3.1019 12.1285 3.25627L12.1287 3.25644Z" fill="#F15A22"/>
<path d="M17.838 13.4427C17.8573 13.4445 17.8764 13.4452 17.8955 13.4452C18.2066 13.4452 18.4724 13.2081 18.5018 12.8921C18.6648 11.145 18.0475 9.43177 16.8076 8.19244C15.568 6.95284 13.8564 6.3355 12.1079 6.49833C11.7725 6.52953 11.5261 6.82672 11.5574 7.16209C11.5884 7.49746 11.8861 7.74287 12.2211 7.71261C13.6067 7.58319 14.9633 8.07276 15.9457 9.0548C16.9279 10.037 17.4171 11.3947 17.2879 12.7793C17.2563 13.1143 17.5028 13.4115 17.838 13.4427Z" fill="#F15A22"/>
</svg>
