<svg width="120" height="147" viewBox="0 0 120 147" fill="none" xmlns="http://www.w3.org/2000/svg">
<path d="M60.0097 0.0014506C45.4116 0.0014506 33.5146 11.8938 33.5146 26.4919C33.5146 28.3388 33.8806 30.2447 34.4618 32.1672C13.5335 42.0167 0 63.0932 0 86.4081C0 119.51 26.9075 146.398 60.0102 146.398C93.1128 146.398 120 119.511 120 86.4081C120 63.09 106.467 42.0089 85.5353 32.1614C86.1154 30.2397 86.4825 28.3361 86.4825 26.4904C86.4825 11.8924 74.6093 0 60.0112 0L60.0097 0.0014506ZM60.0097 5.07747C71.8647 5.07747 81.405 14.6369 81.405 26.4919C81.405 27.7711 81.0492 29.3268 80.4283 31.0525H80.4272C79.4697 31.6247 78.9972 32.7543 79.2624 33.8375C78.4738 35.5314 77.4971 37.326 76.4026 39.147C75.921 39.5198 75.5879 40.0523 75.4656 40.6494C73.7875 43.3019 71.9077 45.9691 69.9736 48.4311C64.9904 54.7727 61.4146 58.3157 60.0095 59.748C58.6091 58.3204 55.0072 54.7773 50.0205 48.4311C48.0989 45.986 46.2373 43.338 44.5683 40.7037C44.455 40.0522 44.0924 39.4709 43.5565 39.0823C42.4914 37.3068 41.5397 35.5575 40.7658 33.9022C41.0921 32.7612 40.5834 31.5466 39.5409 30.9778C38.937 29.2816 38.5937 27.7532 38.5937 26.492C38.5937 14.6371 48.1532 5.07762 60.0082 5.07762L60.0097 5.07747ZM60.0097 13.7372C54.1473 13.7372 49.3274 18.5527 49.3274 24.4148C49.3274 30.2769 54.1473 35.0721 60.0097 35.0721C65.8721 35.0721 70.667 30.2772 70.667 24.4148C70.667 18.5524 65.8721 13.7372 60.0097 13.7372ZM60.0097 18.8132C63.129 18.8132 65.591 21.2957 65.591 24.4148C65.591 27.5339 63.1289 29.9961 60.0097 29.9961C56.8905 29.9961 54.4081 27.534 54.4081 24.4148C54.4081 21.2956 56.8906 18.8132 60.0097 18.8132ZM36.3395 36.8919C37.0805 38.4261 37.9269 39.9602 38.8628 41.4818C32.4066 52.3657 28.7481 67.6256 28.398 83.8796H5.16959C6.09981 63.6469 18.092 45.6036 36.3393 36.8902L36.3395 36.8919ZM83.6596 36.8919C101.906 45.605 113.895 63.6475 114.826 83.8814H91.5979C91.2489 67.6256 87.5916 52.3694 81.1332 41.4836C82.0691 39.9608 82.92 38.429 83.661 36.8937L83.6596 36.8919ZM42.0507 46.2463C43.3503 48.0626 44.6907 49.8541 46.0312 51.5602C50.6417 57.4281 54.3875 61.3871 56.3567 63.4221V83.8791H33.4795C33.816 69.4782 36.9591 55.9438 42.0499 46.244L42.0507 46.2463ZM77.9513 46.2463C83.0464 55.9441 86.2043 69.4771 86.5419 83.8785H61.4339V65.6614C61.5619 65.5753 61.6809 65.4767 61.7908 65.3691C61.7908 65.3691 67.8684 59.3187 73.9654 51.5585C75.3058 49.8521 76.6507 48.0607 77.9502 46.2446L77.9513 46.2463ZM5.14082 88.9545H28.3896C28.7181 104.151 31.9167 117.904 37.1334 128.191C39.3167 132.496 41.9002 136.213 44.7915 139.175C22.6305 132.81 6.23115 112.906 5.14053 88.9548L5.14082 88.9545ZM33.4702 88.9545H56.3564V140.715C50.9529 139.099 45.7806 133.999 41.6644 125.884C36.9057 116.501 33.8032 103.447 33.4702 88.9536V88.9545ZM61.4324 88.9545H86.5497C86.2166 103.448 83.1099 116.502 78.3509 125.885C73.6703 135.113 67.6347 140.511 61.4324 141.232V88.9545ZM91.6072 88.9545H114.856C113.765 112.912 97.3721 132.82 75.205 139.178C78.0965 136.214 80.6833 132.497 82.8689 128.189C88.0853 117.903 91.2806 104.15 91.6081 88.9525L91.6072 88.9545Z" fill="#F15A22"/>
</svg>
