<svg width="39" height="39" viewBox="0 0 39 39" fill="none" xmlns="http://www.w3.org/2000/svg">
<path fill-rule="evenodd" clip-rule="evenodd" d="M0 19.5C0 30.2449 8.7551 39 19.5 39C30.2449 39 39 30.2449 39 19.5C39 8.7551 30.2449 0 19.5 0C8.7551 0 0 8.7551 0 19.5ZM26.7151 27.1827C26.4617 27.1827 26.2083 27.1242 25.9742 26.9682L19.9291 23.3608C18.4276 22.4636 17.3161 20.4944 17.3161 18.7588V10.7641C17.3161 9.96465 17.9792 9.30148 18.7787 9.30148C19.5782 9.30148 20.2411 9.96465 20.2411 10.7641V18.7588C20.2411 19.4609 20.8262 20.4944 21.4305 20.8452L27.4757 24.4528C28.1777 24.8623 28.4117 25.7592 27.9826 26.4613C27.7097 26.9293 27.2222 27.1827 26.7151 27.1827L26.7151 27.1827Z" fill="#F15A22"/>
</svg>
