<svg width="45" height="45" viewBox="0 0 45 45" fill="none" xmlns="http://www.w3.org/2000/svg">
<circle cx="22.3844" cy="22.6149" r="22.3844" fill="#03A9F4"/>
<path d="M17.674 32.2902C25.6913 32.2902 30.0782 25.6468 30.0782 19.8955C30.0782 19.7086 30.0782 19.5217 30.0697 19.3348C30.9199 18.7231 31.6596 17.9501 32.2462 17.075C31.4641 17.4233 30.6224 17.6527 29.7382 17.7632C30.6394 17.2279 31.328 16.3699 31.6596 15.3505C30.8179 15.8517 29.8827 16.2085 28.888 16.4039C28.0888 15.5544 26.9581 15.0276 25.7083 15.0276C23.3022 15.0276 21.3468 16.9816 21.3468 19.3858C21.3468 19.7256 21.3893 20.0569 21.4573 20.3797C17.8355 20.2013 14.6218 18.4598 12.4708 15.8262C12.0967 16.4719 11.8842 17.2195 11.8842 18.018C11.8842 19.5302 12.6579 20.864 13.8226 21.6455C13.1085 21.62 12.4368 21.4247 11.8502 21.1018C11.8502 21.1188 11.8502 21.1358 11.8502 21.1613C11.8502 23.2681 13.355 25.0352 15.3445 25.4345C14.9789 25.5364 14.5963 25.5874 14.1967 25.5874C13.9161 25.5874 13.6441 25.5619 13.3805 25.5109C13.9332 27.244 15.5485 28.5013 17.4529 28.5353C15.9566 29.7076 14.0777 30.4042 12.0372 30.4042C11.6887 30.4042 11.3401 30.3873 11 30.3448C12.9214 31.5681 15.2169 32.2902 17.674 32.2902Z" fill="white"/>
</svg>
