<svg width="98" height="92" viewBox="0 0 98 92" fill="none" xmlns="http://www.w3.org/2000/svg">
<path d="M63.5512 0.00233144C62.6692 0.0606139 61.9038 0.634114 61.6023 1.46483L57.4938 12.8834L46.0403 16.9918C45.1396 17.3011 44.5358 18.1466 44.5358 19.0978C44.5358 20.049 45.1396 20.8952 46.0403 21.2045L57.4938 25.3122L61.6023 36.6967C61.9131 37.5927 62.7586 38.1934 63.7082 38.1934C64.6578 38.1934 65.5033 37.5927 65.8142 36.6967L69.9226 25.3122L81.3412 21.2045C82.2418 20.8952 82.8464 20.049 82.8464 19.0978C82.8464 18.1466 82.2418 17.3011 81.3412 16.9918L69.9226 12.8834L65.8142 1.46483C65.4979 0.599917 64.6819 0.01944 63.7603 0.00233144C63.6912 -0.000777146 63.6212 -0.000777146 63.5512 0.00233144ZM63.6911 8.81065L66.0931 15.3903C66.3184 16.0034 66.8018 16.4875 67.4157 16.7129L73.9953 19.0806L67.4157 21.4476C66.7948 21.6807 66.3099 22.1788 66.0931 22.8052L63.6911 29.4198L61.3234 22.8052C61.1066 22.1788 60.6217 21.6807 60.0008 21.4476L53.4211 19.0806L60.0008 16.7129C60.6147 16.4875 61.098 16.0034 61.3234 15.3903L63.6911 8.81065ZM34.1331 18.1754C33.2636 18.2461 32.5152 18.8181 32.2184 19.6379L28.1107 31.0915L16.6571 35.1991C15.7821 35.5224 15.2009 36.3562 15.2009 37.2879C15.2009 38.2205 15.7821 39.0535 16.6571 39.3768L28.1107 43.4852L32.2184 54.9038C32.544 55.7749 33.377 56.3523 34.3072 56.3523C35.2382 56.3523 36.0712 55.7749 36.396 54.9038L40.5045 43.4852L51.923 39.3768C52.798 39.0535 53.3793 38.2205 53.3793 37.2879C53.3793 36.3562 52.798 35.5224 51.923 35.1991L40.5045 31.0915L36.396 19.6379C36.0844 18.7846 35.2856 18.2057 34.3772 18.1754C34.2964 18.1707 34.2147 18.1707 34.1331 18.1754ZM34.3072 26.9829L36.6749 33.5633C36.9073 34.1842 37.4054 34.6691 38.0325 34.8859L44.6122 37.2879L38.0325 39.6556C37.4054 39.8724 36.9073 40.3574 36.6749 40.9783L34.3072 47.5929L31.9052 40.9783C31.6799 40.3651 31.1965 39.881 30.5826 39.6556L24.003 37.2879L30.5826 34.8859C31.1965 34.6606 31.6799 34.1765 31.9052 33.5633L34.3072 26.9829ZM5.86523 35.9653C5.40441 35.9583 4.94825 35.9933 4.47268 36.0694C4.43771 36.0686 4.40274 36.0686 4.36777 36.0694C1.12809 36.723 -0.600275 40.2153 0.1901 43.3803V43.4153L5.62127 65.6266C5.71918 66.0229 5.92433 66.3842 6.21342 66.671L19.2686 79.7262L18.8855 79.8311C18.3113 79.9858 17.8224 80.3634 17.5287 80.8794C17.2342 81.3962 17.1588 82.0085 17.3189 82.5813L19.2337 89.6831C19.3805 90.2636 19.7551 90.7602 20.2726 91.0609C20.7894 91.3624 21.4064 91.4432 21.9838 91.2847L46.2143 84.7741C47.324 84.4842 48.0319 83.3994 47.8509 82.2679C47.8307 82.1972 47.8073 82.1272 47.7809 82.0588L45.8662 74.922C45.5437 73.7439 44.3322 73.0453 43.1511 73.3554L24.2467 78.4034L9.83397 63.9906L4.50785 42.3364V42.3014C4.2141 41.1552 4.66016 40.5732 5.23832 40.4566C6.14597 40.3268 6.72102 40.4768 7.32716 40.8397C7.95349 41.2143 8.59383 41.8872 9.20772 42.8236C10.4355 44.6972 11.4092 47.4543 12.3752 49.7522C12.5757 50.3335 13.0078 50.806 13.568 51.0577C14.1291 51.3103 14.7687 51.3196 15.3367 51.0834C15.9048 50.8479 16.35 50.3879 16.5668 49.8128C16.7844 49.2378 16.7541 48.5982 16.4837 48.0457C15.6258 46.005 14.6637 42.9752 12.9673 40.3867C12.1187 39.0928 11.0556 37.8657 9.62496 37.0101C8.55257 36.3682 7.24627 35.9867 5.86546 35.9657L5.86523 35.9653ZM92.1341 35.9653C90.7532 35.9863 89.4468 36.3678 88.3746 37.0097C86.9439 37.8653 85.8809 39.0924 85.0322 40.3863C83.3359 42.9748 82.3739 46.0046 81.5158 48.0453C81.2454 48.5978 81.2151 49.2374 81.4327 49.8124C81.6495 50.3875 82.0948 50.8475 82.6628 51.083C83.2309 51.3192 83.8704 51.3099 84.4315 51.0573C84.9918 50.8056 85.4239 50.3331 85.6243 49.7518C86.5903 47.4539 87.564 44.6968 88.7918 42.8233C89.4057 41.8869 90.046 41.2139 90.6724 40.8393C91.2785 40.4764 91.8536 40.3264 92.7612 40.4562C93.3394 40.5728 93.7854 41.1548 93.4917 42.301V42.336L88.1656 63.9902L73.7178 78.438L54.8483 73.355C54.2763 73.2066 53.6686 73.292 53.1588 73.5928C52.6498 73.8927 52.2807 74.3839 52.1331 74.9566L50.2183 82.0584C50.1919 82.1268 50.1686 82.1967 50.1484 82.2675C49.9487 83.4113 50.6613 84.5178 51.785 84.8085L76.0512 91.2841C77.2324 91.5949 78.4438 90.8963 78.7663 89.7174L80.6811 82.5806C80.9912 81.3986 80.2925 80.188 79.1145 79.8655L78.6964 79.7606L91.7866 66.6704C92.0757 66.3836 92.2808 66.0223 92.3788 65.6259L97.8099 43.4147V43.3797C98.6002 40.2146 96.872 36.7223 93.6323 36.0688C93.5973 36.068 93.5623 36.068 93.5273 36.0688C93.0518 35.9926 92.5956 35.9577 92.1348 35.9647L92.1341 35.9653ZM19.5123 51.7008C17.9076 51.7342 16.4932 52.4141 15.4395 53.4415C14.3857 54.4688 13.6405 55.8629 13.5597 57.4451C13.4781 59.028 14.1347 60.7377 15.4395 62.0409L22.6455 69.2128C23.0426 69.7054 23.6301 70.0054 24.2619 70.0396C24.8929 70.073 25.5091 69.8375 25.9567 69.3899C26.4036 68.9431 26.6398 68.3269 26.6064 67.6951C26.5722 67.0633 26.2714 66.4758 25.7788 66.0795L18.6077 58.9076C18.0801 58.3808 17.9977 58.035 18.0155 57.6892C18.0334 57.3434 18.2246 56.9502 18.5378 56.6447C18.8509 56.3393 19.2496 56.1653 19.6171 56.1575C19.9847 56.1459 20.3826 56.2173 20.9747 56.8188L25.9877 61.9018C26.3934 62.3121 26.9428 62.5492 27.5194 62.5632C30.027 62.651 32.4858 63.6317 34.3781 65.5223C35.0931 66.2365 35.6456 67.0664 36.0838 67.9943C36.3216 68.5484 36.7731 68.982 37.3365 69.1973C37.8999 69.4125 38.5255 69.3908 39.0726 69.1359C39.6189 68.8818 40.0393 68.4171 40.2367 67.8474C40.4348 67.2778 40.3936 66.653 40.1224 66.1145C39.4829 64.76 38.6125 63.4896 37.5114 62.389C35.0712 59.9513 31.9366 58.701 28.7379 58.3504L24.1428 53.6856C22.8195 52.3427 21.1177 51.6673 19.5123 51.7008ZM78.487 51.7008C76.8815 51.6674 75.1797 52.3427 73.8564 53.6855L69.2613 58.3503C66.0628 58.7008 62.928 59.9512 60.4878 62.389C59.3867 63.4893 58.5163 64.7599 57.8768 66.1144C57.6056 66.653 57.5644 67.2778 57.7626 67.8474C57.96 68.417 58.3804 68.8817 58.9267 69.1358C59.4737 69.3907 60.0993 69.4124 60.6627 69.1972C61.2261 68.9819 61.6776 68.5483 61.9154 67.9942C62.3537 67.0664 62.9062 66.2364 63.6211 65.5222C65.5133 63.6316 67.9721 62.6508 70.4798 62.5631C71.0564 62.5491 71.6059 62.3121 72.0115 61.9018L77.0245 56.8187C77.6167 56.2173 78.0145 56.1496 78.3821 56.1574C78.7497 56.1683 79.1483 56.3393 79.4615 56.6447C79.7746 56.9501 79.9658 57.3433 79.9837 57.6891C80.0015 58.0349 79.9192 58.3807 79.3915 58.9076L72.2205 66.0794C71.7278 66.4758 71.427 67.0632 71.3928 67.695C71.3594 68.3268 71.5957 68.943 72.0425 69.3899C72.4901 69.8375 73.1063 70.0729 73.7373 70.0395C74.3691 70.0053 74.9566 69.7053 75.3537 69.2127L82.5598 62.0408C83.8645 60.7376 84.5212 59.0279 84.4396 57.445C84.3587 55.8628 83.6135 54.4687 82.5598 53.4414C81.506 52.4141 80.0918 51.735 78.487 51.7008ZM42.1413 78.229L42.9075 81.0491L22.9602 86.4102L22.1939 83.5551L42.1413 78.229ZM55.8586 78.2639L75.806 83.5901L75.0397 86.4102L55.0924 81.0841L55.8586 78.2639Z" fill="white"/>
</svg>
