<svg width="65" height="18" viewBox="0 0 65 18" fill="none" xmlns="http://www.w3.org/2000/svg">
<g clip-path="url(#clip0_78_9881)">
<path d="M12.6996 6.95127C12.6996 6.95127 13.1127 7.02808 13.7875 6.36321C13.7875 6.36321 14.1632 6.08236 13.6379 5.77572C13.6379 5.77572 13.1875 5.39169 12.5494 5.5453C12.4747 5.5453 11.8372 5.74993 11.8746 6.389C11.8746 6.389 11.912 6.87447 12.6996 6.95127Z" fill="#ED1C24"/>
<path d="M38.3661 1.65918C38.3661 1.65918 38.7798 1.8896 39.1549 1.53137C39.1549 1.53137 39.6801 1.22414 39.4552 0.789686C39.4552 0.738677 39.1549 0.304221 38.2925 0.35523C38.2925 0.35523 37.6177 0.380441 37.5417 0.917501C37.5406 0.917501 37.4296 1.22414 38.3661 1.65918Z" fill="#ED1C24"/>
<path d="M31.0877 4.67577C31.4248 4.24131 31.0877 4.1903 30.8248 4.21551L30.1494 4.34333L29.8485 4.39434V4.26711H29.8864L30.1114 1.40357L30.1862 1.07172C30.1862 1.07172 30.5239 0.330623 29.6609 0.25323C29.6609 0.25323 28.6496 0.176423 28.7238 1.27575L26.0589 5.13661H26.0221L25.9853 5.16123L24.1093 5.51947C24.1093 5.51947 23.0582 5.62207 22.9448 6.38896C22.9448 6.38896 22.7579 6.82401 23.6956 6.67039L24.9716 6.38896L25.234 6.33796L24.8963 6.79879L21.2195 12.1418C21.2195 12.1418 20.7691 12.7299 21.3317 12.9603C21.3317 12.9603 22.0825 13.1902 22.4202 12.7035L26.5106 6.43997L26.7729 6.00493L28.6496 5.62207L28.6122 5.80148L28.1617 10.1484C28.1617 10.1484 28.0115 10.8138 28.4626 10.8643C28.4626 10.8643 29.2513 11.0689 29.4383 9.63654L29.7386 6.08291L29.7754 5.39224L29.9636 5.34123L30.3007 5.26442C30.7494 5.13661 31.0877 4.67577 31.0877 4.67577ZM28.7617 4.62476L27.5979 4.85518V4.82938L27.5225 4.85518L27.7492 4.47173L28.9861 2.57971L28.7617 4.62476Z" fill="#ED1C24"/>
<path d="M34.3878 4.36979C34.3878 4.36979 35.4763 4.49702 35.5902 3.98575C35.5902 3.98575 35.8146 3.60289 34.2388 3.57651C34.2388 3.57651 31.8387 3.44928 31.4624 5.49433C31.4624 5.49433 31.3122 6.18442 32.4381 6.00559C32.4381 6.00559 33.6762 5.77576 33.7889 5.95517C33.7889 5.95517 33.9402 6.15921 33.6388 6.46643C33.6388 6.46643 32.9254 7.23333 30.6 7.20753C30.6 7.20753 30 7.13072 30 7.56576C30 7.56576 30 8.07702 31.276 8.02543C31.276 8.02543 33.7533 8.00022 34.9154 6.54265C35.2922 6.10761 35.3658 5.87778 35.3658 5.80097C35.3658 5.72416 35.3658 5.64736 35.329 5.57055C35.2163 5.39114 34.9913 5.26332 34.6899 5.2129C34.653 5.2129 34.653 5.2129 34.6151 5.2129H34.5783C34.5409 5.2129 34.5029 5.2129 34.4655 5.2129C34.3539 5.2129 34.1652 5.2129 33.9029 5.26332C33.9029 5.26332 33.6399 5.31433 33.2648 5.31433C33.0779 5.31433 32.9645 5.28912 32.8518 5.23753C32.815 5.2129 32.7402 5.16072 32.7402 5.1103C32.7402 5.08508 32.7402 5.08509 32.7402 5.08509C32.7402 5.08509 32.8132 4.36979 34.3878 4.36979Z" fill="#ED1C24"/>
<path d="M21.1421 8.66396C21.1421 8.66396 20.9546 8.48572 20.4667 8.71497C20.3166 8.79178 20.0916 9.0222 20.0916 9.0222C19.8661 9.22623 19.4536 9.48186 19.4536 9.48186C19.0411 9.76329 18.7408 9.8401 18.5527 9.86531H18.5153H18.4779H18.4399C18.3272 9.86531 18.2156 9.8401 18.1776 9.76329C18.1776 9.76329 18.1776 9.73691 18.1776 9.7117C18.1776 9.68531 18.1776 9.68531 18.1776 9.68531C18.2156 9.60851 18.2898 9.50649 18.2898 9.50649C18.3272 9.45489 18.3646 9.40388 18.3646 9.35288C18.4019 9.32708 18.4019 9.32708 18.4019 9.32708C18.4019 9.32708 19.3777 7.28203 16.5259 8.04892C16.5259 8.04892 16.263 6.89858 15.5128 7.38463L14.613 7.97329C14.613 7.97329 14.1252 8.25472 14.7258 8.66337C14.7258 8.66337 13.1868 11.1429 11.7986 10.862C11.7986 10.862 11.198 10.8116 12.5874 8.89379C12.5874 8.89379 12.9625 8.40833 12.5874 8.1011C12.5874 8.1011 12.3619 7.94749 11.5363 8.1011L9.54749 8.53615V8.33152L9.77243 5.54421L9.88461 5.18656C9.88461 5.18656 10.2223 4.47067 9.32196 4.36865C9.32196 4.36865 8.34683 4.31765 8.38423 5.41639L5.75681 9.27724H5.68261L3.80596 9.6343C3.80596 9.6343 2.71807 9.76271 2.6427 10.5284C2.6427 10.5284 2.45515 10.9629 3.3555 10.7852L4.6695 10.5284H4.63211L4.89502 10.4774L4.59471 10.9377L0.917383 16.2819C0.917383 16.2819 0.429526 16.8705 1.03014 17.0752C1.03014 17.0752 1.74353 17.3314 2.11862 16.8442L6.17105 10.58L6.47136 10.1462L8.31002 9.73749V9.94212L7.82217 14.2884C7.82217 14.2884 7.6726 14.9275 8.16045 15.0043C8.16045 15.0043 8.94862 15.1831 9.13617 13.7772L9.39909 10.223L9.43648 9.58388L10.1113 9.42968L10.9748 9.17346C10.9748 9.17346 9.36111 11.6031 10.8247 11.7808C10.8247 11.7808 12.626 12.2668 14.0142 11.3205C14.0142 11.3205 15.4777 10.3244 16.4155 8.76481C16.4155 8.76481 17.3158 8.61178 17.3158 8.89262C17.3158 8.89262 17.3912 9.07203 17.0909 9.35288C17.0909 9.35288 16.9413 9.5317 16.8653 9.76212C16.8653 9.76212 16.5656 10.529 17.466 10.6815C17.466 10.6815 18.7794 10.9119 20.2424 10.0928C20.2424 10.0928 21.2555 9.50532 21.3682 9.12187C21.4045 8.97119 21.3677 8.81757 21.1421 8.66396ZM8.42162 8.74077L7.25836 8.97119H7.22096L7.44649 8.61412L8.64656 6.6963L8.42162 8.74077Z" fill="#ED1C24"/>
<path d="M45.6077 4.08817C45.6077 4.08817 44.219 4.3696 43.2432 4.72725C43.2432 4.72725 43.2058 4.75246 43.1311 4.77826C42.3803 4.98288 42.9441 4.3696 42.9441 4.3696C42.9809 4.34381 43.0189 4.31859 43.0563 4.267C43.2818 3.98557 43.5435 3.57633 43.7305 3.32128C43.7305 3.29548 43.7679 3.29548 43.7679 3.27027C43.8053 3.21926 43.8053 3.19347 43.8053 3.16767C43.9169 3.06565 44.2552 2.52859 43.543 2.45178C43.543 2.45178 43.2806 2.37498 43.0177 2.52859C42.9797 2.52859 42.9797 2.55439 42.9797 2.55439C42.9429 2.55439 42.9429 2.5796 42.9429 2.5796H42.9055C42.9055 2.60481 42.9055 2.60481 42.9055 2.60481C42.9055 2.5538 42.9055 2.528 42.9055 2.477C42.9055 2.477 42.8681 2.11876 42.3055 2.09413C42.3055 2.09413 40.8051 1.96632 39.4163 3.26969C38.6667 3.95977 38.0649 4.80347 38.2537 5.64717C38.2537 5.64717 37.8406 6.03121 37.1278 5.90339C37.1278 5.90339 36.7147 5.85238 36.9023 5.46835C36.9023 5.46835 37.24 4.65045 37.6519 4.19019C37.6519 4.19019 38.6282 2.96246 37.6151 2.91145C37.6151 2.91145 36.9397 2.80943 36.6773 3.24389C36.6773 3.24389 34.6137 6.38885 36.0773 6.7723C36.0773 6.7723 37.4655 7.23256 39.0798 6.23466C39.2305 6.31146 39.6798 6.46508 40.4674 6.23466C40.5802 6.20944 40.7309 6.15785 40.8805 6.08163C41.0312 6.03062 41.2176 5.95381 41.3689 5.87701C41.5559 5.95381 41.8562 6.00424 42.2693 5.9028C42.2693 5.9028 44.1827 5.26314 45.9472 5.13591C45.9472 5.13591 46.9229 5.0849 46.9229 4.39423C46.9212 4.39481 46.8832 3.88355 45.6077 4.08817ZM42.4919 3.14187C42.4919 3.14187 42.4919 3.19288 42.4177 3.32128C42.2669 3.60271 42.042 3.96036 41.7411 4.31859C41.1796 4.98288 40.3903 5.62255 39.6787 5.41793C39.6787 5.41793 39.0781 5.29011 39.4911 4.75305C39.4911 4.75305 39.7161 4.49683 40.0912 4.13977C40.0912 4.13977 41.2164 3.16825 42.4177 2.93783C42.4177 2.93783 42.5684 2.91204 42.68 2.8364C42.6052 2.93725 42.5684 3.03927 42.4919 3.14187Z" fill="#ED1C24"/>
</g>
<defs>
<clipPath id="clip0_78_9881">
<rect width="64.2686" height="17.5893" fill="white" transform="translate(0.730469)"/>
</clipPath>
</defs>
</svg>
