<svg width="44" height="44" viewBox="0 0 44 44" fill="none" xmlns="http://www.w3.org/2000/svg">
<path d="M28.2337 18.1133L19.8187 9.69834C19.4752 9.35688 19.0105 9.16522 18.5262 9.16522C18.0419 9.16522 17.5772 9.35688 17.2337 9.69834C17.0619 9.86877 16.9255 10.0715 16.8324 10.295C16.7393 10.5184 16.6914 10.758 16.6914 11C16.6914 11.242 16.7393 11.4817 16.8324 11.7051C16.9255 11.9285 17.0619 12.1312 17.2337 12.3017L25.667 20.6983C25.8389 20.8688 25.9753 21.0715 26.0683 21.295C26.1614 21.5184 26.2093 21.758 26.2093 22C26.2093 22.242 26.1614 22.4817 26.0683 22.7051C25.9753 22.9285 25.8389 23.1312 25.667 23.3017L17.2337 31.6983C16.8885 32.0411 16.6936 32.507 16.6919 32.9935C16.6901 33.48 16.8817 33.9473 17.2245 34.2925C17.5673 34.6377 18.0332 34.8326 18.5197 34.8344C19.0062 34.8361 19.4735 34.6445 19.8187 34.3017L28.2337 25.8867C29.2637 24.8554 29.8422 23.4575 29.8422 22C29.8422 20.5425 29.2637 19.1446 28.2337 18.1133V18.1133Z" fill="white"/>
</svg>
