<svg width="110" height="110" viewBox="0 0 110 110" fill="none" xmlns="http://www.w3.org/2000/svg">
<g filter="url(#filter0_d_548_52255)">
<circle cx="55.1087" cy="51.1087" r="28.1087" fill="white"/>
</g>
<path d="M57.8739 48.6121L53.5003 44.2386C53.3218 44.0612 53.0803 43.9615 52.8286 43.9615C52.5769 43.9615 52.3354 44.0612 52.1568 44.2386C52.0675 44.3272 51.9967 44.4326 51.9483 44.5487C51.8999 44.6648 51.875 44.7894 51.875 44.9151C51.875 45.0409 51.8999 45.1655 51.9483 45.2816C51.9967 45.3977 52.0675 45.5031 52.1568 45.5917L56.5399 49.9556C56.6292 50.0442 56.7001 50.1496 56.7485 50.2657C56.7968 50.3818 56.8217 50.5064 56.8217 50.6322C56.8217 50.7579 56.7968 50.8825 56.7485 50.9986C56.7001 51.1147 56.6292 51.2201 56.5399 51.3087L52.1568 55.6727C51.9774 55.8508 51.8761 56.093 51.8752 56.3458C51.8743 56.5986 51.9739 56.8415 52.1521 57.0209C52.3302 57.2003 52.5724 57.3016 52.8252 57.3025C53.0781 57.3034 53.3209 57.2038 53.5003 57.0257L57.8739 52.6522C58.4092 52.1162 58.7098 51.3897 58.7098 50.6322C58.7098 49.8746 58.4092 49.1481 57.8739 48.6121Z" fill="#F15A22"/>
<defs>
<filter id="filter0_d_548_52255" x="0.320599" y="0.131942" width="109.578" height="109.576" filterUnits="userSpaceOnUse" color-interpolation-filters="sRGB">
<feFlood flood-opacity="0" result="BackgroundImageFix"/>
<feColorMatrix in="SourceAlpha" type="matrix" values="0 0 0 0 0 0 0 0 0 0 0 0 0 0 0 0 0 0 127 0" result="hardAlpha"/>
<feOffset dy="3.81134"/>
<feGaussianBlur stdDeviation="13.3397"/>
<feComposite in2="hardAlpha" operator="out"/>
<feColorMatrix type="matrix" values="0 0 0 0 0 0 0 0 0 0 0 0 0 0 0 0 0 0 0.1 0"/>
<feBlend mode="normal" in2="BackgroundImageFix" result="effect1_dropShadow_548_52255"/>
<feBlend mode="normal" in="SourceGraphic" in2="effect1_dropShadow_548_52255" result="shape"/>
</filter>
</defs>
</svg>
