<svg width="39" height="39" viewBox="0 0 39 39" fill="none" xmlns="http://www.w3.org/2000/svg">
<path d="M23.0081 27.0184C22.3595 26.8454 21.6654 27.0069 21.1453 27.4316L18.7153 29.4169C18.0171 29.9873 17.0266 30.0629 16.2654 29.5793C13.4762 27.8064 11.1933 25.5239 9.42078 22.7347C8.93711 21.9736 9.01271 20.983 9.58314 20.2849L11.5685 17.8549C11.9932 17.3352 12.1547 16.6408 11.9817 15.9922C11.1247 12.7804 9.30792 10.4986 6.5666 9.1164C5.95207 8.80656 5.22182 8.84723 4.61761 9.17625C3.31579 9.88499 2.0647 10.6759 0.871668 11.5539C0.223052 12.0313 -0.110012 12.8339 0.0326468 13.6263C1.04035 19.2261 4.09044 25.0909 8.9998 30.0004C13.9092 34.91 19.774 37.9601 25.3741 38.9674C26.1665 39.11 26.9691 38.7769 27.4465 38.1284C28.3246 36.9354 29.1155 35.6843 29.8242 34.3825C30.1533 33.7783 30.1939 33.0481 29.8841 32.4335C28.5018 29.6922 26.2201 27.8755 23.0085 27.0185L23.0081 27.0184Z" fill="#F15A22"/>
<path d="M33.3682 5.63212C29.5739 1.83815 24.3145 -0.210736 18.9366 0.0171784C18.412 0.0389421 18.0045 0.482515 18.0262 1.00713C18.048 1.5326 18.5108 1.93095 19.0162 1.91776C23.8735 1.70528 28.6043 3.5589 32.0227 6.97688C35.441 10.396 37.2852 15.136 37.0819 19.9832C37.0601 20.5078 37.4673 20.9513 37.9925 20.9731C38.0057 20.9734 38.0194 20.974 38.0329 20.974C38.5398 20.974 38.961 20.5739 38.9825 20.0627C39.2081 14.6861 37.1618 9.42578 33.3677 5.6321L33.3682 5.63212Z" fill="#F15A22"/>
<path d="M18.9227 5.07887C18.3981 5.1098 17.9981 5.55995 18.029 6.084C18.06 6.6086 18.507 7.01295 19.0342 6.97769C22.5392 6.77466 25.9733 8.07328 28.4507 10.5506C30.928 13.0279 32.2301 16.4601 32.0236 19.967C31.9927 20.4913 32.3928 20.9411 32.9173 20.9721C32.9362 20.9732 32.9554 20.9738 32.974 20.9738C33.474 20.9738 33.893 20.5841 33.9227 20.0783C34.1613 16.0298 32.657 12.0665 29.7957 9.20533C26.9346 6.34434 22.9665 4.83779 18.9225 5.07861L18.9227 5.07887Z" fill="#F15A22"/>
<path d="M27.8274 20.9698C27.8575 20.9726 27.8872 20.9738 27.917 20.9738C28.4024 20.9738 28.817 20.6038 28.8629 20.1109C29.1171 17.3854 28.1541 14.7128 26.22 12.7794C24.2862 10.8456 21.6161 9.88259 18.8884 10.1366C18.3652 10.1853 17.9809 10.6489 18.0295 11.1721C18.0779 11.6953 18.5424 12.0781 19.065 12.0309C21.2265 11.829 23.3428 12.5927 24.8754 14.1247C26.4077 15.657 27.1708 17.7749 26.9692 19.9349C26.92 20.4575 27.3045 20.9211 27.8274 20.9698Z" fill="#F15A22"/>
</svg>
