<svg width="45" height="38" viewBox="0 0 45 38" fill="none" xmlns="http://www.w3.org/2000/svg">
<path d="M10.0117 27.5207H0.708749C0.416404 27.5141 0.151344 27.6923 0.046262 27.9659C-0.0588205 28.2397 0.0189723 28.5497 0.240431 28.7415L4.69026 32.7606L0.240431 36.7701C0.0243075 36.9669 -0.0497223 37.2757 0.0528547 37.5495C0.157624 37.8212 0.418291 38.0004 0.708757 38.0001H10.0117C10.1986 38.0026 10.379 37.9293 10.5111 37.7967C10.6434 37.664 10.7168 37.4835 10.7143 37.2958V28.2249C10.7168 28.0375 10.6434 27.8567 10.5111 27.724C10.379 27.5914 10.1986 27.5182 10.0117 27.5207Z" fill="#F15A22"/>
<path d="M40.2902 32.7601L44.7588 28.741C44.9803 28.5492 45.0581 28.2392 44.953 27.9654C44.8479 27.6919 44.5829 27.5136 44.2905 27.5202H34.9683C34.7814 27.5177 34.601 27.5909 34.4689 27.7236C34.3366 27.8563 34.2632 28.0371 34.2657 28.2245V37.2954C34.2632 37.4831 34.3366 37.6636 34.4689 37.7962C34.601 37.9289 34.7814 38.0022 34.9683 37.9997H44.2712C44.5617 38 44.8224 37.8208 44.9272 37.5491C45.0297 37.2753 44.9557 36.9665 44.7396 36.7697L40.2902 32.7601Z" fill="#F15A22"/>
<path d="M12.2319 24.0557H32.749C33.137 24.0557 33.4516 24.4446 33.4516 24.7599V33.8309C33.4516 34.2198 33.137 34.5351 32.749 34.5351H12.2319C11.8439 34.5351 11.5293 34.1462 11.5293 33.8309V24.7599C11.5293 24.371 11.8439 24.0557 12.2319 24.0557Z" fill="#F15A22"/>
<path d="M31.0622 22.8066C32.9901 20.5948 33.9929 17.7227 33.8611 14.7884C33.7297 11.8541 32.4743 9.08352 30.3561 7.0537C28.2382 5.02389 25.4204 3.89111 22.49 3.89111C19.5597 3.89111 16.7419 5.02389 14.6239 7.0537C12.5057 9.08352 11.2503 11.8541 11.1189 14.7884C10.9872 17.7227 11.99 20.5948 13.9178 22.8066C14.113 23.0324 14.3906 23.1704 14.6879 23.1899C14.9856 23.2094 15.2783 23.1084 15.501 22.91C15.7265 22.7142 15.8642 22.4362 15.8837 22.1379C15.9028 21.8398 15.8024 21.5462 15.6042 21.3229C14.06 19.5472 13.2578 17.2429 13.3651 14.8893C13.4724 12.536 14.4809 10.3147 16.1804 8.6873C17.8796 7.05993 20.1397 6.15195 22.49 6.15195C24.8404 6.15195 27.1004 7.05993 28.7996 8.6873C30.4991 10.3147 31.5076 12.5359 31.6149 14.8893C31.7222 17.2429 30.9201 19.5471 29.3759 21.3229C29.1563 21.5433 29.0377 21.8448 29.0481 22.1561C29.0581 22.4674 29.1964 22.7604 29.4298 22.9658C29.6635 23.1714 29.9712 23.2707 30.2805 23.2406C30.5898 23.2104 30.8727 23.0534 31.0622 22.8066Z" fill="#F15A22"/>
<path d="M34.9311 23.1919C35.3254 23.1731 35.6808 22.9486 35.8681 22.6002C37.5566 19.4779 38.1093 15.8644 37.4318 12.3783C36.7539 8.89249 34.8881 5.75131 32.1536 3.49331C29.4189 1.23492 25.986 0 22.4427 0C18.8994 0 15.4665 1.235 12.7319 3.49331C9.99751 5.75171 8.13146 8.89289 7.45388 12.3783C6.77602 15.8641 7.32903 19.4775 9.01759 22.6002C9.32468 23.1218 9.98843 23.3067 10.5201 23.0187C11.0518 22.7307 11.261 22.0733 10.9944 21.5297C8.80681 17.4852 8.90526 12.5851 11.2535 8.63156C13.6017 4.67802 17.8527 2.25672 22.4427 2.25672C27.0324 2.25672 31.2839 4.67859 33.6319 8.63156C35.9797 12.5845 36.0783 17.4852 33.891 21.5297C33.7489 21.7922 33.7172 22.1006 33.8035 22.3865C33.8897 22.6723 34.0867 22.9115 34.3499 23.0511C34.5265 23.1514 34.7279 23.2001 34.9308 23.192L34.9311 23.1919Z" fill="#F15A22"/>
<path d="M29.6115 13.0313C29.5309 12.7933 29.3251 12.6194 29.0773 12.5804L24.9926 11.895L23.119 8.21399C22.9989 7.99453 22.7693 7.8584 22.5196 7.8584C22.2699 7.8584 22.04 7.99453 21.9198 8.21399L20.0462 11.895L15.9333 12.5804C15.6855 12.6194 15.48 12.7932 15.3994 13.0313C15.3266 13.2718 15.3872 13.533 15.5588 13.7167L18.4631 16.6746L17.8072 20.7781C17.7771 21.0187 17.8781 21.257 18.0716 21.4025C18.2652 21.5481 18.5218 21.5786 18.7438 21.4824L22.4443 19.6045L26.1447 21.4824H26.1451C26.2417 21.5274 26.3474 21.55 26.4543 21.5481C26.6495 21.5509 26.8358 21.4664 26.9628 21.3177C27.0895 21.1686 27.1435 20.9709 27.1099 20.7781L26.5011 16.6746L29.4054 13.7167C29.5933 13.5428 29.6724 13.2803 29.6115 13.0313Z" fill="#F15A22"/>
</svg>
