<svg width="48" height="48" viewBox="0 0 48 48" fill="none" xmlns="http://www.w3.org/2000/svg">
<path d="M29.1724 28.1234C29.1557 27.8976 29.0478 27.6961 28.8697 27.5566C28.6915 27.417 28.4701 27.3608 28.247 27.3973L25.52 27.8517C24.9995 27.9381 24.4649 27.8818 23.9746 27.6888L20.1895 26.1963C20.0957 26.1599 19.9962 26.1411 19.8968 26.1411C19.8546 26.1411 19.8124 26.1448 19.7712 26.1515L13.8405 27.0998C13.4915 27.155 13.2252 27.4277 13.1767 27.7771L12.8025 30.4869C12.7546 30.8335 12.9358 31.1672 13.2527 31.3161L16.0042 32.6128C16.11 32.6623 16.2273 32.6887 16.3445 32.6887H17.6443C18.4415 32.6887 19.2125 33.0213 19.7591 33.6003C20.3057 34.1792 20.5928 34.9672 20.5469 35.7626L20.2598 40.6789C20.2504 40.8466 20.2926 41.0096 20.3817 41.1511L21.9084 43.5611C22.0893 43.8469 22.3595 43.9134 22.5039 43.9275C22.6483 43.9416 22.9259 43.9295 23.1594 43.6839L26.0592 40.6425C26.1831 40.5123 26.2598 40.3416 26.2759 40.1626L26.7438 34.8669C26.7813 34.4479 26.9116 34.034 27.1226 33.6695L29.1857 30.1008C29.2665 29.9612 29.302 29.803 29.2909 29.6427L29.1757 28.1239L29.1724 28.1234Z" fill="#F15A22"/>
<path d="M27.8321 11.4275C27.6747 11.3499 27.517 11.2749 27.3585 11.2026L25.6825 13.5805C24.9249 14.657 23.6448 15.1977 22.3439 14.9926L21.1454 14.8042C20.566 14.7132 20.006 15.0066 19.7507 15.534L17.0056 21.2193C16.5246 22.2151 15.5868 22.9218 14.495 23.1082L12.8116 23.3967C12.6213 23.4295 12.4291 23.4455 12.2375 23.4455C11.504 23.4455 10.7792 23.2103 10.1857 22.7689L8.06354 21.1922C7.75138 20.96 7.35449 20.8783 6.97469 20.9663L1.08792 22.3436C-2.10634 31.4163 1.91521 41.6489 10.7666 46.0083C20.3252 50.7165 31.8928 46.7917 36.6043 37.2423C41.3169 27.6925 37.3884 16.1356 27.8303 11.4283L27.8321 11.4275ZM31.0113 31.1542L28.9482 34.723C28.8899 34.8234 28.8544 34.9365 28.844 35.0519L28.3761 40.3467C28.3178 40.9999 28.0375 41.6199 27.5857 42.0951L24.6858 45.1365C24.1315 45.7184 23.3786 46.0386 22.5862 46.0386C22.4897 46.0386 22.3919 46.034 22.2954 46.0246C21.3978 45.9366 20.6064 45.4484 20.1244 44.6875L18.5978 42.2775C18.2705 41.7612 18.1168 41.1652 18.1523 40.5545L18.4394 35.6382C18.4524 35.417 18.3757 35.2062 18.2237 35.0452C18.0716 34.8839 17.8653 34.7949 17.6442 34.7949H16.3433C15.9176 34.7949 15.4889 34.6985 15.1034 34.5175L12.3519 33.2208C11.1964 32.6764 10.5373 31.4614 10.7117 30.1965L11.0859 27.4866C11.262 26.2114 12.2347 25.2183 13.5074 25.0151L19.4381 24.0668C19.9529 23.9844 20.48 24.0423 20.9647 24.2334L24.7499 25.7258C24.8848 25.7794 25.0312 25.7941 25.1739 25.7707L27.9009 25.3163C28.7038 25.1824 29.5327 25.3939 30.1731 25.8962C30.8135 26.3984 31.2168 27.1517 31.2777 27.9621L31.393 29.4809C31.4372 30.0665 31.3059 30.6448 31.0111 31.1534L31.0113 31.1542Z" fill="#F15A22"/>
<path d="M6.49461 18.9129C7.48031 18.6823 8.51188 18.8961 9.32413 19.4995L11.4463 21.0762C11.7343 21.2897 12.1027 21.378 12.4564 21.3178L14.1398 21.0294C14.5598 20.9571 14.9209 20.6854 15.1058 20.3022L17.8509 14.617C18.5131 13.2463 19.9683 12.4834 21.4746 12.7206L22.673 12.909C23.1737 12.9876 23.6661 12.7798 23.9578 12.3656L25.3384 10.4063C16.4332 7.46336 6.50413 11.3827 2.12695 19.9339L6.49615 18.9116L6.49461 18.9129Z" fill="#F15A22"/>
<path d="M34.727 0.676344C35.8879 1.8167 37.3462 3.25868 37.9662 3.87033C39.7105 3.18735 41.6153 2.62683 43.4523 2.06667C43.9748 1.90739 44.5188 1.97766 44.8751 2.35445C45.0882 2.57832 45.2998 2.80419 45.5102 3.03173C45.6847 3.22112 45.6415 3.53869 45.4211 3.69328C43.9872 4.7042 42.2955 5.47347 40.8493 6.49741C40.8004 6.53221 40.7893 6.59947 40.8258 6.64263C41.0482 6.91067 42.0225 8.04607 42.8729 9.00645C42.9282 9.06936 43.0146 9.09345 43.098 9.0804C43.6794 8.80399 43.9327 8.70562 44.5074 8.43591C44.7503 8.34221 45.0159 8.40513 45.1874 8.5962C45.5015 8.94488 45.8626 9.34375 46.1908 9.71386C46.3044 9.84235 46.2679 10.0428 46.1158 10.1224C45.0785 10.6685 44.3491 11.0828 43.4122 11.7734C43.3258 11.837 43.2491 11.914 43.1851 12.001C42.4948 12.9352 42.0786 13.6838 41.5346 14.7031C41.4539 14.854 41.2543 14.8895 41.1267 14.777C40.7552 14.4491 40.355 14.0874 40.006 13.7735C39.8147 13.6021 39.7518 13.3358 39.8456 13.0942C40.1155 12.52 40.214 12.267 40.4906 11.686C40.5047 11.6027 40.4792 11.5164 40.4166 11.4612C39.4554 10.6112 38.3186 9.63781 38.0506 9.41594C38.0074 9.38047 37.9391 9.39051 37.9053 9.43937C36.8804 10.8849 36.1103 12.5754 35.0986 14.007C34.9428 14.2272 34.625 14.2703 34.4364 14.096C34.2086 13.8862 33.9836 13.6754 33.7585 13.4615C33.3824 13.1045 33.3104 12.5621 33.4704 12.04C34.0368 10.1989 34.5921 8.30157 35.2758 6.55891C34.6642 5.93951 33.2199 4.48258 32.0788 3.32278C31.3587 2.58995 31.1139 1.16413 31.8407 0.437958C32.5675 -0.288181 33.995 -0.0435673 34.7282 0.675873L34.727 0.676344Z" fill="#F15A22"/>
<path d="M45.7619 15.9653C45.3904 16.0429 45.0003 15.8612 44.8298 15.5041C44.5427 14.9082 44.2135 14.3256 43.8497 13.7735C43.5938 13.3846 43.7017 12.8619 44.0916 12.606C44.4808 12.3503 45.0039 12.4581 45.2601 12.8476C45.6654 13.4623 46.0318 14.1104 46.3507 14.774C46.5523 15.1936 46.3762 15.6979 45.9558 15.8993C45.8929 15.9295 45.8272 15.9519 45.7616 15.9649L45.7619 15.9653Z" fill="#F15A22"/>
<path d="M46.6776 25.9521C46.2331 25.8116 45.7585 26.0579 45.6188 26.5022C45.2323 27.7249 44.6883 28.8961 44.0031 29.983C43.7546 30.3775 43.8728 30.8976 44.2677 31.1458C44.4599 31.2666 44.683 31.3014 44.8893 31.2583C45.106 31.2134 45.304 31.0839 45.4312 30.8825C46.1935 29.6728 46.7984 28.3705 47.2282 27.0109C47.3688 26.5668 47.1223 26.0927 46.6775 25.9531L46.6776 25.9521Z" fill="#F15A22"/>
<path d="M41.5581 32.9428C40.6193 33.8215 39.572 34.5751 38.4436 35.1841C38.0336 35.4053 37.8799 35.917 38.1013 36.3262C38.2832 36.6625 38.6603 36.8255 39.0167 36.7515C39.0944 36.7354 39.1714 36.7073 39.2454 36.6682C40.5021 35.9909 41.6687 35.1513 42.7127 34.1739C43.053 33.8553 43.0701 33.3223 42.7512 32.982C42.4324 32.642 41.8978 32.6249 41.5582 32.9435L41.5581 32.9428Z" fill="#F15A22"/>
<path d="M47.6438 18.5967L47.6354 18.5555C47.5396 18.0991 47.0935 17.807 46.6367 17.9023C46.1798 17.998 45.8874 18.4437 45.9829 18.9001L45.9913 18.9413C46.2519 20.1911 46.3543 21.4644 46.2941 22.7266C46.2716 23.1924 46.6317 23.5866 47.0969 23.6094C47.1699 23.6131 47.2412 23.6067 47.3099 23.5927C47.6777 23.5157 47.9617 23.1991 47.9804 22.8076C48.0471 21.4032 47.9346 19.9864 47.6438 18.598L47.6438 18.5967Z" fill="#F15A22"/>
</svg>
