<svg width="49" height="50" viewBox="0 0 49 50" fill="none" xmlns="http://www.w3.org/2000/svg">
<path d="M7.74501 11.0191C8.20349 11.8145 8.7013 12.5624 9.23106 13.2466C10.1164 14.3841 11.0806 15.3466 12.0525 16.0468C13.1747 16.8504 14.2496 17.2638 15.1902 17.2638C15.5301 17.2638 15.8619 17.2082 16.1625 17.0968C16.3128 17.0492 16.4551 16.9774 16.5974 16.8979C16.8899 16.7229 17.1504 16.5002 17.372 16.2219V16.2138C17.7199 15.7761 17.9568 15.1957 18.0754 14.5192C18.6128 14.9569 18.9683 15.6172 18.9683 16.3728C18.9683 17.6935 17.9091 18.7593 16.5974 18.7593C16.4314 18.7593 16.2655 18.7435 16.1072 18.7036C15.8227 18.7992 15.5145 18.8548 15.1903 18.8548C14.2496 18.8548 13.1748 18.441 12.0446 17.6298C11.1829 17.0094 10.3373 16.1821 9.53898 15.2192L9.48367 15.2748C8.90657 15.8876 8.90657 16.8501 9.48367 17.4624L15.6724 24.0412C15.9726 24.3595 16.3838 24.5423 16.8187 24.5423H38.9486C39.8179 24.5423 40.5293 23.8263 40.5293 22.9513L40.5297 9.79419C40.5297 8.91924 39.8183 8.2032 38.949 8.2032H16.819C16.3842 8.2032 15.9734 8.38632 15.6728 8.70423L11.3573 13.2944C11.0094 12.9124 10.6619 12.5146 10.3378 12.0693C9.90293 11.4965 9.50013 10.876 9.12065 10.2238C8.01411 8.29844 7.31072 6.30167 7.14482 4.5994C7.01055 3.16743 7.2951 2.10158 7.90349 1.74343C9.19959 0.995554 12.3297 3.09598 14.59 7.04152C14.6533 7.15286 14.7166 7.2642 14.7719 7.38359C15.1751 7.03346 15.6729 6.78698 16.1946 6.67564C16.1233 6.53244 16.044 6.38923 15.965 6.24604C13.2618 1.52849 9.45243 -0.993135 7.11275 0.36711C5.91157 1.05931 5.36617 2.61843 5.57175 4.75837C5.76134 6.67564 6.53606 8.89508 7.74516 11.0193L7.74501 11.0191ZM34.2223 16.5398C34.5465 16.8819 34.7125 17.391 34.7125 18.0594C34.7125 18.7278 34.5465 19.2446 34.2147 19.5866C33.8828 19.9287 33.4323 20.1037 32.8869 20.1037C32.3022 20.1037 31.8437 19.9287 31.5118 19.5866C31.1876 19.2445 31.0217 18.7354 31.0217 18.0594C31.0217 17.7173 31.0613 17.4228 31.1323 17.1844C31.2112 16.9299 31.3379 16.7149 31.5194 16.5321C31.8513 16.1901 32.3018 16.0231 32.8552 16.0231C33.432 16.015 33.8904 16.1901 34.2223 16.5398ZM31.4562 12.268H32.4994C32.5627 12.268 32.618 12.2999 32.6497 12.3475C32.6813 12.3951 32.6893 12.4588 32.6577 12.5145L28.6743 20.0005C28.6427 20.0562 28.5794 20.0961 28.5164 20.0961H27.4416C27.3782 20.0961 27.3229 20.0642 27.2913 20.0166C27.2596 19.969 27.2596 19.9053 27.2833 19.8496L31.3063 12.3636C31.3296 12.2999 31.3849 12.268 31.4562 12.268ZM25.7179 12.7851C26.0497 12.4431 26.5002 12.268 27.0537 12.268C27.6148 12.268 28.0732 12.435 28.4051 12.7771C28.737 13.1111 28.9029 13.6282 28.9029 14.3124C28.9029 14.9885 28.737 15.4976 28.4128 15.8396C28.0809 16.1817 27.6304 16.3567 27.077 16.3567C26.4922 16.3567 26.0338 16.1897 25.7095 15.8477C25.3853 15.5136 25.2274 14.9965 25.2274 14.3124C25.2277 13.6363 25.386 13.1191 25.7179 12.7851ZM16.5971 13.9864H16.6127C16.5811 14.0501 16.5494 14.1138 16.5338 14.1933C16.4548 14.6548 16.2649 15.2514 15.8068 15.5217C15.4589 15.7286 14.9691 15.7125 14.392 15.5136C14.7318 14.6148 15.5932 13.9864 16.5971 13.9864Z" fill="#F15A22"/>
<path d="M2.67969 35.012L5.46845 32.2051L17.6964 44.5127L14.9076 47.3197L2.67969 35.012Z" fill="#F15A22"/>
<path d="M0 37.7094L12.2587 50.0002L13.7921 48.4488L1.56503 36.1421L0 37.7094Z" fill="#F15A22"/>
<path d="M37.8185 4.64678C37.5656 3.80368 36.6883 3.3261 35.8503 3.58065L25.7891 6.61167H38.4036L37.8185 4.64678Z" fill="#F15A22"/>
<path d="M32.8558 18.9902C32.9508 18.9902 33.0061 18.9583 33.0534 18.8946C33.1087 18.8231 33.1957 18.6239 33.1957 18.0515C33.1957 17.5186 33.1247 17.3036 33.0691 17.2084C33.0218 17.1527 32.9504 17.1128 32.8635 17.1128C32.7368 17.1128 32.6895 17.1604 32.6579 17.2084C32.6026 17.2798 32.5156 17.479 32.5156 18.0515C32.5156 18.6082 32.6026 18.8074 32.6499 18.8788C32.6819 18.9425 32.7376 18.9902 32.8558 18.9902Z" fill="#F15A22"/>
<path d="M26.8409 15.1399C26.9436 15.2593 27.1411 15.2751 27.2678 15.1242C27.3231 15.0447 27.402 14.814 27.402 14.2968C27.402 13.7401 27.3151 13.5409 27.2678 13.4695C27.2281 13.4138 27.1808 13.3662 27.0545 13.3662C26.9676 13.3662 26.8966 13.3981 26.8413 13.4775C26.786 13.557 26.707 13.7878 26.707 14.3049C26.707 14.5356 26.7227 14.7187 26.7467 14.8539C26.762 14.9652 26.7936 15.0685 26.8409 15.1399Z" fill="#F15A22"/>
<path d="M47.9365 26.9298C46.6481 25.7604 44.6249 25.9435 43.3998 27.1763L38.3099 32.2993C38.3336 32.4663 38.3572 32.6257 38.3572 32.7927C38.3572 34.9007 36.65 36.6112 34.5635 36.6112H26.7468C26.3119 36.6112 25.9564 36.2533 25.9564 35.8157C25.9564 35.378 26.3119 35.0202 26.7468 35.0202H34.1603C35.5986 35.0202 36.7605 33.8507 36.7605 32.403C36.7605 30.9553 35.5986 29.7858 34.1603 29.7858H22.2332C15.8549 26.4922 9.91117 30.0803 7.46875 31.9577L18.0759 42.6339C18.7556 42.2838 19.5142 42.101 20.289 42.101H35.5825C36.8866 42.101 38.1354 41.5758 39.0601 40.6533L48.0546 31.6001C49.3584 30.3113 49.3111 28.1791 47.9357 26.9301L47.9365 26.9298Z" fill="#F15A22"/>
</svg>
