<svg width="45" height="45" viewBox="0 0 45 45" fill="none" xmlns="http://www.w3.org/2000/svg">
<g clip-path="url(#clip0_460_52303)">
<path d="M22.3844 44.7688C34.747 44.7688 44.7688 34.747 44.7688 22.3844C44.7688 10.0218 34.747 0 22.3844 0C10.0218 0 0 10.0218 0 22.3844C0 34.747 10.0218 44.7688 22.3844 44.7688Z" fill="#68B82B"/>
<path d="M37.5755 21.2233C37.5755 14.392 30.7442 8.85388 22.321 8.85388C13.8978 8.85388 7.06641 14.392 7.06641 21.2233C7.06641 27.3583 12.505 32.4653 19.8338 33.427C20.3312 33.5265 20.9945 33.7586 21.1935 34.1897C21.3593 34.5877 21.293 35.1846 21.2266 35.5825C21.2266 35.5825 21.0608 36.6437 20.9945 36.8759C20.9282 37.2738 20.696 38.3682 22.321 37.7049C23.9459 37.0085 31.1089 32.5316 34.2925 28.8506C36.5144 26.4298 37.5755 23.9426 37.5755 21.2233Z" fill="white"/>
<path d="M19.2034 17.9406H18.1422C17.9764 17.9406 17.8438 18.0732 17.8438 18.239V24.8714C17.8438 25.0372 17.9764 25.1699 18.1422 25.1699H19.2034C19.3692 25.1699 19.5019 25.0372 19.5019 24.8714V18.239C19.5019 18.0732 19.3692 17.9406 19.2034 17.9406Z" fill="#68B82B"/>
<path d="M26.5649 17.9406H25.5037C25.3379 17.9406 25.2053 18.0732 25.2053 18.239V22.1853L22.1544 18.0732C22.1544 18.0732 22.1544 18.04 22.1212 18.04C22.1212 18.04 22.1212 18.04 22.088 18.0069C22.088 18.0069 22.088 18.0069 22.0549 18.0069C22.0549 18.0069 22.0549 18.0069 22.0217 18.0069C22.0217 18.0069 22.0217 18.0069 21.9886 18.0069H20.9274C20.7616 18.0069 20.6289 18.1395 20.6289 18.3053V24.9378C20.6289 25.1036 20.7616 25.2362 20.9274 25.2362H21.9886C22.1544 25.2362 22.287 25.1036 22.287 24.9378V20.9251L25.3379 25.0372C25.3711 25.0704 25.3711 25.1036 25.4042 25.1036C25.4042 25.1036 25.4042 25.1036 25.4374 25.1036C25.4374 25.1036 25.4374 25.1036 25.4706 25.1036C25.5037 25.1036 25.5037 25.1036 25.5369 25.1036H26.5981C26.7639 25.1036 26.8965 24.9709 26.8965 24.8051V18.239C26.8634 18.0732 26.7307 17.9406 26.5649 17.9406Z" fill="#68B82B"/>
<path d="M16.6506 23.5118H13.7323V18.239C13.7323 18.0732 13.5997 17.9406 13.4339 17.9406H12.3727C12.2069 17.9406 12.0742 18.0732 12.0742 18.239V24.8714C12.0742 24.9378 12.1074 25.0372 12.1737 25.0704C12.24 25.1367 12.3064 25.1367 12.3727 25.1367H16.6506C16.8164 25.1367 16.949 25.0041 16.949 24.8383V23.7771C16.949 23.6444 16.8164 23.5118 16.6506 23.5118Z" fill="#68B82B"/>
<path d="M32.5002 19.5987C32.666 19.5987 32.7987 19.466 32.7987 19.3002V18.239C32.7987 18.0732 32.666 17.9406 32.5002 17.9406H28.2223C28.156 17.9406 28.0565 17.9737 28.0234 18.04C27.957 18.1064 27.957 18.1727 27.957 18.239V24.8714C27.957 24.9378 27.9902 25.0372 28.0565 25.0704C28.1228 25.1367 28.1892 25.1699 28.2555 25.1699H32.5002C32.666 25.1699 32.7987 25.0372 32.7987 24.8714V23.8102C32.7987 23.6444 32.666 23.5118 32.5002 23.5118H29.582V22.3843H32.5002C32.666 22.3843 32.7987 22.2516 32.7987 22.0858V21.0246C32.7987 20.8588 32.666 20.7262 32.5002 20.7262H29.582V19.5987H32.5002Z" fill="#68B82B"/>
</g>
<defs>
<clipPath id="clip0_460_52303">
<rect width="44.7688" height="44.7688" fill="white"/>
</clipPath>
</defs>
</svg>
