<svg width="21" height="15" viewBox="0 0 21 15" fill="none" xmlns="http://www.w3.org/2000/svg">
<path d="M10.1023 6.32998L1.40957 0.172427C1.66454 0.0599298 1.95699 0 2.24966 0H18.7497C19.0421 0 19.3346 0.0599298 19.5897 0.172427L10.912 6.32227C10.6646 6.48733 10.3344 6.48733 10.1021 6.3298L10.1023 6.32998ZM20.7373 1.20011L11.7673 7.55995C11.3772 7.81491 10.9347 7.95 10.4923 7.95C10.0574 7.95 9.62978 7.82244 9.25478 7.56748L0.2625 1.20036C0.0974314 1.51542 0 1.87534 0 2.25034V12.7501C0 13.9875 1.0125 15 2.25 15H18.75C19.9875 15 21 13.9875 21 12.7501V2.25034C21 1.87534 20.9026 1.51544 20.7375 1.20036L20.7373 1.20011Z" fill="#F15A22"/>
</svg>
