<svg width="27" height="31" viewBox="0 0 27 31" fill="none" xmlns="http://www.w3.org/2000/svg">
<path d="M0.197031 23.2536C-0.0423652 25.1857 -0.0637233 27.1392 0.133585 29.0761C0.205698 29.6044 0.460323 30.0885 0.85114 30.4414C1.24217 30.7943 1.74378 30.9924 2.26508 31H24.803C25.3214 30.9931 25.8194 30.7935 26.2045 30.4386C26.5896 30.084 26.8353 29.5981 26.8959 29.0718C27.0426 27.1349 27.0342 25.1892 26.8711 23.2537C26.5524 18.1729 20.0226 17.1057 20.0226 17.1057C18.3546 16.801 17.6747 15.3368 17.4055 14.3888L17.4057 14.389C18.671 12.8793 19.5857 11.0964 20.0809 9.17373C20.2719 8.4662 20.3698 7.7357 20.3717 7.0016C20.3704 6.59334 20.3336 6.18596 20.2617 5.7844C21.0941 4.35805 20.8488 2.76718 20.6515 2.0028C20.5766 1.77878 20.362 1.63584 20.1315 1.65595C20.1065 1.65595 20.0816 1.65725 20.0568 1.65985C19.9636 1.66936 19.8697 1.6739 19.776 1.67347C18.2853 1.67347 15.8205 0.661255 15.8205 0.661255C14.9545 0.264019 14.0221 0.0408609 13.0736 0.00432482V0H12.8035V0.00281112C11.0389 0.0518979 9.39026 0.913168 8.31767 2.34666C6.81532 2.86088 6.56113 4.83969 6.65014 6.57222C6.64168 6.71472 6.63407 6.85722 6.63407 7.00167C6.68842 9.77044 7.66481 12.4373 9.40234 14.5619C9.45161 14.6196 9.50279 14.6748 9.55397 14.7299C9.22554 15.6554 8.52366 16.8363 7.04562 17.1062C7.04583 17.106 0.51595 18.1735 0.197074 23.2542L0.197031 23.2536ZM14.8405 27.1931L13.7082 28.0742C13.6577 28.1 13.5982 28.1 13.5477 28.0742L12.4154 27.1933C12.3499 27.1256 12.3156 27.0326 12.3213 26.9377L13.3626 21.7968H13.6653L14.9219 26.9656C14.9278 27.0497 14.8982 27.1325 14.8405 27.1931ZM14.28 18.3109C14.195 18.411 14.1271 18.5252 14.0789 18.6482H12.9268C12.8786 18.5252 12.8107 18.411 12.7257 18.3109L10.0196 16.0021C10.1279 15.8107 10.2247 15.6129 10.3102 15.4096C11.2081 16.0886 12.2934 16.4595 13.41 16.4685C14.5057 16.4727 15.568 16.0839 16.412 15.3696C16.4951 15.2997 16.5755 15.2262 16.6562 15.1531V15.1533C16.7597 15.4334 16.8842 15.705 17.0289 15.9656L14.28 18.3109ZM14.4118 20.2391L14.0965 20.828H12.9553L12.6123 20.2082L12.7481 19.9803C12.8352 19.8722 12.9033 19.7492 12.949 19.617H14.0567C14.1024 19.7492 14.1705 19.8722 14.2576 19.9803L14.4118 20.2391ZM17.4829 16.8398L17.8297 17.2317L17.913 17.3255L18.0171 17.3945L18.3216 17.5962L15.9831 21.0152L14.983 19.3571C14.9109 19.2473 14.9037 19.1058 14.9642 18.9889L17.4829 16.8398ZM7.95016 9.63171C7.99647 9.33308 8.08021 9.04182 8.19907 8.76481C8.43847 8.21404 8.83921 7.75281 9.34616 7.44508C9.48849 7.35317 10.4209 6.74359 10.685 6.74381C10.7049 6.74208 10.7246 6.74792 10.7402 6.76046C11.9943 7.99001 13.5277 8.33057 14.8425 8.33057C15.8419 8.32668 16.8335 8.14849 17.7744 7.80359C18.3725 7.56875 18.9276 7.23291 19.4165 6.80975C19.4189 6.87376 19.4244 6.93712 19.4244 7.00156C19.4227 7.64919 19.3364 8.29361 19.1674 8.91765C18.5332 11.2825 17.3096 13.3614 15.8104 14.6217C15.1357 15.193 14.2863 15.504 13.4101 15.5001C12.141 15.4841 10.94 14.9095 10.115 13.9233C9.09295 12.6732 8.35385 11.2077 7.95014 9.63177L7.95016 9.63171ZM8.98854 17.3951L9.09259 17.3261L9.17591 17.2322L9.52273 16.8404L12.0414 18.9894L12.0416 18.9892C12.1021 19.1062 12.0949 19.2476 12.0228 19.3574L11.0223 21.0158L8.68381 17.5968L8.98854 17.3951Z" fill="#F15A22"/>
</svg>
