<svg width="120" height="127" viewBox="0 0 120 127" fill="none" xmlns="http://www.w3.org/2000/svg">
<path d="M17.2635 51.793H85.4787C86.4617 51.793 87.3037 50.951 87.3037 49.968L87.3027 21.1941C87.3027 20.2111 86.4607 19.3691 85.4777 19.3691L17.2625 19.3701C16.2795 19.3701 15.4375 20.2121 15.4375 21.1951V49.969C15.5775 50.951 16.2795 51.793 17.2625 51.793H17.2635ZM19.0875 23.0191H83.7937V48.284H19.0875V23.0191Z" fill="#F15A22"/>
<path d="M32.5654 63.3025H17.2664C16.2834 63.3025 15.4414 64.1445 15.4414 65.1275V79.0234C15.4414 80.0064 16.2834 80.8484 17.2664 80.8484H32.5654C33.5484 80.8484 34.3904 80.0064 34.3904 79.0234V65.1275C34.2494 64.0045 33.5474 63.3025 32.5654 63.3025ZM30.7405 77.0586H18.9504V66.6716H30.7405V77.0586Z" fill="#F15A22"/>
<path d="M32.5654 90.8132H17.2664C16.2834 90.8132 15.4414 91.6552 15.4414 92.6382V106.534C15.4414 107.517 16.2834 108.359 17.2664 108.359H32.5654C33.5484 108.359 34.3904 107.517 34.3904 106.534L34.3894 92.6382C34.2494 91.6552 33.5474 90.8132 32.5654 90.8132ZM30.7405 104.709H18.9504V94.3222H30.7405V104.709Z" fill="#F15A22"/>
<path d="M59.0928 63.3025H43.7937C42.8107 63.3025 41.9688 64.1445 41.9688 65.1275V79.0234C41.9688 80.0064 42.8108 80.8484 43.7937 80.8484H59.0928C60.0758 80.8484 60.9178 80.0064 60.9178 79.0234V65.1275C60.7768 64.0045 60.0748 63.3025 59.0928 63.3025ZM57.2678 77.0586H45.4778V66.6716H57.2678V77.0586Z" fill="#F15A22"/>
<path d="M59.0928 90.8132H43.7937C42.8107 90.8132 41.9688 91.6552 41.9688 92.6382V106.534C41.9688 107.517 42.8108 108.359 43.7937 108.359H59.0928C60.0758 108.359 60.9178 107.517 60.9178 106.534V92.6382C60.7768 91.6552 60.0748 90.8132 59.0928 90.8132ZM57.2678 104.709H45.4778V94.3222H57.2678V104.709Z" fill="#F15A22"/>
<path d="M107.797 78.1807C106.253 77.1977 104.569 76.3557 102.884 75.7947V10.9481C102.884 4.91312 97.9711 0 91.9361 0H10.9481C4.91312 0 0 4.91312 0 10.9481V115.376C0 121.411 4.91312 126.324 10.9481 126.324H92.0765H92.6375H93.7605C102.603 126.324 111.025 121.832 115.798 114.253C118.044 110.885 119.307 106.954 119.868 102.743C120.429 97.4094 119.026 92.9184 119.026 92.7773C117.062 86.8832 113.13 81.5492 107.797 78.1813L107.797 78.1807ZM10.9486 122.815C6.87867 122.815 3.50951 119.446 3.50951 115.376V10.948C3.50951 6.87804 6.87842 3.50889 10.9486 3.50889H92.077C96.1469 3.50889 99.5161 6.87779 99.5161 10.948V74.6717C98.9551 74.5317 98.3931 74.3907 97.8321 74.3907H97.5511C96.8491 74.2507 96.1471 74.2507 95.4461 74.1097H94.8851H93.341H92.639C92.218 74.1097 91.656 74.1097 91.235 74.2497C90.954 74.2497 90.814 74.2497 90.533 74.3897C90.112 74.3897 89.691 74.5297 89.27 74.5297C88.989 74.5297 88.709 74.6697 88.568 74.6697C88.147 74.8097 87.726 74.8097 87.305 74.9507C87.024 74.9507 86.744 75.0907 86.603 75.2317C86.182 75.3717 85.761 75.5127 85.34 75.6527C85.059 75.7927 84.779 75.7927 84.638 75.9337C84.217 76.0737 83.796 76.2147 83.515 76.3547C83.234 76.4947 82.9539 76.6357 82.813 76.6357C82.3919 76.7757 82.1109 77.0567 81.6899 77.1967C81.4089 77.3367 81.2689 77.4777 80.9879 77.6177C80.5669 77.7577 80.2859 78.0387 79.8649 78.3197C79.5839 78.4597 79.4439 78.6007 79.1629 78.7407C78.8819 79.0217 78.4609 79.1617 78.1799 79.4427C77.8989 79.5827 77.7589 79.7237 77.4779 80.0038C77.1969 80.2848 76.7759 80.5648 76.4949 80.8458C76.3549 80.9858 76.0739 81.2668 75.9339 81.4068C75.6529 81.6878 75.3729 81.9678 74.9509 82.3898C74.8109 82.5298 74.5299 82.8108 74.3899 82.9508C74.1089 83.3718 73.8289 83.6528 73.4069 84.0738C73.2669 84.2138 73.1259 84.3548 72.9859 84.6348C72.5649 85.1958 72.1439 85.7578 71.7229 86.3188C64.0028 98.53 67.5118 114.672 79.5828 122.532C79.8638 122.813 80.2848 122.953 80.5658 123.093L10.9495 123.097L10.9486 122.815ZM116.219 102.463C115.798 106.112 114.675 109.481 112.71 112.429C108.359 119.166 100.639 123.237 92.4978 122.816C88.5677 122.676 84.6379 121.412 81.2687 119.307C70.7417 112.57 67.6538 98.5342 74.3908 88.0069C74.6718 87.5859 75.0928 87.0239 75.3738 86.6029C75.5138 86.4629 75.6548 86.3219 75.6548 86.1819C75.9358 85.9009 76.2158 85.4799 76.4968 85.1989L78.0408 83.6549C78.4618 83.2339 78.8829 82.9529 79.3039 82.5319C79.4439 82.3919 79.5849 82.3919 79.7249 82.2509C80.0059 81.9699 80.4269 81.6899 80.7079 81.5489C80.8479 81.4089 80.9889 81.4089 81.1289 81.2679C81.5499 80.9869 81.8309 80.8469 82.2519 80.5659C82.3919 80.5659 82.5329 80.4259 82.5329 80.4259C82.9539 80.1449 83.5159 79.8649 84.0769 79.7239C84.2169 79.7239 84.2169 79.5839 84.3579 79.5839C84.7789 79.4439 85.1999 79.3029 85.6209 79.0229C85.7609 79.0229 85.9019 78.8828 86.0419 78.8828C86.4629 78.7428 86.8839 78.6018 87.1649 78.4618C87.3049 78.4618 87.4459 78.3218 87.5859 78.3218C88.1469 78.1818 88.7089 78.0408 89.1299 77.9008H89.27C89.691 77.7608 90.253 77.7608 90.674 77.6198H91.235C91.656 77.6198 92.077 77.6198 92.498 77.4798H93.059H94.182H95.024C95.445 77.4798 95.726 77.4798 96.147 77.6198C96.428 77.6198 96.568 77.6198 96.849 77.7598C97.2701 77.7598 97.6911 77.8998 97.9721 78.0408C98.1121 78.0408 98.3931 78.1808 98.5331 78.1808C99.0941 78.3208 99.6561 78.4618 100.358 78.7418C102.183 79.3029 104.007 80.1459 105.692 81.2678C110.324 84.2159 113.693 88.8468 115.236 94.181C115.518 94.041 116.781 97.8309 116.219 102.463L116.219 102.463Z" fill="#F15A22"/>
<path d="M71.024 66.8116H83.797V72.0047H87.306V65.1267C87.306 64.1438 86.464 63.3018 85.4811 63.3018L69.2 63.3027C68.217 63.3027 67.375 64.1448 67.375 65.1277V82.3918H70.884V66.8118L71.024 66.8116Z" fill="#F15A22"/>
<path d="M102.11 104.28C102.11 106.453 101.506 108.099 100.296 109.219C99.1088 110.317 97.2944 110.91 94.8528 111V113.688H92.1984V111H86.7216V87.48H92.1984V85.1616H94.8528V87.5472C99.064 87.9504 101.17 89.8096 101.17 93.1248C101.17 94.4464 100.878 95.5328 100.296 96.384C99.7136 97.2352 98.8064 97.896 97.5744 98.3664V98.4672C99.1424 98.8928 100.285 99.576 101.002 100.517C101.741 101.435 102.11 102.69 102.11 104.28ZM89.8128 97.392H93.7104C95.144 97.392 96.2304 97.056 96.9696 96.384C97.7088 95.6896 98.0784 94.6816 98.0784 93.36C98.0784 92.1728 97.6752 91.3104 96.8688 90.7728C96.0624 90.2352 94.7856 89.9664 93.0384 89.9664H89.8128V97.392ZM94.3488 108.514C97.4848 108.514 99.0528 107.08 99.0528 104.213C99.0528 102.667 98.56 101.536 97.5744 100.819C96.6112 100.102 95.0768 99.744 92.9712 99.744H89.8128V108.514H94.3488Z" fill="#F15A22"/>
</svg>
