<svg width="120" height="123" viewBox="0 0 120 123" fill="none" xmlns="http://www.w3.org/2000/svg">
<path d="M113.182 77.0241L113.237 19.2602C113.24 16.7054 112.239 14.2966 110.421 12.4782C108.604 10.6619 106.196 9.66159 103.641 9.66159H87.5258V6.33891C87.5258 2.84409 84.6817 0 81.1869 0H80.3127C76.8178 0 73.9738 2.84409 73.9738 6.33891V9.66159H63.3946V6.83136C63.3946 3.33654 60.5505 0.492454 57.0557 0.492454H56.1834C52.6886 0.492454 49.8445 3.33654 49.8445 6.83136V9.66159H39.2653V6.33891C39.2653 2.84409 36.4212 0 32.9264 0H32.0542C28.5594 0 25.7153 2.84409 25.7153 6.33891V9.66159H9.59556C4.30407 9.66159 0 13.9657 0 19.2582V101.231C0 106.523 4.30407 110.827 9.59556 110.827H70.0914C70.2026 110.827 70.3099 110.812 70.4153 110.794C75.3663 117.775 83.5049 122.346 92.6957 122.346C107.751 122.346 120 110.097 120 95.0421C120.002 88.1419 117.423 81.8345 113.184 77.0223L113.182 77.0241ZM77.9212 6.33891C77.9212 5.01971 78.9953 3.94566 80.3145 3.94566H81.1887C82.5079 3.94566 83.5819 5.01971 83.5819 6.33891V15.9443C83.5819 17.2635 82.5089 18.3375 81.1887 18.3375H80.3165C78.9973 18.3375 77.9232 17.2635 77.9232 15.9443V11.6342L77.9222 6.33865L77.9212 6.33891ZM53.7889 6.83212C53.7889 5.51292 54.863 4.43887 56.1822 4.43887H57.0544C58.3736 4.43887 59.4477 5.51292 59.4477 6.83212V16.4395C59.4477 17.7587 58.3736 18.8328 57.0544 18.8328H56.1822C54.863 18.8328 53.7889 17.7587 53.7889 16.4395V6.83212ZM29.6566 6.33891C29.6566 5.01971 30.7307 3.94566 32.0499 3.94566H32.9221C34.2413 3.94566 35.3153 5.01971 35.3153 6.33891V15.9443C35.3153 16.0782 35.2966 16.2062 35.277 16.3342C35.273 16.3647 35.274 16.3962 35.2681 16.4267C35.0446 17.5165 34.0788 18.3375 32.9231 18.3375H32.0509C30.7317 18.3375 29.6576 17.2635 29.6576 15.9443V6.3389L29.6566 6.33891ZM9.59603 13.6073H25.7099V15.9444C25.7099 19.4392 28.554 22.2833 32.0488 22.2833H32.9211C36.4159 22.2833 39.26 19.4392 39.26 15.9444V13.6073H49.8392V16.4375C49.8392 19.9323 52.6833 22.7764 56.1781 22.7764H57.0503C60.5451 22.7764 63.3892 19.9323 63.3892 16.4375V13.6073H73.9684V15.9444C73.9684 19.4392 76.8125 22.2833 80.3073 22.2833H81.1816C84.6764 22.2833 87.5205 19.4392 87.5205 15.9444V13.6073H103.634C105.137 13.6073 106.552 14.198 107.625 15.2691C108.697 16.3402 109.286 17.7558 109.284 19.2551L109.268 35.1739L3.94769 35.1749V19.2591C3.94769 16.1423 6.48179 13.6072 9.59656 13.6072L9.59603 13.6073ZM9.59603 106.884C6.48126 106.884 3.94615 104.349 3.94615 101.234L3.94714 39.1227H109.273L109.24 73.345C104.645 69.8343 98.9123 67.7425 92.6964 67.7425C85.9036 67.7425 79.6867 70.2431 74.903 74.3632V68.3512C74.903 65.9363 72.939 63.9702 70.5221 63.9702H63.1554C60.7405 63.9702 58.7745 65.9342 58.7745 68.3512V75.7178C58.7745 78.1327 60.7385 80.0987 63.1554 80.0987H69.8635C67.0391 84.396 65.3901 89.533 65.3901 95.0488C65.3901 99.2868 66.3608 103.304 68.0916 106.887L9.59429 106.886L9.59603 106.884ZM70.5228 76.1495H63.1562C62.9218 76.1495 62.723 75.9507 62.723 75.7164V68.3497C62.723 68.1154 62.9218 67.9165 63.1562 67.9165H70.5228C70.7571 67.9165 70.956 68.1154 70.956 68.3497V75.7164C70.956 75.9507 70.7581 76.1495 70.5228 76.1495ZM92.6969 118.404C79.818 118.404 69.3393 107.925 69.3393 95.0463C69.3393 82.1674 79.818 71.6887 92.6969 71.6887C105.576 71.6887 116.054 82.1674 116.054 95.0463C116.054 107.925 105.576 118.404 92.6969 118.404ZM101.552 88.0249C102.323 88.7957 102.323 90.045 101.552 90.8158L91.5766 100.791C91.1937 101.174 90.6877 101.369 90.1806 101.369C89.7347 101.369 89.2848 101.218 88.9176 100.912L83.3426 96.263C82.5058 95.565 82.3926 94.3206 83.0905 93.4839C83.7905 92.6471 85.0329 92.5349 85.8696 93.2319L90.0585 96.7257L98.7601 88.024C99.531 87.2542 100.781 87.2521 101.552 88.0249ZM48.6751 44.5835H41.3084C38.8936 44.5835 36.9285 46.5476 36.9285 48.9635V56.3301C36.9285 58.745 38.8925 60.711 41.3084 60.711H48.6751C51.09 60.711 53.056 58.747 53.056 56.3301V48.9635C53.0551 46.5476 51.0901 44.5835 48.6751 44.5835ZM49.1083 56.3291C49.1083 56.5634 48.9094 56.7623 48.6751 56.7623H41.3084C41.0741 56.7623 40.8753 56.5634 40.8753 56.3291V48.9625C40.8753 48.7281 41.0741 48.5303 41.3084 48.5303H48.6751C48.9094 48.5303 49.1083 48.7291 49.1083 48.9625V56.3291ZM63.1586 60.708H70.5253C72.9402 60.708 74.9062 58.744 74.9062 56.3271V48.9604C74.9062 46.5455 72.9422 44.5805 70.5253 44.5805H63.1586C60.7437 44.5805 58.7777 46.5445 58.7777 48.9604V56.3271C58.7777 58.744 60.7417 60.708 63.1586 60.708ZM62.7254 48.9625C62.7254 48.7281 62.9243 48.5303 63.1586 48.5303H70.5253C70.7596 48.5303 70.9585 48.7291 70.9585 48.9625V56.3291C70.9585 56.5634 70.7596 56.7623 70.5253 56.7623H63.1586C62.9243 56.7623 62.7254 56.5634 62.7254 56.3291V48.9625ZM85.0069 60.708H92.3735C94.7884 60.708 96.7545 58.744 96.7545 56.3271V48.9604C96.7545 46.5455 94.7905 44.5805 92.3735 44.5805H85.0069C82.592 44.5805 80.626 46.5445 80.626 48.9604V56.3271C80.626 58.744 82.5919 60.708 85.0069 60.708ZM84.5737 48.9625C84.5737 48.7281 84.7726 48.5303 85.0069 48.5303H92.3735C92.6078 48.5303 92.8067 48.7291 92.8067 48.9625V56.3291C92.8067 56.5634 92.6079 56.7623 92.3735 56.7623H85.0069C84.7726 56.7623 84.5737 56.5634 84.5737 56.3291V48.9625ZM26.8275 63.9687H19.4616C17.0467 63.9687 15.0816 65.9327 15.0816 68.3496V75.7163C15.0816 78.1312 17.0457 80.0972 19.4616 80.0972H26.8282C29.2431 80.0972 31.2091 78.1332 31.2091 75.7163V68.3496C31.2072 65.9338 29.2422 63.9687 26.8272 63.9687H26.8275ZM27.2606 75.7143C27.2606 75.9486 27.0618 76.1475 26.8275 76.1475L19.4616 76.1485C19.2272 76.1485 19.0294 75.9496 19.0294 75.7153V68.3486C19.0294 68.1143 19.2282 67.9154 19.4616 67.9154H26.8282C27.0625 67.9154 27.2614 68.1143 27.2614 68.3486L27.2606 75.7143ZM48.6759 63.9687H41.3092C38.8943 63.9687 36.9293 65.9327 36.9293 68.3496V75.7163C36.9293 78.1312 38.8933 80.0972 41.3092 80.0972H48.6759C51.0908 80.0972 53.0568 78.1332 53.0568 75.7163V68.3496C53.0558 65.9338 51.0908 63.9687 48.6759 63.9687ZM49.109 75.7143C49.109 75.9486 48.9102 76.1475 48.6759 76.1475H41.3092C41.0749 76.1475 40.876 75.9486 40.876 75.7143V68.3476C40.876 68.1133 41.0749 67.9145 41.3092 67.9145H48.6759C48.9102 67.9145 49.109 68.1133 49.109 68.3476V75.7143ZM26.8276 83.3557H19.4617C17.0468 83.3557 15.0818 85.3197 15.0818 87.7356V95.1022C15.0818 97.5171 17.0458 99.4832 19.4617 99.4832H26.8284C29.2433 99.4832 31.2093 97.5191 31.2093 95.1022V87.7356C31.2073 85.3207 29.2423 83.3557 26.8274 83.3557H26.8276ZM27.2608 95.1005C27.2608 95.3348 27.0619 95.5337 26.8276 95.5337H19.4617C19.2274 95.5337 19.0295 95.3348 19.0295 95.1005V87.7338C19.0295 87.4995 19.2284 87.3006 19.4617 87.3006H26.8284C27.0627 87.3006 27.2615 87.4995 27.2615 87.7338L27.2608 95.1005ZM48.676 83.3557H41.3094C38.8945 83.3557 36.9294 85.3197 36.9294 87.7356V95.1022C36.9294 97.5171 38.8935 99.4832 41.3094 99.4832H48.676C51.0909 99.4832 53.0569 97.5191 53.0569 95.1022V87.7356C53.056 85.3207 51.091 83.3557 48.676 83.3557ZM49.1092 95.1005C49.1092 95.3348 48.9103 95.5337 48.676 95.5337H41.3094C41.0751 95.5337 40.8762 95.3348 40.8762 95.1005V87.7338C40.8762 87.4995 41.075 87.3006 41.3094 87.3006H48.676C48.9103 87.3006 49.1092 87.4995 49.1092 87.7338V95.1005ZM26.8278 44.5823H19.4619C17.047 44.5823 15.0819 46.5463 15.0819 48.9622V56.3289C15.0819 58.7438 17.046 60.7098 19.4619 60.7098H26.8285C29.2434 60.7098 31.2094 58.7458 31.2094 56.3289V48.9622C31.2075 46.5463 29.2427 44.5823 26.8278 44.5823ZM27.2609 56.3279C27.2609 56.5622 27.0621 56.761 26.8278 56.761H19.4619C19.2276 56.761 19.0297 56.5622 19.0297 56.3279V48.9612C19.0297 48.7269 19.2285 48.529 19.4619 48.529H26.8285C27.0628 48.529 27.2617 48.7279 27.2617 48.9612L27.2609 56.3279Z" fill="#F15A22"/>
</svg>
