<svg width="120" height="128" viewBox="0 0 120 128" fill="none" xmlns="http://www.w3.org/2000/svg">
<path d="M60 52.2578C56.9205 52.2578 53.9664 53.4817 51.788 55.6591C49.6106 57.8375 48.3867 60.7916 48.3867 63.8711C48.3867 66.9506 49.6106 69.9047 51.788 72.0831C53.9664 74.2606 56.9205 75.4844 60 75.4844C63.0795 75.4844 66.0336 74.2606 68.212 72.0831C70.3895 69.9047 71.6133 66.9506 71.6133 63.8711C71.6094 60.7926 70.3846 57.8405 68.2081 55.6631C66.0306 53.4866 63.0785 52.2618 60 52.2578ZM60 71.6126C57.947 71.6126 55.9776 70.797 54.5253 69.3457C53.074 67.8934 52.2585 65.924 52.2585 63.871C52.2585 61.818 53.074 59.8486 54.5253 58.3963C55.9776 56.945 57.947 56.1295 60 56.1295C62.053 56.1295 64.0224 56.945 65.4747 58.3963C66.926 59.8486 67.7416 61.818 67.7416 63.871C67.7396 65.924 66.9231 67.8914 65.4718 69.3427C64.0205 70.794 62.053 71.6106 60 71.6126Z" fill="#F15A22"/>
<path d="M42.582 125.808C42.582 126.321 42.7862 126.813 43.1487 127.176C43.5113 127.539 44.0042 127.743 44.5174 127.743H75.4867C75.9999 127.743 76.4928 127.539 76.8554 127.176C77.2179 126.813 77.4221 126.321 77.4221 125.808V96.7744C77.4221 90.5512 74.1014 84.8005 68.7123 81.6889C63.3233 78.5773 56.682 78.5773 51.2929 81.6889C45.9038 84.8005 42.5832 90.5512 42.5832 96.7744L42.582 125.808ZM46.4529 96.7744C46.4529 91.9336 49.0357 87.461 53.2273 85.0407C57.4189 82.6212 62.5845 82.6212 66.7759 85.0407C70.9675 87.4611 73.5503 91.9336 73.5503 96.7744V123.872H46.4531L46.4529 96.7744Z" fill="#F15A22"/>
<path d="M114.194 42.5825C114.194 39.502 112.971 36.5489 110.793 34.3705C108.616 32.1931 105.662 30.9692 102.581 30.9692C99.5015 30.9692 96.5475 32.1931 94.37 34.3705C92.1916 36.5489 90.9688 39.502 90.9688 42.5825C90.9688 45.662 92.1916 48.6161 94.37 50.7936C96.5475 52.972 99.5015 54.1948 102.581 54.1948C105.661 54.1919 108.613 52.9671 110.789 50.7906C112.967 48.6131 114.191 45.661 114.194 42.5825ZM94.8396 42.5825C94.8396 40.5286 95.6552 38.5601 97.1074 37.1079C98.5587 35.6556 100.528 34.84 102.581 34.84C104.635 34.84 106.605 35.6556 108.056 37.1079C109.508 38.5601 110.324 40.5285 110.324 42.5825C110.324 44.6355 109.508 46.6049 108.056 48.0562C106.605 49.5085 104.635 50.3241 102.581 50.3241C100.529 50.3221 98.5607 49.5056 97.1094 48.0543C95.6581 46.603 94.8415 44.6345 94.8396 42.5825Z" fill="#F15A22"/>
<path d="M85.1605 75.4854V104.516C85.1605 105.029 85.3647 105.522 85.7272 105.885C86.0908 106.248 86.5827 106.452 87.0969 106.451H118.064C118.577 106.452 119.07 106.248 119.432 105.885C119.796 105.522 120 105.029 119.999 104.516V75.4854C119.999 69.2612 116.679 63.5115 111.289 60.3989C105.9 57.2873 99.26 57.2873 93.8699 60.3989C88.4808 63.5115 85.1602 69.2612 85.1602 75.4854H85.1605ZM102.58 61.9368C106.173 61.9407 109.616 63.3696 112.156 65.9097C114.696 68.4497 116.125 71.8927 116.129 75.4854V102.583H89.0314V75.4854C89.0353 71.8925 90.4642 68.4497 93.0043 65.9097C95.5443 63.3697 98.9873 61.9408 102.579 61.9368H102.58Z" fill="#F15A22"/>
<path d="M29.0303 42.5825C29.0303 39.502 27.8074 36.5489 25.629 34.3705C23.4516 32.1931 20.4975 30.9692 17.418 30.9692C14.3375 30.9692 11.3834 32.1931 9.20596 34.3705C7.02853 36.5489 5.80469 39.502 5.80469 42.5825C5.80469 45.662 7.02853 48.6161 9.20596 50.7936C11.3834 52.972 14.3375 54.1948 17.418 54.1948C20.4965 54.1919 23.4486 52.9671 25.625 50.7906C27.8025 48.6131 29.0273 45.661 29.0303 42.5825ZM9.67553 42.5825C9.67553 40.5286 10.4911 38.5601 11.9434 37.1079C13.3947 35.6556 15.3641 34.84 17.4181 34.84C19.4711 34.84 21.4405 35.6556 22.8917 37.1079C24.344 38.5601 25.1596 40.5285 25.1596 42.5825C25.1596 44.6355 24.344 46.6049 22.8917 48.0562C21.4405 49.5085 19.4711 50.3241 17.4181 50.3241C15.3651 50.3221 13.3967 49.5056 11.9454 48.0543C10.4941 46.603 9.67748 44.6345 9.67553 42.5825Z" fill="#F15A22"/>
<path d="M0.000374018 75.4854V104.516C-0.000597987 105.029 0.203536 105.522 0.567078 105.885C0.929651 106.248 1.4225 106.452 1.93575 106.451H32.9025C33.4168 106.452 33.9086 106.248 34.2722 105.885C34.6348 105.522 34.8389 105.029 34.8389 104.516V75.4854C34.8389 69.2612 31.5182 63.5115 26.1292 60.3989C20.7391 57.2873 14.0988 57.2873 8.70972 60.3989C3.31965 63.5115 0 69.2612 0 75.4854H0.000374018ZM17.4198 61.9368C21.0117 61.9407 24.4548 63.3696 26.9948 65.9097C29.5348 68.4497 30.9637 71.8927 30.9677 75.4854V102.583H3.87048V75.4854C3.87437 71.8925 5.3033 68.4497 7.84335 65.9097C10.3834 63.3697 13.8264 61.9408 17.4191 61.9368H17.4198Z" fill="#F15A22"/>
<path d="M71.6133 11.6133C71.6133 8.53378 70.3895 5.5797 68.212 3.40127C66.0336 1.22384 63.0795 0 60 0C56.9205 0 53.9664 1.22384 51.788 3.40127C49.6106 5.57967 48.3867 8.53378 48.3867 11.6133C48.3867 14.6928 49.6106 17.6469 51.788 19.8253C53.9664 22.0027 56.9205 23.2266 60 23.2266C63.0785 23.2227 66.0306 21.9979 68.208 19.8213C70.3845 17.6439 71.6093 14.6918 71.6133 11.6133ZM52.2586 11.6133C52.2586 9.56029 53.0741 7.5909 54.5254 6.13861C55.9777 4.68732 57.9471 3.87174 60.0001 3.87174C62.0531 3.87174 64.0225 4.6873 65.4748 6.13861C66.9261 7.59087 67.7417 9.56029 67.7417 11.6133C67.7417 13.6663 66.9261 15.6357 65.4748 17.088C64.0225 18.5393 62.0531 19.3548 60.0001 19.3548C57.9471 19.3529 55.9797 18.5364 54.5284 17.0851C53.0771 15.6338 52.2605 13.6663 52.2586 11.6133Z" fill="#F15A22"/>
<path d="M42.582 44.5161C42.582 45.5854 43.4482 46.4515 44.5174 46.4515C45.5867 46.4515 46.4528 45.5854 46.4528 44.5161C46.4528 39.6753 49.0356 35.2027 53.2272 32.7824C57.4188 30.3629 62.5844 30.3629 66.7758 32.7824C70.9674 35.2028 73.5502 39.6753 73.5502 44.5161C73.5502 45.5854 74.4163 46.4515 75.4856 46.4515C76.5548 46.4515 77.421 45.5854 77.421 44.5161C77.421 38.2929 74.1003 32.5422 68.7112 29.4306C63.3222 26.319 56.6809 26.319 51.2918 29.4306C45.9027 32.5422 42.582 38.2929 42.582 44.5161Z" fill="#F15A22"/>
</svg>
