<svg width="72" height="86" viewBox="0 0 72 86" fill="none" xmlns="http://www.w3.org/2000/svg">
<path d="M33.5075 57.8536L18.3192 42.6071C17.1304 41.4156 17.1339 39.4803 18.3254 38.2949L20.9176 35.7116C22.1126 34.5228 24.0411 34.5262 25.2327 35.7178L35.6726 46.1975L64.0082 17.8636C65.1998 16.6686 67.1289 16.6686 68.3204 17.8636L70.9099 20.4495C72.1014 21.6445 72.1014 23.573 70.9099 24.7617L37.8197 57.8571C36.6282 59.0487 34.699 59.0458 33.5075 57.8536Z" fill="white"/>
<path d="M62.8164 41.9772C59.9233 54.6097 53.0339 65.8971 36.7781 77.8228C36.2344 78.2218 35.3438 78.2218 34.8001 77.8228C10.1571 59.7421 7.00148 43.1619 6.72769 21.0795C6.72152 20.4104 7.24667 19.7372 7.90071 19.5781C20.0079 16.5808 29.9989 11.0118 34.7604 8.04534C35.3349 7.68885 36.2501 7.69227 36.8212 8.04534C40.4087 10.281 46.9815 13.9728 55.1705 16.9462C55.8033 17.1738 56.7062 16.9675 57.182 16.4917L60.7758 12.9006C61.2516 12.4276 61.1138 11.8812 60.4714 11.6748C47.4763 7.49755 37.8591 0.709625 37.7467 0.626785C36.5799 -0.208928 35.0072 -0.208928 33.8396 0.626785C33.7011 0.724822 19.7667 10.5875 2.72388 13.8488C1.14294 14.1477 0 15.536 0 17.1424C0 42.5313 2.49695 63.6764 33.887 85.4042C34.4581 85.8032 35.1279 86 35.7942 86C36.4606 86 37.127 85.8032 37.7015 85.4042C61.8302 68.7023 68.8628 52.3351 70.8355 34.128C70.9061 33.4582 70.5743 33.2984 70.0985 33.7777L63.9435 39.9266C63.4677 40.3996 62.9699 41.321 62.8198 41.9784L62.8164 41.9772Z" fill="white"/>
</svg>
