<svg width="84" height="84" viewBox="0 0 84 84" fill="none" xmlns="http://www.w3.org/2000/svg">
<path fill-rule="evenodd" clip-rule="evenodd" d="M39.8415 18.3759C39.0259 18.3759 38.2577 18.7547 37.7602 19.4007L30.4741 28.8761H26.3827C22.0225 28.8761 18.375 32.3399 18.375 36.7511V55.1254C18.375 59.5365 22.0225 63.0003 26.3827 63.0003H54.1903C58.0101 63.0003 61.3613 60.3294 62.0671 56.5456L65.4932 38.1703C66.4099 33.2555 62.5364 28.8759 57.6164 28.8759H50.5422V26.2506C50.5422 21.8401 46.8938 18.3756 42.5336 18.3756L39.8415 18.3759ZM26.3829 34.1258H29.1419V57.7507H26.3829C24.7974 57.7507 23.6249 56.5141 23.6249 55.1254V36.7511C23.6249 35.3624 24.7973 34.1258 26.3829 34.1258ZM54.1906 57.7507H34.3924V32.3933L41.1354 23.6254H42.5338C44.1193 23.6254 45.2918 24.8628 45.2918 26.2506V31.5003C45.2918 32.9505 46.4678 34.1256 47.9171 34.1256H57.6166C59.4131 34.1256 60.6172 35.6786 60.3323 37.2088L56.9063 55.584C56.6813 56.7925 55.5738 57.7505 54.1905 57.7505L54.1906 57.7507Z" fill="white"/>
<path fill-rule="evenodd" clip-rule="evenodd" d="M49.584 3.09621C45.3705 -1.03207 38.6293 -1.03207 34.416 3.09621C33.0194 4.46465 31.0092 5.00344 29.1161 4.51652C23.4032 3.04788 17.5647 6.41846 15.98 12.1006C15.4553 13.9832 13.9831 15.4553 12.1006 15.98C6.41843 17.5647 3.04795 23.4032 4.51652 29.1161C5.00344 31.0093 4.46466 33.0194 3.09621 34.416C-1.03207 38.6295 -1.03207 45.3707 3.09621 49.584C4.46465 50.9806 5.00344 52.9908 4.51652 54.8839C3.04788 60.5968 6.41846 66.4353 12.1006 68.02C13.9832 68.5447 15.4553 70.0169 15.98 71.8994C17.5647 77.5816 23.4032 80.952 29.1161 79.4835C31.0093 78.9966 33.0194 79.5353 34.416 80.9038C38.6295 85.0321 45.3707 85.0321 49.584 80.9038C50.9806 79.5353 52.9908 78.9966 54.8839 79.4835C60.5968 80.9521 66.4353 77.5815 68.02 71.8994C68.5447 70.0168 70.0169 68.5447 71.8994 68.02C77.5816 66.4353 80.952 60.5968 79.4835 54.8839C78.9966 52.9907 79.5353 50.9806 80.9038 49.584C85.0321 45.3705 85.0321 38.6293 80.9038 34.416C79.5353 33.0194 78.9966 31.0092 79.4835 29.1161C80.9521 23.4032 77.5815 17.5647 71.8994 15.98C70.0168 15.4553 68.5447 13.9831 68.02 12.1006C66.4353 6.41843 60.5968 3.04795 54.8839 4.51652C52.9907 5.00344 50.9806 4.46466 49.584 3.09621ZM38.0906 6.8465C40.2624 4.7178 43.7377 4.7178 45.9094 6.8465C48.619 9.50081 52.5178 10.545 56.1907 9.60093C59.1359 8.84419 62.1453 10.5818 62.9627 13.5103C63.9813 17.1638 66.8361 20.0186 70.4896 21.0372C73.4182 21.8546 75.1556 24.864 74.3989 27.8092C73.455 31.4821 74.4991 35.3809 77.1534 38.0905C79.2821 40.2623 79.2821 43.7376 77.1534 45.9092C74.4991 48.6189 73.4549 52.5177 74.3989 56.1906C75.1557 59.1358 73.4181 62.1452 70.4896 62.9626C66.8361 63.9812 63.9813 66.8359 62.9627 70.4895C62.1453 73.4181 59.1359 75.1555 56.1907 74.3988C52.5178 73.4549 48.619 74.499 45.9094 77.1533C43.7376 79.282 40.2623 79.282 38.0906 77.1533C35.381 74.499 31.4822 73.4547 27.8093 74.3988C24.8641 75.1556 21.8547 73.418 21.0373 70.4895C20.0187 66.8359 17.1639 63.9812 13.5104 62.9626C10.5818 62.1452 8.84437 59.1358 9.60105 56.1906C10.545 52.5177 9.50085 48.6189 6.84661 45.9092C4.71791 43.7375 4.71791 40.2622 6.84661 38.0905C9.50092 35.3809 10.5451 31.4821 9.60105 27.8092C8.84431 24.864 10.5819 21.8546 13.5104 21.0372C17.1639 20.0185 20.0187 17.1638 21.0373 13.5103C21.8547 10.5817 24.8641 8.84426 27.8093 9.60093C31.4822 10.5449 35.381 9.50074 38.0906 6.8465Z" fill="white"/>
</svg>
