<svg width="99" height="83" viewBox="0 0 99 83" fill="none" xmlns="http://www.w3.org/2000/svg">
<path d="M98.3355 54.608C97.6098 49.9453 93.3619 46.7331 88.595 47.3548L70.0471 49.8418C68.9072 47.7696 66.8351 46.3189 64.3478 46.0081L37.0958 42.2778C33.573 41.7595 30.0501 42.8994 27.4596 45.2824L20.9314 51.2923L5.38841 53.6754C2.27963 54.1936 0 56.7842 0 59.8929V76.6791C0 78.5439 0.82905 80.3062 2.17638 81.446C3.31624 82.4825 4.76687 83 6.3208 83C6.6316 83 6.94241 83 7.25321 82.8967L22.0705 80.617L44.5559 82.586C52.9489 83.3117 61.2387 81.5495 68.5957 77.5084L93.8789 63.6236C97.0909 61.8621 98.8525 58.2352 98.3349 54.6081L98.3355 54.608ZM6.63203 78.2333C6.01042 78.3366 5.59554 78.0258 5.38882 77.8191C5.18137 77.6116 4.87057 77.1975 4.87057 76.5759V59.8931C4.87057 59.0641 5.49218 58.4425 6.21785 58.3391L19.7918 56.1627V76.1613L6.63203 78.2333ZM91.7038 59.4781L66.4206 73.3637C59.8924 76.9907 52.5357 78.5447 45.0749 77.9231L24.4546 76.1617V54.5052L30.7754 48.7027C32.1227 47.4594 33.8842 46.8379 35.6455 46.8379C35.9563 46.8379 36.2672 46.8379 36.682 46.9412L63.7268 50.5676C65.1774 50.775 66.3173 52.0182 66.3173 53.4689C66.3173 54.9195 65.2808 56.1628 63.8302 56.3703L57.9235 57.3027C54.7115 57.8209 51.4993 57.9243 48.2873 57.5101L41.4482 56.6811C40.1009 56.4736 38.9611 57.5101 38.8577 58.7533C38.7543 60.1005 39.6867 61.2403 40.9299 61.3438L47.769 62.1728C51.396 62.587 55.0222 62.4836 58.6492 61.9654L64.5559 61.033C67.9754 60.5147 70.5659 57.7168 70.9801 54.2981L89.217 51.915C91.3934 51.6042 93.3614 53.0548 93.6723 55.2312C93.8805 56.9926 93.1555 58.6501 91.7048 59.479L91.7038 59.4781Z" fill="white"/>
<path d="M25.9057 35.2311C29.3251 35.9567 32.9514 36.3709 36.6818 36.3709C39.998 36.3709 43.3134 36.0601 46.5254 35.4385C47.0437 36.3709 47.9761 36.9925 49.0125 37.3033C52.4319 38.029 56.0583 38.4431 59.7886 38.4431C63.5189 38.4431 67.0418 38.029 70.5647 37.3033C71.7045 37.0958 72.5336 36.3709 73.0517 35.4385C76.2637 36.0601 79.4759 36.3709 82.8954 36.3709C86.6257 36.3709 90.1486 35.9567 93.6715 35.2311C95.7437 34.8169 97.0909 32.9514 96.7802 30.7758L95.9512 24.2476C95.537 20.7247 93.3607 17.8233 90.3561 16.2687C91.8067 14.5072 92.7392 12.3309 92.7392 9.94786C92.7392 4.45602 88.2839 0 82.7913 0C77.2995 0 72.8434 4.45528 72.8434 9.94786C72.8434 12.4349 73.7759 14.6106 75.2265 16.2687C73.2576 17.3052 71.5995 18.9626 70.5638 21.0355C69.6314 19.8957 68.4916 18.9633 67.1444 18.2376C68.595 16.4762 69.5274 14.2999 69.5274 11.9168C69.5274 6.42498 65.0722 1.96896 59.5796 1.96896C54.0877 1.96896 49.6317 6.42423 49.6317 11.9168C49.6317 14.4039 50.5641 16.5795 52.0148 18.2376C50.6675 18.9633 49.5277 19.8957 48.5953 21.0355C47.6629 18.9633 46.0048 17.3052 43.9326 16.2687C45.3833 14.5072 46.3157 12.3309 46.3157 9.94786C46.3157 4.45602 41.8604 0 36.3678 0C30.876 0 26.42 4.45528 26.42 9.94786C26.42 12.4349 27.3524 14.6106 28.803 16.2687C25.7984 17.8227 23.6221 20.7239 23.208 24.2476L22.3789 30.7758C22.4859 32.9514 23.8332 34.817 25.9055 35.2311H25.9057ZM82.7929 4.76687C85.6942 4.76687 87.9739 7.04651 87.9739 9.94786C87.9739 12.8492 85.6942 15.1288 82.7929 15.1288C79.8915 15.1288 77.6119 12.8492 77.6119 9.94786C77.7153 7.14994 79.995 4.76687 82.7929 4.76687ZM74.3991 24.8691C74.7099 22.0712 77.1971 19.8955 79.9942 19.8955H85.5893C88.4907 19.8955 90.8737 22.0719 91.1844 24.8691L91.9101 30.7758C86.0034 31.9156 79.5792 31.9156 73.6732 30.7758L74.3991 24.8691ZM59.7893 6.73565C62.6907 6.73565 64.9703 9.01528 64.9703 11.9166C64.9703 14.818 62.6907 17.0976 59.7893 17.0976C56.888 17.0976 54.6083 14.818 54.6083 11.9166C54.6083 9.01528 56.888 6.73565 59.7893 6.73565ZM51.2921 26.8379C51.6029 24.0399 54.09 21.8643 56.8872 21.8643H62.4823C65.3837 21.8643 67.7667 24.0407 68.0774 26.8379L68.8031 32.7446C62.8964 33.8844 56.4722 33.8844 50.5662 32.7446L51.2921 26.8379ZM36.6816 4.76687C39.5829 4.76687 41.8626 7.04651 41.8626 9.94786C41.8626 12.8492 39.5829 15.1288 36.6816 15.1288C33.7802 15.1288 31.5006 12.8492 31.5006 9.94786C31.5006 7.14994 33.7802 4.76687 36.6816 4.76687ZM28.2886 24.8691C28.5994 22.0712 31.0865 19.8955 33.8837 19.8955H39.4787C42.3801 19.8955 44.7632 22.0719 45.0738 24.8691L45.7995 30.7758C39.8928 31.9156 33.4686 31.9156 27.5626 30.7758L28.2886 24.8691Z" fill="white"/>
</svg>
