<svg width="26" height="25" viewBox="0 0 26 25" fill="none" xmlns="http://www.w3.org/2000/svg">
<rect width="26" height="25" rx="5" fill="#F44336"/>
<path d="M21.0584 8.033C20.8692 7.32554 20.312 6.76788 19.604 6.57859C18.3217 6.23541 13.1778 6.23541 13.1778 6.23541C13.1778 6.23541 8.03395 6.23541 6.7509 6.57859C6.04358 6.76788 5.48636 7.32486 5.29719 8.033C4.95312 9.31583 4.95312 11.9918 4.95312 11.9918C4.95312 11.9918 4.95312 14.6678 5.29719 15.9506C5.48636 16.658 6.04358 17.2157 6.75159 17.405C8.03395 17.7482 13.1778 17.7482 13.1778 17.7482C13.1778 17.7482 18.3217 17.7482 19.6047 17.405C20.312 17.2157 20.8692 16.6587 21.0591 15.9506C21.4025 14.6678 21.4025 11.9918 21.4025 11.9918C21.4025 11.9918 21.4025 9.31583 21.0584 8.033ZM11.4959 14.4219V9.56164L15.7946 11.9918L11.4959 14.4219Z" fill="#F5F5F5"/>
</svg>
