<svg width="25" height="19" viewBox="0 0 25 19" fill="none" xmlns="http://www.w3.org/2000/svg">
<path d="M0 0H25V18.75H0V0Z" fill="white"/>
<path d="M10.625 0H14.375V18.75H10.625V0Z" fill="#FF0000"/>
<path d="M0 7.5H25V11.25H0V7.5Z" fill="#FF0000"/>
<path fill-rule="evenodd" clip-rule="evenodd" d="M5.73438 14.5742C5.77344 13.918 5.89062 13.3594 5.89062 13.3594C5.89062 13.3594 5.50781 13.3984 5.3125 13.3984C5.12109 13.3984 4.73437 13.3594 4.73437 13.3594C4.73437 13.3594 4.85156 13.918 4.89062 14.5781C4.23047 14.5391 3.67188 14.4219 3.67188 14.4219C3.67188 14.4219 3.71094 14.7109 3.71094 15C3.71094 15.2891 3.67188 15.5781 3.67188 15.5781C3.67188 15.5781 4.23047 15.4609 4.89062 15.4219C4.85156 16.082 4.73437 16.6406 4.73437 16.6406C4.73437 16.6406 5.02344 16.6016 5.3125 16.6016C5.60156 16.6016 5.89062 16.6406 5.89062 16.6406C5.89062 16.6406 5.77344 16.082 5.73438 15.4219C6.39453 15.4609 6.95312 15.5781 6.95312 15.5781C6.95312 15.5781 6.91406 15.1953 6.91406 15C6.91406 14.8086 6.95312 14.4219 6.95312 14.4219C6.95312 14.4219 6.39453 14.5391 5.73828 14.5781L5.73438 14.5742ZM20.1094 3.32422C20.1484 2.66797 20.2656 2.10938 20.2656 2.10938C20.2656 2.10938 19.8828 2.14844 19.6875 2.14844C19.4961 2.14844 19.1094 2.10938 19.1094 2.10938C19.1094 2.10938 19.2266 2.66797 19.2656 3.32422C18.6055 3.28516 18.0469 3.17187 18.0469 3.17187C18.0469 3.17187 18.0859 3.46094 18.0859 3.75C18.0859 4.03906 18.0469 4.32812 18.0469 4.32812C18.0469 4.32812 18.6055 4.21094 19.2656 4.17188C19.2266 4.83203 19.1094 5.39062 19.1094 5.39062C19.1094 5.39062 19.3984 5.35156 19.6875 5.35156C19.9766 5.35156 20.2656 5.39062 20.2656 5.39062C20.2656 5.39062 20.1484 4.83203 20.1094 4.17578C20.7695 4.21484 21.3281 4.33203 21.3281 4.33203C21.3281 4.33203 21.2891 3.94141 21.2891 3.75C21.2891 3.55859 21.3281 3.17187 21.3281 3.17187C21.3281 3.17187 20.7695 3.28906 20.1094 3.32812V3.32422ZM5.73438 3.32422C5.77344 2.66797 5.89062 2.10938 5.89062 2.10938C5.89062 2.10938 5.50781 2.14844 5.3125 2.14844C5.12109 2.14844 4.73437 2.10938 4.73437 2.10938C4.73437 2.10938 4.85156 2.66797 4.89062 3.32812C4.23047 3.28906 3.67188 3.17187 3.67188 3.17187C3.67188 3.17187 3.71094 3.46094 3.71094 3.75C3.71094 4.03906 3.67188 4.32812 3.67188 4.32812C3.67188 4.32812 4.23047 4.21094 4.89062 4.17188C4.85156 4.83203 4.73437 5.39062 4.73437 5.39062C4.73437 5.39062 5.02344 5.35156 5.3125 5.35156C5.60156 5.35156 5.89062 5.39062 5.89062 5.39062C5.89062 5.39062 5.77344 4.83203 5.73438 4.17188C6.39453 4.21094 6.95312 4.32812 6.95312 4.32812C6.95312 4.32812 6.91406 3.94531 6.91406 3.75C6.91406 3.55859 6.95312 3.17187 6.95312 3.17187C6.95312 3.17187 6.39453 3.28906 5.73828 3.32812L5.73438 3.32422ZM20.1094 14.5742C20.1484 13.918 20.2656 13.3594 20.2656 13.3594C20.2656 13.3594 19.8828 13.3984 19.6875 13.3984C19.4961 13.3984 19.1094 13.3594 19.1094 13.3594C19.1094 13.3594 19.2266 13.918 19.2656 14.5781C18.6055 14.5391 18.0469 14.4219 18.0469 14.4219C18.0469 14.4219 18.0859 14.7109 18.0859 15C18.0859 15.2891 18.0469 15.5781 18.0469 15.5781C18.0469 15.5781 18.6055 15.4609 19.2656 15.4219C19.2266 16.082 19.1094 16.6406 19.1094 16.6406C19.1094 16.6406 19.3984 16.6016 19.6875 16.6016C19.9766 16.6016 20.2656 16.6406 20.2656 16.6406C20.2656 16.6406 20.1484 16.082 20.1094 15.4219C20.7695 15.4609 21.3281 15.5781 21.3281 15.5781C21.3281 15.5781 21.2891 15.1953 21.2891 15C21.2891 14.8086 21.3281 14.4219 21.3281 14.4219C21.3281 14.4219 20.7695 14.5391 20.1094 14.5781V14.5742Z" fill="#FF0000"/>
</svg>
