<svg width="25" height="19" viewBox="0 0 25 19" fill="none" xmlns="http://www.w3.org/2000/svg">
<mask id="mask0_734_11753" style="mask-type:luminance" maskUnits="userSpaceOnUse" x="0" y="0" width="25" height="19">
<path d="M0 0H25V18.7491H0V0Z" fill="white"/>
</mask>
<g mask="url(#mask0_734_11753)">
<path fill-rule="evenodd" clip-rule="evenodd" d="M-0.000244375 14.9335V3.82324L8.27206 9.37839L-0.00390625 14.9335H-0.000244375Z" fill="black"/>
<path fill-rule="evenodd" clip-rule="evenodd" d="M5.64453 18.7531L14.9312 12.5059H28.1215V18.7495H5.64453V18.7531Z" fill="#0000CC"/>
<path fill-rule="evenodd" clip-rule="evenodd" d="M5.05078 0.000457125H28.1209V6.25503H14.927C14.927 6.25503 5.17162 -0.0617957 5.05078 0.000457125Z" fill="#FF0000"/>
<path fill-rule="evenodd" clip-rule="evenodd" d="M-0.000244375 2.34375V3.82317L8.27206 9.37466L-0.00390625 14.9335V16.4092L10.4143 9.37832L-0.00390625 2.34375H-0.000244375Z" fill="#FFCC00"/>
<path fill-rule="evenodd" clip-rule="evenodd" d="M0 2.34364V0H3.47883L14.5086 7.47034H28.1236V11.2861H14.5086L3.47517 18.7491H0V16.4091L10.4145 9.3782L0.00366188 2.34364H0Z" fill="#009933"/>
<path fill-rule="evenodd" clip-rule="evenodd" d="M3.47656 0H5.64443L14.9311 6.25092H28.1214V7.47034H14.51L3.47656 0.00366193V0ZM3.47656 18.7527H5.64443L14.9311 12.5055H28.1214V11.2897H14.51L3.47656 18.7491V18.7527Z" fill="white"/>
</g>
</svg>
