<svg width="25" height="19" viewBox="0 0 25 19" fill="none" xmlns="http://www.w3.org/2000/svg">
<path d="M0 0H25V18.75H0V0Z" fill="#003399"/>
<path d="M12.5004 2.9834L12.2227 3.90932L12.6856 4.00192L12.5004 2.9834Z" fill="#FFCC00"/>
<path d="M12.4996 2.9834L12.7773 3.90932L12.3144 4.00192L12.4996 2.9834Z" fill="#FFCC00"/>
<path d="M13.3827 3.62356L12.4163 3.6455L12.4713 4.11442L13.3827 3.62356Z" fill="#FFCC00"/>
<path d="M13.3829 3.62351L12.5881 4.17382L12.357 3.76213L13.3829 3.62351Z" fill="#FFCC00"/>
<path d="M13.0448 4.65937L12.7253 3.747L12.2963 3.94422L13.0448 4.65937Z" fill="#FFCC00"/>
<path d="M13.045 4.65899L12.2761 4.07318L12.5962 3.72614L13.045 4.65899Z" fill="#FFCC00"/>
<path d="M11.6212 3.62356L12.5876 3.6455L12.5326 4.11442L11.6212 3.62356Z" fill="#FFCC00"/>
<path d="M11.621 3.62351L12.4158 4.17382L12.6469 3.76213L11.621 3.62351Z" fill="#FFCC00"/>
<path d="M11.9591 4.65839L12.2786 3.74603L12.7076 3.94324L11.9591 4.65839Z" fill="#FFCC00"/>
<path d="M11.9589 4.65899L12.7278 4.07318L12.4077 3.72614L11.9589 4.65899Z" fill="#FFCC00"/>
<path d="M12.5004 14.0947L12.2227 15.0207L12.6856 15.1132L12.5004 14.0947Z" fill="#FFCC00"/>
<path d="M12.4996 14.0947L12.7773 15.0207L12.3144 15.1132L12.4996 14.0947Z" fill="#FFCC00"/>
<path d="M13.3827 14.7349L12.4163 14.7568L12.4713 15.2257L13.3827 14.7349Z" fill="#FFCC00"/>
<path d="M13.3829 14.7348L12.5881 15.2852L12.357 14.8735L13.3829 14.7348Z" fill="#FFCC00"/>
<path d="M13.0448 15.7707L12.7253 14.8583L12.2963 15.0555L13.0448 15.7707Z" fill="#FFCC00"/>
<path d="M13.045 15.7703L12.2761 15.1845L12.5962 14.8375L13.045 15.7703Z" fill="#FFCC00"/>
<path d="M11.6212 14.7349L12.5876 14.7568L12.5326 15.2257L11.6212 14.7349Z" fill="#FFCC00"/>
<path d="M11.621 14.7348L12.4158 15.2852L12.6469 14.8735L11.621 14.7348Z" fill="#FFCC00"/>
<path d="M11.9591 15.7707L12.2786 14.8583L12.7076 15.0555L11.9591 15.7707Z" fill="#FFCC00"/>
<path d="M11.9589 15.7703L12.7278 15.1845L12.4077 14.8375L11.9589 15.7703Z" fill="#FFCC00"/>
<path d="M6.94575 8.54004L6.66797 9.46596L7.13093 9.55856L6.94575 8.54004Z" fill="#FFCC00"/>
<path d="M6.94488 8.54004L7.22266 9.46596L6.75969 9.55856L6.94488 8.54004Z" fill="#FFCC00"/>
<path d="M7.82412 9.1802L6.85767 9.20214L6.91268 9.67106L7.82412 9.1802Z" fill="#FFCC00"/>
<path d="M7.82432 9.18015L7.02955 9.73046L6.79842 9.31877L7.82432 9.18015Z" fill="#FFCC00"/>
<path d="M7.48621 10.215L7.16669 9.30267L6.73772 9.49988L7.48621 10.215Z" fill="#FFCC00"/>
<path d="M7.48645 10.2147L6.71747 9.62884L7.03759 9.28181L7.48645 10.2147Z" fill="#FFCC00"/>
<path d="M6.0626 9.17922L7.02905 9.20117L6.97404 9.67008L6.0626 9.17922Z" fill="#FFCC00"/>
<path d="M6.0624 9.17918L6.85717 9.72949L7.08829 9.31779L6.0624 9.17918Z" fill="#FFCC00"/>
<path d="M6.40051 10.215L6.72003 9.30267L7.149 9.49988L6.40051 10.215Z" fill="#FFCC00"/>
<path d="M6.40027 10.2147L7.16925 9.62884L6.84913 9.28181L6.40027 10.2147Z" fill="#FFCC00"/>
<path d="M9.24402 5.44512L10.013 4.85931L9.69288 4.51228L9.24402 5.44512Z" fill="#FFCC00"/>
<path d="M9.24426 5.44452L9.56378 4.53216L9.99275 4.72937L9.24426 5.44452Z" fill="#FFCC00"/>
<path d="M8.91006 4.40965L9.70483 4.95995L9.93595 4.54826L8.91006 4.40965Z" fill="#FFCC00"/>
<path d="M8.91026 4.40969L9.8767 4.43163L9.8217 4.90055L8.91026 4.40969Z" fill="#FFCC00"/>
<path d="M9.7895 3.77051L9.51172 4.69643L9.97468 4.78903L9.7895 3.77051Z" fill="#FFCC00"/>
<path d="M9.78863 3.77051L10.0664 4.69643L9.60344 4.78903L9.78863 3.77051Z" fill="#FFCC00"/>
<path d="M10.3341 5.44415L9.56513 4.85833L9.88525 4.5113L10.3341 5.44415Z" fill="#FFCC00"/>
<path d="M10.3339 5.44355L10.0143 4.53118L9.58538 4.7284L10.3339 5.44355Z" fill="#FFCC00"/>
<path d="M10.6681 4.40965L9.8733 4.95995L9.64217 4.54826L10.6681 4.40965Z" fill="#FFCC00"/>
<path d="M10.6679 4.40969L9.70142 4.43163L9.75643 4.90055L10.6679 4.40969Z" fill="#FFCC00"/>
<path d="M8.27527 7.50507L7.95575 6.59271L7.52679 6.78992L8.27527 7.50507Z" fill="#FFCC00"/>
<path d="M8.27551 7.5047L7.50654 6.91888L7.82666 6.57185L8.27551 7.5047Z" fill="#FFCC00"/>
<path d="M7.18152 7.50372L7.9505 6.9179L7.63038 6.57087L7.18152 7.50372Z" fill="#FFCC00"/>
<path d="M7.18176 7.50409L7.50128 6.59173L7.93025 6.78894L7.18176 7.50409Z" fill="#FFCC00"/>
<path d="M6.84756 6.46922L7.64233 7.01953L7.87345 6.60783L6.84756 6.46922Z" fill="#FFCC00"/>
<path d="M6.84776 6.46926L7.8142 6.4912L7.7592 6.96012L6.84776 6.46926Z" fill="#FFCC00"/>
<path d="M8.60557 6.46922L7.8108 7.01953L7.57967 6.60783L8.60557 6.46922Z" fill="#FFCC00"/>
<path d="M8.60537 6.46926L7.63892 6.4912L7.69393 6.96012L8.60537 6.46926Z" fill="#FFCC00"/>
<path d="M7.72613 5.83008L8.00391 6.756L7.54094 6.8486L7.72613 5.83008Z" fill="#FFCC00"/>
<path d="M7.727 5.83008L7.44922 6.756L7.91218 6.8486L7.727 5.83008Z" fill="#FFCC00"/>
<path d="M8.61318 12.0386L7.64674 12.0605L7.70174 12.5295L8.61318 12.0386Z" fill="#FFCC00"/>
<path d="M8.61338 12.0386L7.81861 12.5889L7.58749 12.1772L8.61338 12.0386Z" fill="#FFCC00"/>
<path d="M8.27527 13.0734L7.95575 12.1611L7.52679 12.3583L8.27527 13.0734Z" fill="#FFCC00"/>
<path d="M8.27551 13.0731L7.50654 12.4872L7.82666 12.1402L8.27551 13.0731Z" fill="#FFCC00"/>
<path d="M7.18543 13.0731L7.9544 12.4872L7.63428 12.1402L7.18543 13.0731Z" fill="#FFCC00"/>
<path d="M7.18566 13.0725L7.50518 12.1601L7.93415 12.3573L7.18566 13.0725Z" fill="#FFCC00"/>
<path d="M7.73394 11.3984L8.01172 12.3244L7.54876 12.417L7.73394 11.3984Z" fill="#FFCC00"/>
<path d="M7.73481 11.3984L7.45703 12.3244L7.91999 12.417L7.73481 11.3984Z" fill="#FFCC00"/>
<path d="M6.85166 12.0376L7.81811 12.0596L7.76311 12.5285L6.85166 12.0376Z" fill="#FFCC00"/>
<path d="M6.85146 12.0376L7.64623 12.5879L7.87736 12.1762L6.85146 12.0376Z" fill="#FFCC00"/>
<path d="M10.621 13.9019L9.65455 13.9238L9.70955 14.3927L10.621 13.9019Z" fill="#FFCC00"/>
<path d="M10.6212 13.9018L9.82642 14.4521L9.5953 14.0405L10.6212 13.9018Z" fill="#FFCC00"/>
<path d="M10.287 14.9377L9.96747 14.0253L9.5385 14.2225L10.287 14.9377Z" fill="#FFCC00"/>
<path d="M10.2872 14.9373L9.51825 14.3515L9.83837 14.0045L10.2872 14.9373Z" fill="#FFCC00"/>
<path d="M9.19715 14.9373L9.96612 14.3515L9.646 14.0045L9.19715 14.9373Z" fill="#FFCC00"/>
<path d="M9.19738 14.9377L9.5169 14.0253L9.94587 14.2225L9.19738 14.9377Z" fill="#FFCC00"/>
<path d="M9.74175 13.2627L10.0195 14.1886L9.55657 14.2812L9.74175 13.2627Z" fill="#FFCC00"/>
<path d="M9.74262 13.2627L9.46484 14.1886L9.92781 14.2812L9.74262 13.2627Z" fill="#FFCC00"/>
<path d="M8.85947 13.9019L9.82592 13.9238L9.77092 14.3927L8.85947 13.9019Z" fill="#FFCC00"/>
<path d="M8.85928 13.9018L9.65405 14.4521L9.88517 14.0405L8.85928 13.9018Z" fill="#FFCC00"/>
<path d="M18.0543 8.54004L18.332 9.46596L17.8691 9.55856L18.0543 8.54004Z" fill="#FFCC00"/>
<path d="M18.0551 8.54004L17.7773 9.46596L18.2403 9.55856L18.0551 8.54004Z" fill="#FFCC00"/>
<path d="M17.172 9.17922L18.1384 9.20117L18.0834 9.67008L17.172 9.17922Z" fill="#FFCC00"/>
<path d="M17.1718 9.17918L17.9665 9.72949L18.1977 9.31779L17.1718 9.17918Z" fill="#FFCC00"/>
<path d="M17.5099 10.215L17.8294 9.30267L18.2584 9.49988L17.5099 10.215Z" fill="#FFCC00"/>
<path d="M17.5096 10.2147L18.2786 9.62884L17.9585 9.28181L17.5096 10.2147Z" fill="#FFCC00"/>
<path d="M18.9335 9.1802L17.967 9.20214L18.0221 9.67106L18.9335 9.1802Z" fill="#FFCC00"/>
<path d="M18.9337 9.18015L18.1389 9.73046L17.9078 9.31877L18.9337 9.18015Z" fill="#FFCC00"/>
<path d="M18.5956 10.215L18.2761 9.30267L17.8471 9.49988L18.5956 10.215Z" fill="#FFCC00"/>
<path d="M18.5958 10.2147L17.8268 9.62884L18.147 9.28181L18.5958 10.2147Z" fill="#FFCC00"/>
<path d="M15.7482 5.4461L14.9792 4.86029L15.2993 4.51325L15.7482 5.4461Z" fill="#FFCC00"/>
<path d="M15.7479 5.4455L15.4284 4.53314L14.9994 4.73035L15.7479 5.4455Z" fill="#FFCC00"/>
<path d="M16.086 4.41062L15.2913 4.96093L15.0601 4.54924L16.086 4.41062Z" fill="#FFCC00"/>
<path d="M16.0858 4.41067L15.1194 4.43261L15.1744 4.90153L16.0858 4.41067Z" fill="#FFCC00"/>
<path d="M15.2066 3.77148L15.4844 4.69741L15.0214 4.79L15.2066 3.77148Z" fill="#FFCC00"/>
<path d="M15.2075 3.77148L14.9297 4.69741L15.3927 4.79L15.2075 3.77148Z" fill="#FFCC00"/>
<path d="M14.662 5.4461L15.431 4.86029L15.1108 4.51325L14.662 5.4461Z" fill="#FFCC00"/>
<path d="M14.6622 5.4455L14.9817 4.53314L15.4107 4.73035L14.6622 5.4455Z" fill="#FFCC00"/>
<path d="M14.328 4.40965L15.1228 4.95995L15.3539 4.54826L14.328 4.40965Z" fill="#FFCC00"/>
<path d="M14.3282 4.40969L15.2947 4.43163L15.2397 4.90055L14.3282 4.40969Z" fill="#FFCC00"/>
<path d="M16.7208 7.50409L17.0403 6.59173L17.4693 6.78894L16.7208 7.50409Z" fill="#FFCC00"/>
<path d="M16.7206 7.50372L17.4896 6.9179L17.1694 6.57087L16.7206 7.50372Z" fill="#FFCC00"/>
<path d="M17.8107 7.50372L17.0417 6.9179L17.3618 6.57087L17.8107 7.50372Z" fill="#FFCC00"/>
<path d="M17.8104 7.50312L17.4909 6.59075L17.0619 6.78797L17.8104 7.50312Z" fill="#FFCC00"/>
<path d="M18.1446 6.46922L17.3499 7.01953L17.1187 6.60783L18.1446 6.46922Z" fill="#FFCC00"/>
<path d="M18.1444 6.46926L17.178 6.4912L17.233 6.96012L18.1444 6.46926Z" fill="#FFCC00"/>
<path d="M16.3827 6.46922L17.1775 7.01953L17.4086 6.60783L16.3827 6.46922Z" fill="#FFCC00"/>
<path d="M16.3829 6.46926L17.3494 6.4912L17.2944 6.96012L16.3829 6.46926Z" fill="#FFCC00"/>
<path d="M17.2661 5.8291L16.9883 6.75503L17.4512 6.84762L17.2661 5.8291Z" fill="#FFCC00"/>
<path d="M17.2652 5.8291L17.543 6.75503L17.08 6.84762L17.2652 5.8291Z" fill="#FFCC00"/>
<path d="M16.3868 12.0386L17.3533 12.0605L17.2983 12.5295L16.3868 12.0386Z" fill="#FFCC00"/>
<path d="M16.3866 12.0386L17.1814 12.5889L17.4125 12.1772L16.3866 12.0386Z" fill="#FFCC00"/>
<path d="M16.7247 13.0744L17.0442 12.162L17.4732 12.3593L16.7247 13.0744Z" fill="#FFCC00"/>
<path d="M16.7245 13.074L17.4935 12.4882L17.1733 12.1412L16.7245 13.074Z" fill="#FFCC00"/>
<path d="M17.8107 13.074L17.0417 12.4882L17.3618 12.1412L17.8107 13.074Z" fill="#FFCC00"/>
<path d="M17.8104 13.0734L17.4909 12.1611L17.0619 12.3583L17.8104 13.0734Z" fill="#FFCC00"/>
<path d="M17.2661 11.3984L16.9883 12.3244L17.4512 12.417L17.2661 11.3984Z" fill="#FFCC00"/>
<path d="M17.2652 11.3984L17.543 12.3244L17.08 12.417L17.2652 11.3984Z" fill="#FFCC00"/>
<path d="M18.1483 12.0376L17.1819 12.0596L17.2369 12.5285L18.1483 12.0376Z" fill="#FFCC00"/>
<path d="M18.1485 12.0376L17.3538 12.5879L17.1226 12.1762L18.1485 12.0376Z" fill="#FFCC00"/>
<path d="M14.379 13.9009L15.3455 13.9228L15.2904 14.3918L14.379 13.9009Z" fill="#FFCC00"/>
<path d="M14.3788 13.9009L15.1736 14.4512L15.4047 14.0395L14.3788 13.9009Z" fill="#FFCC00"/>
<path d="M14.713 14.9367L15.0325 14.0243L15.4615 14.2216L14.713 14.9367Z" fill="#FFCC00"/>
<path d="M14.7128 14.9363L15.4817 14.3505L15.1616 14.0035L14.7128 14.9363Z" fill="#FFCC00"/>
<path d="M15.8029 14.9363L15.0339 14.3505L15.354 14.0035L15.8029 14.9363Z" fill="#FFCC00"/>
<path d="M15.8026 14.9357L15.4831 14.0234L15.0541 14.2206L15.8026 14.9357Z" fill="#FFCC00"/>
<path d="M15.2582 13.2617L14.9805 14.1876L15.4434 14.2802L15.2582 13.2617Z" fill="#FFCC00"/>
<path d="M15.2574 13.2617L15.5352 14.1876L15.0722 14.2802L15.2574 13.2617Z" fill="#FFCC00"/>
<path d="M16.1405 13.9009L15.1741 13.9228L15.2291 14.3918L16.1405 13.9009Z" fill="#FFCC00"/>
<path d="M16.1407 13.9009L15.346 14.4512L15.1148 14.0395L16.1407 13.9009Z" fill="#FFCC00"/>
</svg>
