<svg width="25" height="19" viewBox="0 0 25 19" fill="none" xmlns="http://www.w3.org/2000/svg">
<path fill-rule="evenodd" clip-rule="evenodd" d="M0 0H25V18.75H0V0Z" fill="#E30A17"/>
<path fill-rule="evenodd" clip-rule="evenodd" d="M15.8984 9.66797C15.8984 12.2539 13.7656 14.3516 11.1328 14.3516C8.5 14.3516 6.36719 12.2539 6.36719 9.66406C6.36719 7.07422 8.5 4.98438 11.1328 4.98438C13.7656 4.98438 15.8984 7.08203 15.8984 9.66797Z" fill="white"/>
<path fill-rule="evenodd" clip-rule="evenodd" d="M16.1328 9.66797C16.1328 11.7383 14.4297 13.4141 12.3242 13.4141C10.2188 13.4141 8.51172 11.7344 8.51172 9.66406C8.51172 7.59375 10.2188 5.92188 12.3242 5.92188C14.4297 5.92188 16.1367 7.59766 16.1367 9.66797H16.1328Z" fill="#E30A17"/>
<path fill-rule="evenodd" clip-rule="evenodd" d="M16.8242 7.48047L16.7852 9.21094L15.1719 9.64844L16.7656 10.2148L16.7266 11.8047L17.7617 10.5625L19.332 11.1094L18.4258 9.77734L19.5313 8.45313L17.832 8.92188L16.8242 7.47656V7.48047Z" fill="white"/>
</svg>
