<svg width="25" height="19" viewBox="0 0 25 19" fill="none" xmlns="http://www.w3.org/2000/svg">
<mask id="mask0_734_10603" style="mask-type:luminance" maskUnits="userSpaceOnUse" x="0" y="0" width="25" height="19">
<path d="M0 0H25V18.75H0V0Z" fill="white"/>
</mask>
<g mask="url(#mask0_734_10603)">
<path fill-rule="evenodd" clip-rule="evenodd" d="M-0.78125 0H27.3438V18.75H-0.78125V0Z" fill="white"/>
<path fill-rule="evenodd" clip-rule="evenodd" d="M-0.78125 0H27.3438V9.375H-0.78125V0Z" fill="#DF0000"/>
<path fill-rule="evenodd" clip-rule="evenodd" d="M5.70433 1.56986C4.96441 1.72887 4.30172 2.13761 3.82753 2.72745C3.35334 3.31728 3.09652 4.05231 3.10019 4.80911C3.10385 5.56591 3.36778 6.29841 3.84766 6.88363C4.32754 7.46885 4.99415 7.87115 5.73558 8.02298C5.31084 8.14589 4.86601 8.18374 4.42662 8.13435C3.98722 8.08497 3.56189 7.94933 3.17503 7.73521C2.78817 7.5211 2.44738 7.23271 2.17221 6.88661C1.89704 6.5405 1.69291 6.14347 1.57151 5.7183C1.33041 4.86364 1.4375 3.9483 1.86938 3.17238C2.30126 2.39646 3.02278 1.82311 3.8762 1.57767C4.5012 1.39799 5.07933 1.39408 5.70823 1.56986H5.70433Z" fill="white"/>
<path fill-rule="evenodd" clip-rule="evenodd" d="M5.19531 4.2959L5.38672 4.88184L4.87891 4.52246L4.37891 4.88965L4.5625 4.2959L4.0625 3.93262L4.68359 3.9248L4.87891 3.33887L5.07422 3.9248H5.69141L5.19531 4.2959ZM5.87891 6.32715L6.07422 6.91699L5.56641 6.55762L5.0625 6.9209L5.25 6.33106L4.75 5.96387L5.37109 5.95996L5.5625 5.37012L5.75781 5.95605H6.38281L5.87891 6.32715ZM8.16406 6.31152L8.35547 6.90527L7.84766 6.54199L7.34766 6.90527L7.53125 6.31543L7.03125 5.95215L7.65234 5.94434L7.84766 5.3584L8.04297 5.94434H8.66016L8.16406 6.31152ZM8.84375 4.2959L9.03516 4.88574L8.52734 4.52637L8.02734 4.88965L8.21484 4.2998L7.71094 3.93262L8.33594 3.92871L8.52344 3.33887L8.71875 3.9248H9.34375L8.84375 4.2959ZM7.03516 2.95605L7.23047 3.5498L6.72266 3.18652L6.21875 3.55371L6.40625 2.95996L5.90625 2.59277L6.52344 2.58887L6.71875 1.99902L6.91406 2.58496H7.53906L7.03516 2.95605Z" fill="white"/>
</g>
</svg>
