<svg width="25" height="19" viewBox="0 0 25 19" fill="none" xmlns="http://www.w3.org/2000/svg">
<path d="M0 0H25V9.375H0V0Z" fill="#0038A8"/>
<path d="M0 9.375H25V18.75H0V9.375Z" fill="#CE1126"/>
<path d="M16.2383 9.375L0 18.75V0" fill="white"/>
<path d="M1.04297 1.65625L1.60156 2.14844L2.25 1.78906L1.96094 2.47266L2.50781 2.98047L1.76562 2.91797L1.44922 3.58984L1.28125 2.86719L0.546875 2.77344L1.18359 2.38281L1.04297 1.65625ZM13.6914 8.38672L13.707 9.12891L14.4102 9.375L13.707 9.61719L13.6914 10.3594L13.2422 9.76953L12.5312 9.98438L12.9531 9.375L12.5312 8.76562L13.2422 8.98047L13.6914 8.38672ZM1.45312 15.1602L1.76562 15.832L2.50781 15.7695L1.96484 16.2773L2.25391 16.9609L1.60547 16.6055L1.04297 17.0898L1.18359 16.3594L0.546875 15.9766L1.28516 15.8828L1.45312 15.1602Z" fill="#FCD116"/>
<path d="M5.91406 5.43359L5.67188 5.67578L5.79297 7.51172L5.67578 7.52344L5.45313 5.84766L5.25391 6.04297L5.55078 7.54297C5.31073 7.59022 5.08239 7.68447 4.87891 7.82031L4.03125 6.55469H3.75L4.78125 7.89453C4.74916 7.91955 4.71789 7.9456 4.6875 7.97266L3.47266 6.58594H3.12891V6.92969L4.51172 8.14062L4.43359 8.23828L3.09375 7.21094V7.48828L4.36328 8.33594C4.23047 8.53906 4.13281 8.76562 4.08594 9.00781L2.58984 8.71094L2.39063 8.90625L4.06641 9.12891C4.05859 9.16797 4.05469 9.21094 4.05469 9.25L2.21875 9.13281L1.97656 9.375L2.21875 9.61719L4.05469 9.49609L4.06641 9.61719L2.39063 9.83984L2.58594 10.0352L4.08594 9.73828C4.13319 9.97833 4.22744 10.2067 4.36328 10.4102L3.09375 11.2578V11.5391L4.43359 10.5117C4.45861 10.5438 4.48467 10.5751 4.51172 10.6055L3.12891 11.8164V12.1602H3.47656L4.6875 10.7773L4.78516 10.8555L3.75 12.1953H4.03125L4.87891 10.9258C5.07813 11.0586 5.30859 11.1562 5.55078 11.2031L5.25391 12.7031L5.44922 12.8984L5.67188 11.2227C5.71094 11.2305 5.75 11.2344 5.79297 11.2344L5.67578 13.0703L5.91406 13.3125L6.16016 13.0703L6.03906 11.2344L6.15625 11.2227L6.37891 12.9023L6.57813 12.7031L6.28125 11.2031C6.5213 11.1559 6.74964 11.0616 6.95313 10.9258L7.80078 12.1953H8.08203L7.05078 10.8555C7.08287 10.8305 7.11414 10.8044 7.14453 10.7773L8.35938 12.1602H8.70313V11.8164L7.32031 10.6055L7.39844 10.5117L8.73828 11.5391V11.2578L7.46875 10.4102C7.60156 10.2109 7.69922 9.98047 7.74609 9.73828L9.24219 10.0352L9.44141 9.83984L7.76563 9.61719C7.77344 9.57812 7.77734 9.53906 7.77734 9.49609L9.61328 9.61328L9.85547 9.375L9.61328 9.13281L7.77734 9.25L7.76563 9.13281L9.44141 8.91016L9.24609 8.71484L7.74609 9.00781C7.69885 8.76776 7.60459 8.53942 7.46875 8.33594L8.73828 7.48828V7.21094L7.39844 8.23828C7.37342 8.20619 7.34736 8.17493 7.32031 8.14453L8.70313 6.93359V6.58594H8.35938L7.14844 7.97266C7.11676 7.94554 7.08419 7.91948 7.05078 7.89453L8.08203 6.55469H7.80078L6.95313 7.82031C6.75391 7.6875 6.52344 7.58984 6.28125 7.54297L6.57813 6.04687L6.38281 5.85156L6.16016 7.52344L6.03906 7.51172L6.15625 5.67578L5.91406 5.43359Z" fill="#FCD116"/>
</svg>
