<svg width="25" height="19" viewBox="0 0 25 19" fill="none" xmlns="http://www.w3.org/2000/svg">
<g clip-path="url(#clip0_734_10516)">
<path d="M0 0H25V18.75H0V0Z" fill="#00785E"/>
<path d="M11.5234 4.24609L13.1055 5.39844L12.5 3.53516L11.8945 5.39844L13.4805 4.24609H11.5234Z" fill="#FBD116"/>
<path d="M12.5 12.9531H8.49609C8.44564 12.902 8.39615 12.8499 8.34766 12.7969H12.5C12.5161 12.8026 12.5301 12.8132 12.5399 12.8272C12.5497 12.8412 12.5549 12.8579 12.5547 12.875C12.5547 12.9062 12.5352 12.9414 12.5 12.9531ZM12.5 11.7305C12.5452 11.6385 12.5616 11.535 12.5469 11.4336C12.5394 11.3819 12.5235 11.3318 12.5 11.2852C12.1401 11.6277 11.7055 11.8818 11.2305 12.0273C10.9329 12.1178 10.6235 12.1639 10.3125 12.1641H7.84766C7.91959 12.2708 7.99515 12.375 8.07422 12.4766H10.457C11.2383 12.4766 11.9492 12.1953 12.5 11.7305ZM8.21875 10.7656C8.09722 10.811 7.96941 10.8373 7.83984 10.8438C8.13671 11.1812 8.50207 11.4516 8.91158 11.6368C9.3211 11.822 9.76538 11.9179 10.2148 11.918C10.642 11.9181 11.0647 11.8316 11.4574 11.6637C11.8502 11.4959 12.2049 11.2502 12.5 10.9414C12.6098 10.1806 12.6685 9.41322 12.6758 8.64453C12.6852 7.75981 12.6264 6.87569 12.5 6C12.2422 6.23438 11.7578 6.73047 11.5313 7.49609C11.4463 7.78927 11.4042 8.0932 11.4063 8.39844C11.4061 9.02452 11.5924 9.63646 11.9414 10.1562C11.5114 9.60339 11.2777 8.92306 11.2773 8.22266C11.2773 7.73828 11.3867 7.27734 11.582 6.86719C11.4461 6.72309 11.3458 6.54918 11.2891 6.35937C11.0189 6.83574 10.8776 7.37426 10.8789 7.92187C10.8789 8.625 11.1094 9.27734 11.5 9.80078C11.1326 9.41469 10.6863 9.11227 10.1916 8.91409C9.69681 8.71592 9.16516 8.62665 8.63281 8.65234C8.74075 8.75204 8.83062 8.86966 8.89844 9C9.39949 9.0006 9.89524 9.10267 10.3558 9.30004C10.8163 9.49742 11.2321 9.78602 11.5781 10.1484C10.9103 9.58856 10.0668 9.28156 9.19531 9.28125C8.70327 9.28032 8.21595 9.37725 7.76172 9.56641C8.00532 10.2104 8.45189 10.7577 9.03397 11.1256C9.61605 11.4934 10.302 11.6619 10.9883 11.6055C10.8047 11.6367 10.6172 11.6562 10.4258 11.6562C9.60342 11.6577 8.81296 11.3382 8.22266 10.7656H8.21875ZM12.5 14.2344H10.4258C11.086 14.4961 11.7898 14.63 12.5 14.6289C12.5322 14.5688 12.5496 14.5018 12.5508 14.4336C12.5502 14.3641 12.5328 14.2957 12.5 14.2344ZM12.5 13.2773H8.84375C8.94248 13.3616 9.04411 13.4423 9.14844 13.5195H12.5C12.5316 13.487 12.5497 13.4438 12.5508 13.3984C12.5516 13.3758 12.5475 13.3532 12.5387 13.3323C12.53 13.3114 12.5167 13.2926 12.5 13.2773ZM12.5 13.7656H9.50391C9.68527 13.8805 9.87308 13.9848 10.0664 14.0781H12.5C12.5313 14.0292 12.5476 13.9722 12.5469 13.9141C12.5449 13.8613 12.5287 13.81 12.5 13.7656Z" fill="white"/>
<path d="M7.83203 6.82812L8.82422 7.75L8.5625 6.42187L7.99219 7.64844L9.17578 6.99219L7.83203 6.82812ZM9.27344 5.57813L10.6289 5.60156L9.54687 4.78125L9.94141 6.08203L10.3828 4.79688L9.27344 5.57813Z" fill="#FBD116"/>
<path d="M12.5 12.9531H16.5039C16.5544 12.902 16.6039 12.8499 16.6523 12.7969H12.5C12.4839 12.8026 12.4699 12.8132 12.4601 12.8272C12.4503 12.8412 12.4451 12.8579 12.4453 12.875C12.4453 12.9062 12.4648 12.9414 12.5 12.9531ZM12.5 11.7305C12.4548 11.6385 12.4384 11.535 12.4531 11.4336C12.4606 11.3819 12.4765 11.3318 12.5 11.2852C12.8599 11.6277 13.2945 11.8818 13.7695 12.0273C14.0671 12.1178 14.3765 12.1639 14.6875 12.1641H17.1523C17.0804 12.2708 17.0048 12.375 16.9258 12.4766H14.543C13.7617 12.4766 13.0508 12.1953 12.5 11.7305ZM16.7813 10.7656C16.9028 10.811 17.0306 10.8373 17.1602 10.8438C16.8633 11.1812 16.4979 11.4516 16.0884 11.6368C15.6789 11.822 15.2346 11.9179 14.7852 11.918C14.358 11.9181 13.9353 11.8316 13.5426 11.6637C13.1498 11.4959 12.7951 11.2502 12.5 10.9414C12.3902 10.1806 12.3315 9.41322 12.3242 8.64453C12.3148 7.75981 12.3736 6.87569 12.5 6C12.7578 6.23438 13.2422 6.73047 13.4687 7.49609C13.5537 7.78927 13.5958 8.0932 13.5937 8.39844C13.5939 9.02452 13.4076 9.63646 13.0586 10.1562C13.4886 9.60339 13.7223 8.92306 13.7227 8.22266C13.7227 7.73828 13.6133 7.27734 13.418 6.86719C13.5539 6.72309 13.6542 6.54918 13.7109 6.35937C13.9811 6.83574 14.1224 7.37426 14.1211 7.92187C14.1211 8.625 13.8906 9.27734 13.5 9.80078C13.8674 9.41469 14.3137 9.11227 14.8084 8.91409C15.3032 8.71592 15.8348 8.62665 16.3672 8.65234C16.2593 8.75204 16.1694 8.86966 16.1016 9C15.6005 9.0006 15.1048 9.10267 14.6442 9.30004C14.1837 9.49742 13.7679 9.78602 13.4219 10.1484C14.0897 9.58856 14.9332 9.28156 15.8047 9.28125C16.2967 9.28032 16.784 9.37725 17.2383 9.56641C16.9947 10.2104 16.5481 10.7577 15.966 11.1256C15.384 11.4934 14.698 11.6619 14.0117 11.6055C14.1953 11.6367 14.3828 11.6562 14.5742 11.6562C15.3966 11.6577 16.187 11.3382 16.7773 10.7656H16.7813ZM12.5 14.2344H14.5742C13.914 14.4961 13.2102 14.63 12.5 14.6289C12.4678 14.5688 12.4504 14.5018 12.4492 14.4336C12.4498 14.3641 12.4672 14.2957 12.5 14.2344ZM12.5 13.2773H16.1562C16.0575 13.3616 15.9559 13.4423 15.8516 13.5195H12.5C12.4684 13.487 12.4503 13.4438 12.4492 13.3984C12.4484 13.3758 12.4525 13.3532 12.4613 13.3323C12.47 13.3114 12.4833 13.2926 12.5 13.2773ZM12.5 13.7656H15.4961C15.3147 13.8805 15.1269 13.9848 14.9336 14.0781H12.5C12.4687 14.0292 12.4524 13.9722 12.4531 13.9141C12.4551 13.8613 12.4713 13.81 12.5 13.7656Z" fill="white"/>
<path d="M17.168 6.82812L16.1758 7.75L16.4375 6.42187L17.0078 7.64844L15.8242 6.99219L17.168 6.82812ZM15.7266 5.57813L14.3711 5.60156L15.4531 4.78125L15.0586 6.08203L14.6172 4.79688L15.7266 5.57813Z" fill="#FBD116"/>
</g>
<defs>
<clipPath id="clip0_734_10516">
<rect width="25" height="18.75" fill="white"/>
</clipPath>
</defs>
</svg>
