<svg width="33" height="37" viewBox="0 0 33 37" fill="none" xmlns="http://www.w3.org/2000/svg">
<path d="M21.1528 22.2989C21.4577 22.6128 21.7162 23.1404 21.9279 23.8815C22.1409 24.6275 22.201 25.2155 22.1085 25.6454C22.0159 26.0753 21.7681 26.3478 21.365 26.4629C20.9665 26.5767 20.6133 26.4759 20.3054 26.1604C19.9972 25.845 19.7369 25.3141 19.5238 24.568C19.3122 23.827 19.2542 23.2421 19.3497 22.8138C19.4452 22.3856 19.6922 22.1146 20.0907 22.0008C20.4938 21.8856 20.8478 21.985 21.1528 22.2989ZM14.7235 22.5809C15.1231 22.4668 15.3693 22.1944 15.4624 21.7635C15.5555 21.3327 15.4958 20.7462 15.2839 20.0039C15.0718 19.2613 14.8127 18.733 14.5072 18.4188C14.2014 18.1048 13.8488 18.0046 13.4491 18.1187C13.0495 18.2329 12.8018 18.5045 12.7057 18.9333C12.6096 19.3622 12.6673 19.9479 12.8794 20.6906C13.0915 21.4332 13.3521 21.9623 13.6609 22.278C13.9697 22.5941 14.3238 22.6951 14.7235 22.5809ZM28.9307 17.1296C30.8264 23.7679 26.9818 30.6859 20.3438 32.5816C13.7058 34.4773 6.78754 30.6327 4.89185 23.9947C3.56743 19.3571 5.04497 14.5829 8.31929 11.48C9.24145 12.5785 10.318 13.4435 11.3655 13.9245C12.0952 14.2595 12.7784 14.3913 13.3628 14.3133C13.8761 14.7035 14.56 14.8553 15.2276 14.6646C16.3523 14.3434 17.0036 13.1714 16.6824 12.0467C16.3612 10.922 15.1892 10.2707 14.0645 10.5919C12.9698 10.9045 12.3239 12.0235 12.5864 13.1197C12.358 13.0709 12.1102 12.9861 11.8505 12.8667C10.9522 12.4543 10.0152 11.6943 9.19949 10.7194C10.4352 9.75023 11.8754 8.99973 13.4786 8.54188C20.117 6.6469 27.0351 10.4915 28.9308 17.1298L28.9307 17.1296ZM11.811 20.9994C12.035 21.7839 12.4298 22.3648 12.9957 22.7421C13.5617 23.1193 14.179 23.2123 14.8481 23.0212C15.5172 22.8301 15.9912 22.4255 16.2702 21.8069C16.5489 21.1885 16.5767 20.4869 16.3526 19.7024C16.1272 18.913 15.7317 18.331 15.1668 17.9559C14.6016 17.5814 13.9868 17.4885 13.3226 17.6782C12.6535 17.8693 12.178 18.2731 11.8961 18.89C11.614 19.5069 11.5855 20.21 11.811 20.9994ZM20.5367 15.3294L19.6433 15.5845L14.2626 29.2567L15.1647 28.9991L20.5367 15.3294ZM22.9981 23.5837C22.7741 22.7992 22.3793 22.2182 21.8141 21.8408C21.2489 21.4633 20.6324 21.3701 19.9644 21.5609C19.2964 21.7517 18.822 22.1564 18.5414 22.7754C18.2608 23.3944 18.2324 24.0962 18.4564 24.8807C18.6805 25.6656 19.075 26.2466 19.6404 26.6236C20.2056 27.0011 20.8221 27.0942 21.4901 26.9034C22.1581 26.7127 22.6323 26.3076 22.9131 25.689C23.1936 25.0699 23.2221 24.3682 22.9981 23.5837ZM11.4589 13.7181C12.2801 14.0954 13.0206 14.1988 13.6129 14.0297C13.842 13.9642 14.0491 13.8577 14.2298 13.7106C14.8457 13.2091 15.0597 12.3033 14.8325 11.1603L14.1368 11.2989C14.3104 12.1719 14.1846 12.8328 13.7821 13.1605C13.3613 13.5034 12.6227 13.4714 11.7552 13.0732C10.7939 12.6319 9.79293 11.8095 8.93596 10.7579C8.07932 9.70575 7.47641 8.55899 7.23892 7.52845C7.02437 6.59842 7.14276 5.86843 7.56329 5.52607C7.98408 5.18319 8.72271 5.21514 9.58978 5.61343C10.5511 6.0548 11.5521 6.87721 12.4091 7.92915C12.5333 8.0814 12.654 8.23879 12.7685 8.39626L13.3429 7.97988C13.2207 7.81142 13.0917 7.64366 12.9592 7.48101C12.0354 6.34673 10.9437 5.45446 9.88613 4.9689C8.74717 4.44612 7.76315 4.44848 7.11546 4.97592C6.46748 5.50348 6.2662 6.46667 6.54793 7.68787C6.80972 8.82223 7.46243 10.0713 8.38625 11.2059C9.30961 12.3403 10.4013 13.2323 11.4589 13.7181Z" fill="#ED0107"/>
</svg>
